<svg xmlns="http://www.w3.org/2000/svg" width="502.614" height="863.003" viewBox="0 0 502.614 863.003">
  <path id="Пересечение_1" data-name="Пересечение 1" d="M-13622-175-13925.309-478.3a184.122,184.122,0,0,1-23.322-28.55,181.559,181.559,0,0,1-16.657-31.657,182.169,182.169,0,0,1-10-33.724,183.312,183.312,0,0,1-3.33-34.763,183.241,183.241,0,0,1,3.33-34.76,182.418,182.418,0,0,1,10-33.728,181.665,181.665,0,0,1,16.657-31.653,183.7,183.7,0,0,1,23.322-28.554L-13623-1038h147v853a10,10,0,0,1-10,10Z" transform="translate(13978.614 1037.998)" fill="rgba(0,0,0,0.35)"/>
</svg>
