<svg xmlns="http://www.w3.org/2000/svg" xmlns:xlink="http://www.w3.org/1999/xlink" width="344" height="344" viewBox="0 0 344 344">
  <defs>
    <filter id="Контур_85" x="0" y="0" width="344" height="344" filterUnits="userSpaceOnUse">
      <feOffset dy="2" input="SourceAlpha"/>
      <feGaussianBlur stdDeviation="24" result="blur"/>
      <feFlood flood-opacity="0.078"/>
      <feComposite operator="in" in2="blur"/>
      <feComposite in="SourceGraphic"/>
    </filter>
  </defs>
  <g id="image-1" transform="translate(-0.003)">
    <g transform="matrix(1, 0, 0, 1, 0, 0)" filter="url(#Контур_85)">
      <path id="Контур_85-2" data-name="Контур 85" d="M0,0H200V200H0Z" transform="translate(72 70)" fill="#08142c"/>
    </g>
    <path id="Контур_86" data-name="Контур 86" d="M-15920.326-7199.932a.886.886,0,0,1,.174-1.243.889.889,0,0,1,.658-.17.886.886,0,0,1,.584.346.879.879,0,0,1,.171.657.884.884,0,0,1-.346.585.876.876,0,0,1-.532.179A.885.885,0,0,1-15920.326-7199.932Zm40.029-.623a.886.886,0,0,1,.174-1.243.893.893,0,0,1,.659-.17.887.887,0,0,1,.586.346.884.884,0,0,1,.17.658.886.886,0,0,1-.346.584.881.881,0,0,1-.533.18.881.881,0,0,1-.713-.354Zm30.854-2.887a.993.993,0,0,1-.526-1.3.993.993,0,0,1,1.3-.524,1,1,0,0,1,.527,1.3,1,1,0,0,1-.916.6.983.983,0,0,1-.385-.076Zm-83.842-24.734a.892.892,0,0,1-.171-.657.887.887,0,0,1,.343-.585.888.888,0,0,1,1.242.173.888.888,0,0,1-.174,1.242.88.88,0,0,1-.531.179.883.883,0,0,1-.708-.35Zm95.083-1.749a.991.991,0,0,1-.533-.541.993.993,0,0,1,.007-.759.992.992,0,0,1,1.3-.525.991.991,0,0,1,.525,1.3.993.993,0,0,1-.913.6.965.965,0,0,1-.385-.072Zm17.916-19.059a.884.884,0,0,1-.173-.657.886.886,0,0,1,.345-.586.89.89,0,0,1,.657-.17.887.887,0,0,1,.586.345.881.881,0,0,1,.172.659.887.887,0,0,1-.347.585.871.871,0,0,1-.532.178.888.888,0,0,1-.707-.352Zm-51.92-9.131a.874.874,0,0,1-.173-.658.881.881,0,0,1,.347-.585.883.883,0,0,1,.657-.169.881.881,0,0,1,.583.346.877.877,0,0,1,.172.657.885.885,0,0,1-.345.584.877.877,0,0,1-.534.178.882.882,0,0,1-.708-.351Zm36.456-11.385a.884.884,0,0,1-.169-.657.886.886,0,0,1,.346-.584.887.887,0,0,1,1.242.175.878.878,0,0,1,.171.658.886.886,0,0,1-.346.584.888.888,0,0,1-.536.179.888.888,0,0,1-.708-.355Zm-54.777-13.885a1,1,0,0,1-.527-1.3,1,1,0,0,1,1.3-.525.993.993,0,0,1,.529,1.3,1,1,0,0,1-.917.6,1,1,0,0,1-.384-.073Zm64.271-7.055a1,1,0,0,1,.289-.707.993.993,0,0,1,.705-.293.994.994,0,0,1,.706.293,1,1,0,0,1,.289.707.99.99,0,0,1-.291.7.994.994,0,0,1-.7.291.994.994,0,0,1-.994-.991Zm-26.494,0a1,1,0,0,1,.29-.707,1,1,0,0,1,.7-.293,1,1,0,0,1,.705.294,1,1,0,0,1,.288.706.993.993,0,0,1-.993.994.994.994,0,0,1-.993-.991Zm-61.586-2.417a.892.892,0,0,1,.177-1.243.888.888,0,0,1,1.239.175.893.893,0,0,1,.171.657.884.884,0,0,1-.345.585.878.878,0,0,1-.532.178.889.889,0,0,1-.708-.352Zm74.832-24.073a1,1,0,0,1,.291-.7.992.992,0,0,1,.7-.291.993.993,0,0,1,.7.292.992.992,0,0,1,.29.7.993.993,0,0,1-.993.993.993.993,0,0,1-.99-.991Zm-42.632-14.115a.884.884,0,0,1-.169-.657.886.886,0,0,1,.346-.584.887.887,0,0,1,1.241.173.887.887,0,0,1,.17.658.881.881,0,0,1-.345.584.883.883,0,0,1-.535.179.886.886,0,0,1-.709-.35Z" transform="translate(16047.68 7419.048)" fill="#fff"/>
    <path id="Контур_87" data-name="Контур 87" d="M-15930.053-7255.773a1,1,0,0,1-.526-1.3,1,1,0,0,1,1.3-.524.993.993,0,0,1,.525,1.3,1,1,0,0,1-.914.607A1,1,0,0,1-15930.053-7255.773Zm74.278-29.684a.992.992,0,0,1-.527-1.3,1,1,0,0,1,1.3-.527.994.994,0,0,1,.526,1.3,1,1,0,0,1-.915.6.979.979,0,0,1-.384-.073Zm-77.154-37.168a1,1,0,0,1-.529-1.3,1,1,0,0,1,1.3-.526,1,1,0,0,1,.527,1.3,1,1,0,0,1-.916.605A.987.987,0,0,1-15932.929-7322.625Zm64.216-4a1,1,0,0,1-.527-1.3,1,1,0,0,1,1.3-.524.994.994,0,0,1,.526,1.3,1,1,0,0,1-.913.6,1,1,0,0,1-.386-.077Zm64.218-4a.993.993,0,0,1-.526-1.3,1,1,0,0,1,1.3-.527,1,1,0,0,1,.524,1.3,1,1,0,0,1-.916.605.983.983,0,0,1-.386-.079Z" transform="translate(16047.704 7440.306)" fill="#fff" opacity="0.638"/>
    <path id="Контур_88" data-name="Контур 88" d="M-15447.681-7250.4a63.078,63.078,0,0,1-21.324-47.352,63.248,63.248,0,0,1,63.252-63.246,63.252,63.252,0,0,1,63.261,63.257,63.083,63.083,0,0,1-21.322,47.34Z" transform="translate(15609.616 7520.403)" fill="#596e96"/>
    <path id="Контур_89" data-name="Контур 89" d="M-15415.09-7243.647A50.022,50.022,0,0,1-15449-7291a50,50,0,0,1,50.009-50,50,50,0,0,1,50.009,50.009,50.021,50.021,0,0,1-33.9,47.339Z" transform="translate(15602.858 7513.647)" fill="#657ba5"/>
    <path id="Контур_90" data-name="Контур 90" d="M43.57,42.272l-7.323-7.49C36.249,10.676,22.031,0,22.031,0S7.673,10.679,7.671,34.785L.347,42.276A1.269,1.269,0,0,0,.012,43.36l2.8,17.056a1.168,1.168,0,0,0,1.8.824l10.238-6.927s3.158,3.051,7.186,3.051a11.016,11.016,0,0,0,7.034-3.052l10.237,6.926a1.173,1.173,0,0,0,1.8-.824L43.936,43.34a1.356,1.356,0,0,0-.366-1.068ZM22.028,26.85a4.886,4.886,0,1,1,4.684-4.883,4.778,4.778,0,0,1-4.684,4.883Z" transform="translate(170.94 102.587) rotate(45)" fill="#f5f5f5" opacity="0.178"/>
    <path id="Контур_91" data-name="Контур 91" d="M0,42.96a58.489,58.489,0,0,0,22.964-7.684A59.426,59.426,0,0,0,40.006,20.208,66.166,66.166,0,0,0,50.519,0a54,54,0,0,1-6.44,16.784A53.8,53.8,0,0,1,32.79,30.269,52.668,52.668,0,0,1,17.732,39.36,52,52,0,0,1,0,42.96Z" transform="translate(192.064 214.825) rotate(7)" fill="#fff" opacity="0.205"/>
    <path id="Контур_92" data-name="Контур 92" d="M-15564.3-7480.608c-5.463-2.1-8.937-6.287-7.757-9.359s6.566-3.865,12.031-1.769,8.938,6.288,7.76,9.363c-.735,1.91-3.1,2.939-6.091,2.939A16.833,16.833,0,0,1-15564.3-7480.608Zm5.449-26.093a5.3,5.3,0,0,1,5.3-5.3,5.3,5.3,0,0,1,5.3,5.3,5.3,5.3,0,0,1-5.3,5.3,5.3,5.3,0,0,1-5.3-5.3Z" transform="translate(15747.817 7694.581)" fill="#fff" opacity="0.044"/>
    <path id="Контур_93" data-name="Контур 93" d="M10.814,24.442a1.2,1.2,0,0,1-2.211.653c-6.2-9.064,2.612-9.473,2.613-13.88a3.2,3.2,0,0,0-3.247-3.2,3.236,3.236,0,0,0-3.162,3.252v4.282a1.2,1.2,0,0,1-2.075.826A10.01,10.01,0,0,1,0,9.614a9.614,9.614,0,1,1,19.228,0c0,8.525-8.414,9.663-8.414,14.828Z" transform="translate(137.685 162.734) rotate(45)" fill="#89a9e7"/>
    <path id="Контур_94" data-name="Контур 94" d="M10.814,24.442a1.2,1.2,0,0,1-2.211.653c-6.2-9.064,2.612-9.473,2.613-13.88a3.2,3.2,0,0,0-3.247-3.2,3.236,3.236,0,0,0-3.162,3.252v4.282a1.2,1.2,0,0,1-2.075.826A10.01,10.01,0,0,1,0,9.614a9.614,9.614,0,1,1,19.228,0c0,8.525-8.414,9.663-8.414,14.828Z" transform="translate(129.374 149.894) rotate(45)" fill="#89a9e6"/>
    <path id="Контур_95" data-name="Контур 95" d="M8.41,24.442a1.2,1.2,0,0,0,2.211.653c6.2-9.065-2.61-9.473-2.61-13.879a3.2,3.2,0,1,1,6.409.047v4.282a1.2,1.2,0,0,0,2.074.826,10.014,10.014,0,0,0,2.733-6.758A9.614,9.614,0,1,0,0,9.614c0,8.528,8.412,9.663,8.411,14.828Z" transform="translate(145.239 147.629) rotate(45)" fill="#b2c7f0"/>
    <path id="Контур_96" data-name="Контур 96" d="M37.4,36.286l-6.286-6.43C31.116,9.165,18.911,0,18.911,0S6.587,9.167,6.585,29.859L.3,36.29a1.089,1.089,0,0,0-.288.93L2.418,51.861a1,1,0,0,0,1.545.707l8.788-5.946A10,10,0,0,0,18.92,49.24a9.456,9.456,0,0,0,6.038-2.62l8.787,5.945a1.007,1.007,0,0,0,1.545-.707L37.714,37.2a1.164,1.164,0,0,0-.314-.914ZM18.909,23.048a4.194,4.194,0,1,1,4.021-4.191,4.1,4.1,0,0,1-4.021,4.191Z" transform="translate(173.376 104.551) rotate(45)" fill="#f5f5f5"/>
  </g>
</svg>
