<svg height="343.939" viewBox="0 0 343.642 343.939" width="343.642" xmlns="http://www.w3.org/2000/svg" xmlns:xlink="http://www.w3.org/1999/xlink"><filter id="a" filterUnits="userSpaceOnUse" height="343.939" width="343.642" x="0" y="0"><feOffset dy="2"/><feGaussianBlur result="blur" stdDeviation="24"/><feFlood flood-opacity=".078"/><feComposite in2="blur" operator="in"/><feComposite in="SourceGraphic"/></filter><g filter="url(#a)" transform="translate(.002)"><path d="m0 0h199.641v199.939h-199.641z" fill="#08142c" transform="translate(72 70)"/></g><path d="m-19451.008-7419.917a.883.883 0 0 1 .645-1.075.884.884 0 0 1 1.072.646.886.886 0 0 1 -.645 1.072.916.916 0 0 1 -.217.027.884.884 0 0 1 -.855-.67zm-37.91-3.759a.891.891 0 0 1 .645-1.074.882.882 0 0 1 1.074.646.89.89 0 0 1 -.645 1.075.9.9 0 0 1 -.211.026.892.892 0 0 1 -.863-.674zm-27.957-6.243a.886.886 0 0 1 .645-1.075.889.889 0 0 1 1.072.646.884.884 0 0 1 -.645 1.075.9.9 0 0 1 -.217.027.881.881 0 0 1 -.855-.673zm77.322-2.925a1 1 0 0 1 -.525-1.3.988.988 0 0 1 1.3-.526.993.993 0 0 1 .527 1.3.994.994 0 0 1 -.914.6.987.987 0 0 1 -.388-.074zm-113.139-20.881a.884.884 0 0 1 .645-1.075.888.888 0 0 1 1.072.646.888.888 0 0 1 -.646 1.075.866.866 0 0 1 -.211.026.882.882 0 0 1 -.859-.673zm145.629-14.6a.988.988 0 0 1 -.525-1.3.987.987 0 0 1 1.295-.526.99.99 0 0 1 .525 1.3.988.988 0 0 1 -.91.6.987.987 0 0 1 -.384-.074zm-79.91-17.869a.991.991 0 0 1 -.523-1.3.988.988 0 0 1 1.3-.526.992.992 0 0 1 .525 1.3.987.987 0 0 1 -.91.6 1.016 1.016 0 0 1 -.392-.074zm17.367-8.421a.881.881 0 0 1 .645-1.075.883.883 0 0 1 1.072.646.885.885 0 0 1 -.646 1.071.876.876 0 0 1 -.215.027.886.886 0 0 1 -.855-.669z" fill="#fff" transform="translate(19663.211 7594.681)"/><path d="m-19434.383-7419.388a.993.993 0 0 1 .025-1.4.988.988 0 0 1 1.4.022.989.989 0 0 1 -.027 1.4.967.967 0 0 1 -.686.28.99.99 0 0 1 -.712-.302zm-90.744-8.142a.993.993 0 0 1 .025-1.4.989.989 0 0 1 1.4.022.994.994 0 0 1 -.025 1.406.979.979 0 0 1 -.684.276 1 1 0 0 1 -.716-.304zm-21.324-5.1a1 1 0 0 1 .023-1.405.989.989 0 0 1 1.4.025.99.99 0 0 1 -.021 1.4 1 1 0 0 1 -.689.278.987.987 0 0 1 -.713-.302zm-5.652-39.443a1 1 0 0 1 .027-1.406.99.99 0 0 1 1.4.026.991.991 0 0 1 -.025 1.4.975.975 0 0 1 -.686.28 1 1 0 0 1 -.713-.304zm33.426-21.621a.991.991 0 0 1 .027-1.4.99.99 0 0 1 1.4.022.994.994 0 0 1 -.025 1.405.982.982 0 0 1 -.686.279.994.994 0 0 1 -.717-.312z" fill="#fff" opacity=".638" transform="translate(19687.535 7579.619)"/><path d="m-17518.861-7236.813q-2.083-.267-4.139-.544v-80.758c61.848-3.041 135.838-3.171 199.5-.425v81.727z" fill="#596e96" transform="translate(17595.5 7506.812)"/><path d="m-17523-7233.933v-73.495c31.779-2.926 67.547-4.57 105.365-4.57 33.43 0 65.248 1.284 94.135 3.6v74.462z" fill="#657ba5" transform="translate(17595.5 7503.933)"/><ellipse cx="196.958" cy="236.008" opacity=".192" rx="20.037" ry="2.554"/><ellipse cx="251.24" cy="207.184" opacity=".192" rx="9.472" ry="2.189"/><g fill="#6ca565"><g transform="translate(238.854 191.862)"><path d="m15.82212639 14.82379818h-7.59984017c-1.3709898 0-2.54756975-.73602963-3.1473298-1.9688797-.59976006-1.23285007-.45260001-2.61285019.39365005-3.69150066l3.79991961-4.84346962c.66792011-.85134983 1.67160034-1.33961988 2.75368023-1.33961988 1.08207988 0 2.08576011.48827005 2.75368023 1.33961988l3.79991912 4.84346962c.84625054 1.07865047.99341011 2.45865059.39365006 3.69150066-.59976006 1.23285007-1.77633858 1.9688797-3.14732933 1.9688797z"/><path d="m12.02220631 3.48032856c-.92749977 0-1.78779984.41851997-2.36028958 1.14824009l-3.79992103 4.84346962c-.72535897.92456055-.85149956 2.10741997-.33741951 3.16415024.51408004 1.05673027 1.52256965 1.68760967 2.69771003 1.68760967h7.59984017c1.17514038 0 2.18362999-.6308794 2.69771004-1.68760967.51408004-1.05673027.38793945-2.23958969-.33741951-3.16415024l-3.79991055-4.84346008c-.57250977-.72972966-1.43280983-1.14824963-2.36030006-1.14824963m0-1c1.17315292 0 2.34630489.51032925 3.14706039 1.53098965l3.79992008 4.84346962c2.05938912 2.62495041.18931961 6.46901035-3.14706039 6.46901035h-7.59984017c-3.33638 0-5.2064495-3.84405994-3.14706039-6.46901035l3.79992008-4.84346962c.8007555-1.0206604 1.97390747-1.53098965 3.1470604-1.53098965z" fill="#657ba5"/></g><g transform="translate(238.854 184.564)"><path d="m15.82212639 14.82379818h-7.59984017c-1.3709898 0-2.54756975-.73602963-3.1473298-1.9688797-.59976006-1.23285007-.45260001-2.61285019.39365005-3.69150066l3.79991961-4.84346962c.66792011-.85134983 1.67160034-1.33961988 2.75368023-1.33961988 1.08207988 0 2.08576011.48827005 2.75368023 1.33961988l3.79991912 4.84346962c.84625054 1.07865047.99341011 2.45865059.39365006 3.69150066-.59976006 1.23285007-1.77633858 1.9688797-3.14732933 1.9688797z"/><path d="m12.02220631 3.48032856c-.92749977 0-1.78779984.41851997-2.36028958 1.14824009l-3.79992103 4.84346962c-.72535897.92456055-.85149956 2.10741997-.33741951 3.16415024.51408004 1.05673027 1.52256965 1.68760967 2.69771003 1.68760967h7.59984017c1.17514038 0 2.18362999-.6308794 2.69771004-1.68760967.51408004-1.05673027.38793945-2.23958969-.33741951-3.16415024l-3.79991055-4.84346008c-.57250977-.72972966-1.43280983-1.14824963-2.36030006-1.14824963m0-1c1.17315292 0 2.34630489.51032925 3.14706039 1.53098965l3.79992008 4.84346962c2.05938912 2.62495041.18931961 6.46901035-3.14706039 6.46901035h-7.59984017c-3.33638 0-5.2064495-3.84405994-3.14706039-6.46901035l3.79992008-4.84346962c.8007555-1.0206604 1.97390747-1.53098965 3.1470604-1.53098965z" fill="#657ba5"/></g><g transform="translate(243.226 175.808)"><path d="m8.83316422 14.82379723h-2.36532975c-1.22145986 0-2.33425998-.62021065-2.97672987-1.65904999-.64247012-1.03885079-.70030999-2.31150055-.15470004-3.40434075l1.18266988-2.36884975c.60542011-1.21264982 1.77604008-1.93661976 3.13142014-1.93661976 1.35538005 0 2.52600002.72396994 3.13142013 1.93661976l1.18266964 2.36884975c.54561043 1.0928402.48777008 2.36548996-.15469932 3.40434075-.64247036 1.03883934-1.75526047 1.65904999-2.97672081 1.65904999z"/><path d="m7.65049458 5.95493698c-1.16174984 0-2.16514016.62055016-2.68408013 1.65995979l-1.18266964 2.36884976c-.46765995.93671989-.41808986 2.02756023.13260937 2.91800022.55069065.89043999 1.50450993 1.42205048 2.55148029 1.42205048h2.36532975c1.04696083 0 2.00079059-.53161049 2.5514698-1.42204094.55070114-.89044953.60027027-1.98128987.13261032-2.91800976l-1.18266964-2.36884976c-.51893997-1.03940963-1.52233028-1.65995979-2.68408012-1.65995979m0-1c1.42105484 0 2.84211063.73775959 3.57877063 2.21327973l1.18266964 2.36884975c1.32775021 2.65947056-.60628986 5.78673077-3.57877063 5.78673077h-2.36532975c-2.97249031 0-4.90652942-3.12726021-3.57878017-5.78673077l1.18267059-2.36884975c.73666001-1.47552014 2.15771485-2.21327973 3.57876969-2.21327973z" fill="#657ba5"/></g></g><ellipse cx="225.373" cy="203.171" opacity=".042" rx="7.65" ry=".365"/><g fill="#689084" transform="translate(216.995 192.592)"><path d="m12.08627415 10.44556713h-8.14294029c-.57678008 0-1.07687997-.30709934-1.33777999-.82149982-.26089001-.51439953-.21320987-1.09932995.12754011-1.5646801l4.07147002-5.56027985c.28563976-.39008999.7267499-.61380994 1.21023989-.61380994s.92459964.22371995 1.21024036.61380994l4.07146931 5.56027985c.34075069.46535015.38843059 1.05028057.12754059 1.5646801-.2609005.51440048-.76100064.82149982-1.33778.82149982z"/><path d="m8.01480484 2.38528728c-.32231998 0-.61639976.1491499-.80683041.40921021l-4.0714693 5.56027985c-.22716999.31023979-.25895024.70019054-.08502007 1.04312038s.50732994.54766941.89184952.54766941h8.14294052c.38451958 0 .7179203-.20473957.89184952-.54766941.17393017-.34292984.14214992-.73288059-.08502007-1.04312038l-4.07147026-5.56027985c-.19042968-.26006031-.48450947-.40921021-.80682945-.40921021m0-.99999523c.6070652 0 1.2141304.27280522 1.61364937.81841565l4.07147026 5.56027984c.96745014 1.32120991.02390003 3.18157959-1.61364937 3.18157959h-8.14294052c-1.6375494 0-2.58109951-1.86036968-1.61364937-3.18157959l4.07146931-5.56027984c.39951992-.54561043 1.00658512-.81841565 1.61365032-.81841565z" fill="#657ba5"/></g><g fill="#689084" transform="translate(216.995 187.484)"><path d="m11.91846371 9.71586227h-7.80731964c-.58757019 0-1.09182024-.31544017-1.34886027-.84381008-.25704002-.52836036-.19396996-1.11979007.16871-1.58206033l3.90366005-4.97569991c.28623248-.36484778.7163992-.57412004 1.18011666-.57412004h.00003338c.46374988-.00001001.89389991.20924997 1.18015003.57412004l3.90365982 4.97569991c.36268043.46227026.42574978 1.05369997.16870975 1.58206033-.25704002.52836991-.76128959.84381008-1.34885978.84381008z"/><path d="m8.01480484 2.2401619c-.30916977 0-.5959301.13951015-.78676033.38274955l-3.90366936 4.9757104c-.24178028.30818033-.28383064.70245981-.11247062 1.05470037.17136001.35223961.50753021.56254005.89924049.56254005h7.80731964c.39171028 0 .72788048-.21030044.89924049-.56254005.17136002-.35224056.12930966-.74652004-.11248016-1.05471039l-3.90365028-4.97568989c-.19083977-.24324989-.47760964-.38276004-.78676987-.38276004m0-.99999524c.58657742 0 1.17315483.2551651 1.5735302.7654953l3.90365982 4.97569991c1.02970028 1.31246996.0946598 3.2345004-1.5735302 3.2345004h-7.80731964c-1.66819 0-2.60323048-1.92203044-1.5735302-3.2345004l3.90365982-4.97569991c.40037537-.5103302.98695278-.7654953 1.5735302-.7654953z" fill="#657ba5"/></g><g fill="#689084" transform="translate(219.909 181.646)"><path d="m6.96674967 9.71586704h-3.73283982c-.52347994 0-1.00039006-.26580047-1.27574003-.71102047-.27533996-.44521999-.30012989-.99063968-.0662899-1.45900011l1.86640989-3.73839974c.25945998-.51971007.7611599-.82998014 1.34204007-.82998014.58088016 0 1.08258009.31027007 1.34204006.82998014l1.86640978 3.73839974c.23383999.46836043.20905018 1.01378012-.06628991 1.45900011-.27535009.44522-.75225973.71102047-1.27574014.71102047z"/><path d="m5.10032988 3.47746658c-.38724995 0-.72172022.20685006-.89470005.55331993l-1.86640978 3.73839999c-.22469044.45006036-.04394007.83014059.04419994.97265958.08814001.14253045.34745979.47402001.85049009.47402001h3.73284006c.50302983 0 .76235009-.33148956.85048962-.47402001.08814001-.14251899.26889038-.52259922.04419994-.97265958l-1.86640977-3.73839999c-.17297984-.34646987-.50745011-.55331993-.89470005-.55331993m0-1c.7105298 0 1.42106008.36888028 1.78939008 1.10663987l1.86641026 3.73840045c.66387939 1.32973004-.30314064 2.89335919-1.78938008 2.89335919h-3.73284006c-1.48623991 0-2.45325994-1.56362915-1.78938055-2.89335919l1.86641026-3.73840045c.36833-.73775959 1.07886028-1.10663987 1.78939009-1.10663987z" fill="#657ba5"/></g><ellipse cx="100.78" cy="201.347" opacity=".042" rx="7.65" ry=".73"/><g fill="#689084" transform="translate(92.401 190.402)"><path d="m12.08627415 10.44556713h-8.14294029c-.57678008 0-1.07687997-.30709934-1.33777999-.82149982-.26089001-.51439953-.21320987-1.09932995.12754011-1.5646801l4.07147002-5.56027985c.28563976-.39008999.7267499-.61380994 1.21023989-.61380994s.92459964.22371995 1.21024036.61380994l4.07146931 5.56027985c.34075069.46535015.38843059 1.05028057.12754059 1.5646801-.2609005.51440048-.76100064.82149982-1.33778.82149982z"/><path d="m8.01480484 2.38528728c-.32231998 0-.61639976.1491499-.80683041.40921021l-4.0714693 5.56027985c-.22716999.31023979-.25895024.70019054-.08502007 1.04312038s.50732994.54766941.89184952.54766941h8.14294052c.38451958 0 .7179203-.20473957.89184952-.54766941.17393017-.34292984.14214992-.73288059-.08502007-1.04312038l-4.07147026-5.56027985c-.19042968-.26006031-.48450947-.40921021-.80682945-.40921021m0-.99999523c.6070652 0 1.2141304.27280522 1.61364937.81841565l4.07147026 5.56027984c.96745014 1.32120991.02390003 3.18157959-1.61364937 3.18157959h-8.14294052c-1.6375494 0-2.58109951-1.86036968-1.61364937-3.18157959l4.07146931-5.56027984c.39951992-.54561043 1.00658512-.81841565 1.61365032-.81841565z" fill="#657ba5"/></g><g fill="#689084" transform="translate(92.401 185.294)"><path d="m12.08627415 10.44556713h-8.14294029c-.57678008 0-1.07687997-.30709934-1.33777999-.82149982-.26089001-.51439953-.21320987-1.09932995.12754011-1.5646801l4.07147002-5.56027985c.28563976-.39008999.7267499-.61380994 1.21023989-.61380994s.92459964.22371995 1.21024036.61380994l4.07146931 5.56027985c.34075069.46535015.38843059 1.05028057.12754059 1.5646801-.2609005.51440048-.76100064.82149982-1.33778.82149982z"/><path d="m8.01480484 2.38528728c-.32231998 0-.61639976.1491499-.80683041.40921021l-4.0714693 5.56027985c-.22716999.31023979-.25895024.70019054-.08502007 1.04312038s.50732994.54766941.89184952.54766941h8.14294052c.38451958 0 .7179203-.20473957.89184952-.54766941.17393017-.34292984.14214992-.73288059-.08502007-1.04312038l-4.07147026-5.56027985c-.19042968-.26006031-.48450947-.40921021-.80682945-.40921021m0-.99999523c.6070652 0 1.2141304.27280522 1.61364937.81841565l4.07147026 5.56027984c.96745014 1.32120991.02390003 3.18157959-1.61364937 3.18157959h-8.14294052c-1.6375494 0-2.58109951-1.86036968-1.61364937-3.18157959l4.07146931-5.56027984c.39951992-.54561043 1.00658512-.81841565 1.61365032-.81841565z" fill="#657ba5"/></g><g fill="#689084" transform="translate(94.587 179.456)"><path d="m7.59129 9.71586704h-4.25329995c-.53217984 0-1.0131898-.27254009-1.28671003-.72904968-.27351987-.45651054-.28695988-1.0092001-.03593993-1.47846031l2.12664008-3.97565985c.26543999-.49623012.75989008-.79249 1.32265997-.79249.56275988 0 1.05720997.29624986 1.32264996.79249l2.12665033 3.97565985c.25101948.46926021.23757935 1.02194977-.03594017 1.47846031-.27352047.45650959-.75452995.72904968-1.28671026.72904968z"/><path d="m5.46464014 3.24020672c-.18015003 0-.62670994.05148029-.88178015.52832031l-2.12664032 3.97566986c-.24120998.45092011-.06359958.83950043.02396012.98564053.08756065.14612961.34643078.48602962.85781049.48602962h4.25330019c.5113802 0 .77024937-.33990001.85781002-.48602962.0875597-.1461401.26516915-.53472042.02396012-.98564053l-2.12666035-3.97566986c-.25506019-.47684002-.70161009-.52832031-.88176012-.52832031m-.00000143-1.00000191c.69336653 0 1.38673162.35221768 1.76354122 1.05665207l2.12664986 3.97566032c.71267032 1.3322897-.25261975 2.94334984-1.76353932 2.94334984h-4.25330019c-1.51092004 0-2.47621011-1.61106014-1.76353979-2.94334984l2.12663985-3.97566032c.37681484-.70443439 1.07018232-1.05665207 1.76354837-1.05665207z" fill="#657ba5"/></g><ellipse cx="160.527" cy="225.062" opacity=".109" rx="12.751" ry="1.824"/><path d="m-19544.738-7432.03v-15.6a8.528 8.528 0 0 1 -5.85-2.616 8.545 8.545 0 0 1 -2.412-5.971v-7.638a8.23 8.23 0 0 1 .65-3.221 8.154 8.154 0 0 1 1.771-2.631 8.168 8.168 0 0 1 2.623-1.773 8.244 8.244 0 0 1 3.217-.649h5.178a11.794 11.794 0 0 1 -1.934-.633 12.079 12.079 0 0 1 -3.84-2.591 12.009 12.009 0 0 1 -2.586-3.845 12.038 12.038 0 0 1 -.949-4.708 12.035 12.035 0 0 1 .949-4.707 12.009 12.009 0 0 1 2.586-3.845 12.128 12.128 0 0 1 3.84-2.591 11.979 11.979 0 0 1 4.7-.951 11.962 11.962 0 0 1 4.7.951 12 12 0 0 1 3.84 2.591 12.111 12.111 0 0 1 2.588 3.845 12.035 12.035 0 0 1 .949 4.707 12.038 12.038 0 0 1 -.949 4.708 12.111 12.111 0 0 1 -2.588 3.845 11.99 11.99 0 0 1 -3.84 2.591 11.677 11.677 0 0 1 -1.934.633h5.176a8.242 8.242 0 0 1 3.221.649 8.284 8.284 0 0 1 2.625 1.773 8.3 8.3 0 0 1 1.771 2.631 8.25 8.25 0 0 1 .648 3.221v7.319a8.884 8.884 0 0 1 -2.3 5.975 8.865 8.865 0 0 1 -5.648 2.885v15.647zm4.135-20.051v16.231h7.941v-24.5h4.131v8.262a4.424 4.424 0 0 0 2.83-1.292 4.433 4.433 0 0 0 1.3-3.152v-7.319a4.43 4.43 0 0 0 -1.3-3.15 4.427 4.427 0 0 0 -3.15-1.305h-15.564a4.419 4.419 0 0 0 -3.148 1.305 4.424 4.424 0 0 0 -1.3 3.15v7.319a4.431 4.431 0 0 0 1.3 3.152 4.433 4.433 0 0 0 2.826 1.292v-8.262h4.129v8.273zm.6-39.45a8.233 8.233 0 0 0 -2.627 1.773 8.21 8.21 0 0 0 -1.771 2.633 8.156 8.156 0 0 0 -.648 3.219 8.156 8.156 0 0 0 .648 3.221 8.192 8.192 0 0 0 1.771 2.63 8.187 8.187 0 0 0 2.627 1.774 8.18 8.18 0 0 0 3.215.649 8.18 8.18 0 0 0 3.215-.649 8.182 8.182 0 0 0 2.627-1.774 8.224 8.224 0 0 0 1.77-2.63 8.218 8.218 0 0 0 .65-3.221 8.213 8.213 0 0 0 -.65-3.219 8.22 8.22 0 0 0 -1.77-2.633 8.283 8.283 0 0 0 -2.627-1.773 8.206 8.206 0 0 0 -3.215-.649 8.206 8.206 0 0 0 -3.22.648z" fill="#d0d6e3" transform="translate(19697.152 7656.943)"/><path d="m6.929 4.055-2.141-3.573a.99.99 0 0 0 -.85-.482h-3.438a.5.5 0 0 0 -.41.781l3.446 4.929a6.4 6.4 0 0 1 3.393-1.655zm8.429-4.055h-3.442a.991.991 0 0 0 -.85.482l-2.14 3.573a6.407 6.407 0 0 1 3.392 1.655l3.446-4.929a.5.5 0 0 0 -.406-.781zm-7.431 4.962a5.458 5.458 0 1 0 5.45 5.458 5.454 5.454 0 0 0 -5.45-5.458zm2.865 4.877-1.174 1.146.282 1.615a.356.356 0 0 1 -.516.375l-1.453-.764-1.452.764a.355.355 0 0 1 -.516-.375l.278-1.619-1.178-1.142a.356.356 0 0 1 .2-.608l1.624-.237.726-1.474a.356.356 0 0 1 .638 0l.726 1.474 1.624.237a.356.356 0 0 1 .2.608z" fill="#f5f5f5" transform="translate(152.431 184.658)"/><ellipse cx="134.297" cy="225.062" opacity=".109" rx="12.751" ry="1.824"/><ellipse cx="107.702" cy="225.062" opacity=".109" rx="13.115" ry="1.824"/><path d="m-19544.738-7432.03v-15.6a8.528 8.528 0 0 1 -5.85-2.616 8.545 8.545 0 0 1 -2.412-5.971v-7.638a8.23 8.23 0 0 1 .65-3.221 8.154 8.154 0 0 1 1.771-2.631 8.168 8.168 0 0 1 2.623-1.773 8.244 8.244 0 0 1 3.217-.649h5.178a11.794 11.794 0 0 1 -1.934-.633 12.079 12.079 0 0 1 -3.84-2.591 12.009 12.009 0 0 1 -2.586-3.845 12.038 12.038 0 0 1 -.949-4.708 12.035 12.035 0 0 1 .949-4.707 12.009 12.009 0 0 1 2.586-3.845 12.128 12.128 0 0 1 3.84-2.591 11.979 11.979 0 0 1 4.7-.951 11.962 11.962 0 0 1 4.7.951 12 12 0 0 1 3.84 2.591 12.111 12.111 0 0 1 2.588 3.845 12.035 12.035 0 0 1 .949 4.707 12.038 12.038 0 0 1 -.949 4.708 12.111 12.111 0 0 1 -2.588 3.845 11.99 11.99 0 0 1 -3.84 2.591 11.677 11.677 0 0 1 -1.934.633h5.176a8.242 8.242 0 0 1 3.221.649 8.284 8.284 0 0 1 2.625 1.773 8.3 8.3 0 0 1 1.771 2.631 8.25 8.25 0 0 1 .648 3.221v7.319a8.884 8.884 0 0 1 -2.3 5.975 8.865 8.865 0 0 1 -5.648 2.885v15.647zm4.135-20.051v16.231h7.941v-24.5h4.131v8.262a4.424 4.424 0 0 0 2.83-1.292 4.433 4.433 0 0 0 1.3-3.152v-7.319a4.43 4.43 0 0 0 -1.3-3.15 4.427 4.427 0 0 0 -3.15-1.305h-15.564a4.419 4.419 0 0 0 -3.148 1.305 4.424 4.424 0 0 0 -1.3 3.15v7.319a4.431 4.431 0 0 0 1.3 3.152 4.433 4.433 0 0 0 2.826 1.292v-8.262h4.129v8.273zm.6-39.45a8.233 8.233 0 0 0 -2.627 1.773 8.21 8.21 0 0 0 -1.771 2.633 8.156 8.156 0 0 0 -.648 3.219 8.156 8.156 0 0 0 .648 3.221 8.192 8.192 0 0 0 1.771 2.63 8.187 8.187 0 0 0 2.627 1.774 8.18 8.18 0 0 0 3.215.649 8.18 8.18 0 0 0 3.215-.649 8.182 8.182 0 0 0 2.627-1.774 8.224 8.224 0 0 0 1.77-2.63 8.218 8.218 0 0 0 .65-3.221 8.213 8.213 0 0 0 -.65-3.219 8.22 8.22 0 0 0 -1.77-2.633 8.283 8.283 0 0 0 -2.627-1.773 8.206 8.206 0 0 0 -3.215-.649 8.206 8.206 0 0 0 -3.22.648z" fill="#d0d6e3" transform="translate(19644.304 7656.943)"/><path d="m6.929 4.055-2.141-3.573a.99.99 0 0 0 -.85-.482h-3.438a.5.5 0 0 0 -.41.781l3.446 4.929a6.4 6.4 0 0 1 3.393-1.655zm8.429-4.055h-3.442a.991.991 0 0 0 -.85.482l-2.14 3.573a6.407 6.407 0 0 1 3.392 1.655l3.446-4.929a.5.5 0 0 0 -.406-.781zm-7.431 4.962a5.458 5.458 0 1 0 5.45 5.458 5.454 5.454 0 0 0 -5.45-5.458zm2.865 4.877-1.174 1.146.282 1.615a.356.356 0 0 1 -.516.375l-1.453-.764-1.452.764a.355.355 0 0 1 -.516-.375l.278-1.619-1.178-1.142a.356.356 0 0 1 .2-.608l1.624-.237.726-1.474a.356.356 0 0 1 .638 0l.726 1.474 1.624.237a.356.356 0 0 1 .2.608z" fill="#f5f5f5" transform="translate(99.583 184.658)"/><path d="m-19544.738-7432.03v-15.6a8.528 8.528 0 0 1 -5.85-2.616 8.545 8.545 0 0 1 -2.412-5.971v-7.638a8.23 8.23 0 0 1 .65-3.221 8.154 8.154 0 0 1 1.771-2.631 8.168 8.168 0 0 1 2.623-1.773 8.244 8.244 0 0 1 3.217-.649h5.178a11.794 11.794 0 0 1 -1.934-.633 12.079 12.079 0 0 1 -3.84-2.591 12.009 12.009 0 0 1 -2.586-3.845 12.038 12.038 0 0 1 -.949-4.708 12.035 12.035 0 0 1 .949-4.707 12.009 12.009 0 0 1 2.586-3.845 12.128 12.128 0 0 1 3.84-2.591 11.979 11.979 0 0 1 4.7-.951 11.962 11.962 0 0 1 4.7.951 12 12 0 0 1 3.84 2.591 12.111 12.111 0 0 1 2.588 3.845 12.035 12.035 0 0 1 .949 4.707 12.038 12.038 0 0 1 -.949 4.708 12.111 12.111 0 0 1 -2.588 3.845 11.99 11.99 0 0 1 -3.84 2.591 11.677 11.677 0 0 1 -1.934.633h5.176a8.242 8.242 0 0 1 3.221.649 8.284 8.284 0 0 1 2.625 1.773 8.3 8.3 0 0 1 1.771 2.631 8.25 8.25 0 0 1 .648 3.221v7.319a8.884 8.884 0 0 1 -2.3 5.975 8.865 8.865 0 0 1 -5.648 2.885v15.647zm4.135-20.051v16.231h7.941v-24.5h4.131v8.262a4.424 4.424 0 0 0 2.83-1.292 4.433 4.433 0 0 0 1.3-3.152v-7.319a4.43 4.43 0 0 0 -1.3-3.15 4.427 4.427 0 0 0 -3.15-1.305h-15.564a4.419 4.419 0 0 0 -3.148 1.305 4.424 4.424 0 0 0 -1.3 3.15v7.319a4.431 4.431 0 0 0 1.3 3.152 4.433 4.433 0 0 0 2.826 1.292v-8.262h4.129v8.273zm.6-39.45a8.233 8.233 0 0 0 -2.627 1.773 8.21 8.21 0 0 0 -1.771 2.633 8.156 8.156 0 0 0 -.648 3.219 8.156 8.156 0 0 0 .648 3.221 8.192 8.192 0 0 0 1.771 2.63 8.187 8.187 0 0 0 2.627 1.774 8.18 8.18 0 0 0 3.215.649 8.18 8.18 0 0 0 3.215-.649 8.182 8.182 0 0 0 2.627-1.774 8.224 8.224 0 0 0 1.77-2.63 8.218 8.218 0 0 0 .65-3.221 8.213 8.213 0 0 0 -.65-3.219 8.22 8.22 0 0 0 -1.77-2.633 8.283 8.283 0 0 0 -2.627-1.773 8.206 8.206 0 0 0 -3.215-.649 8.206 8.206 0 0 0 -3.22.648z" fill="#d0d6e3" transform="translate(19670.728 7656.943)"/><path d="m6.929 4.055-2.141-3.573a.99.99 0 0 0 -.85-.482h-3.438a.5.5 0 0 0 -.41.781l3.446 4.929a6.4 6.4 0 0 1 3.393-1.655zm8.429-4.055h-3.442a.991.991 0 0 0 -.85.482l-2.14 3.573a6.407 6.407 0 0 1 3.392 1.655l3.446-4.929a.5.5 0 0 0 -.406-.781zm-7.431 4.962a5.458 5.458 0 1 0 5.45 5.458 5.454 5.454 0 0 0 -5.45-5.458zm2.865 4.877-1.174 1.146.282 1.615a.356.356 0 0 1 -.516.375l-1.453-.764-1.452.764a.355.355 0 0 1 -.516-.375l.278-1.619-1.178-1.142a.356.356 0 0 1 .2-.608l1.624-.237.726-1.474a.356.356 0 0 1 .638 0l.726 1.474 1.624.237a.356.356 0 0 1 .2.608z" fill="#f5f5f5" transform="translate(126.007 184.658)"/><path d="m2.426 9.473c-1.656-.744-2.71-2.228-2.353-3.316s1.989-1.366 3.645-.623 2.709 2.228 2.352 3.315a1.776 1.776 0 0 1 -1.845 1.04 4.467 4.467 0 0 1 -1.799-.416zm7.513-7.592a1.754 1.754 0 0 1 1.6-1.874 1.758 1.758 0 0 1 1.611 1.876 1.753 1.753 0 0 1 -1.6 1.874 1.758 1.758 0 0 1 -1.611-1.876z" fill="#fff" opacity=".123" transform="matrix(.90630779 .42261826 -.42261826 .90630779 192.253 156.466)"/><path d="m-19540.619-7400.13v-23.382a12.781 12.781 0 0 1 -8.768-3.92 12.813 12.813 0 0 1 -3.613-8.947v-11.447a12.327 12.327 0 0 1 .975-4.827 12.309 12.309 0 0 1 2.65-3.941 12.34 12.34 0 0 1 3.938-2.659 12.325 12.325 0 0 1 4.818-.974h7.762a17.688 17.688 0 0 1 -2.9-.948 18.018 18.018 0 0 1 -5.754-3.883 18.052 18.052 0 0 1 -3.877-5.762 18.035 18.035 0 0 1 -1.426-7.054 18.032 18.032 0 0 1 1.426-7.055 18.052 18.052 0 0 1 3.877-5.762 18.185 18.185 0 0 1 5.754-3.883 17.962 17.962 0 0 1 7.043-1.425 17.944 17.944 0 0 1 7.045 1.425 18.012 18.012 0 0 1 5.754 3.883 18.084 18.084 0 0 1 3.877 5.762 18.031 18.031 0 0 1 1.424 7.055 18.033 18.033 0 0 1 -1.424 7.054 18.084 18.084 0 0 1 -3.877 5.762 18.063 18.063 0 0 1 -5.754 3.883 17.534 17.534 0 0 1 -2.9.948h7.758a12.346 12.346 0 0 1 4.824.974 12.375 12.375 0 0 1 3.936 2.659 12.416 12.416 0 0 1 2.654 3.941 12.393 12.393 0 0 1 .971 4.827v10.969a13.313 13.313 0 0 1 -3.443 8.955 13.288 13.288 0 0 1 -8.465 4.323v23.45zm6.193-30.05v24.324h11.908v-36.725h6.188v12.383a6.634 6.634 0 0 0 4.242-1.937 6.641 6.641 0 0 0 1.951-4.723v-10.969a6.634 6.634 0 0 0 -1.951-4.721 6.631 6.631 0 0 0 -4.719-1.957h-23.332a6.627 6.627 0 0 0 -4.717 1.957 6.637 6.637 0 0 0 -1.951 4.721v10.969a6.644 6.644 0 0 0 1.951 4.723 6.64 6.64 0 0 0 4.236 1.938v-12.383h6.193zm.893-59.123a12.392 12.392 0 0 0 -3.934 2.659 12.331 12.331 0 0 0 -2.654 3.944 12.321 12.321 0 0 0 -.975 4.826 12.321 12.321 0 0 0 .975 4.825 12.294 12.294 0 0 0 2.654 3.941 12.333 12.333 0 0 0 3.934 2.659 12.3 12.3 0 0 0 4.82.974 12.274 12.274 0 0 0 4.82-.974 12.212 12.212 0 0 0 3.934-2.659 12.226 12.226 0 0 0 2.654-3.941 12.282 12.282 0 0 0 .975-4.825 12.288 12.288 0 0 0 -.975-4.826 12.274 12.274 0 0 0 -2.654-3.944 12.385 12.385 0 0 0 -3.934-2.659 12.275 12.275 0 0 0 -4.82-.975 12.3 12.3 0 0 0 -4.82.978z" fill="#fff" transform="translate(19725.099 7636.218)"/><g transform="matrix(.70710678 .70710678 -.70710678 .70710678 215.438 108.713)"><path d="m0 0 43.849.033.033 43.849-43.849-.033z" fill="none"/><path d="m20.421 17.331-16.079-.012a.619.619 0 0 0 -.618.618v1.237a.621.621 0 0 0 .619.619l16.079.012a.619.619 0 0 0 .618-.618v-1.237a.621.621 0 0 0 -.619-.619zm2.465-12.366a1.852 1.852 0 0 0 -1.854 1.854 1.819 1.819 0 0 0 .171.765l-2.8 1.675a1.236 1.236 0 0 1 -1.703-.449l-3.158-5.51a1.857 1.857 0 1 0 -2.342 0l-3.146 5.5a1.235 1.235 0 0 1 -1.708.447l-2.8-1.68a1.855 1.855 0 1 0 -1.684 1.092 1.894 1.894 0 0 0 .3-.031l2.8 7.454 14.842.011 2.789-7.45a1.9 1.9 0 0 0 .3.031 1.855 1.855 0 0 0 0-3.711z" fill="#6d7885" transform="translate(9.145 12.796)"/></g><path d="m0 8.986a11.426 11.426 0 0 0 4.611-1.608 12.081 12.081 0 0 0 3.423-3.151 14.023 14.023 0 0 0 2.111-4.227 11.59 11.59 0 0 1 -1.293 3.511 11.116 11.116 0 0 1 -2.268 2.821 10.493 10.493 0 0 1 -3.023 1.9 10.064 10.064 0 0 1 -3.561.754z" fill="#fff" opacity=".314" transform="matrix(0 -1 1 0 198.36 157.706)"/></svg>