<svg height="344" viewBox="0 0 344 344" width="344" xmlns="http://www.w3.org/2000/svg" xmlns:xlink="http://www.w3.org/1999/xlink"><filter id="a" filterUnits="userSpaceOnUse" height="344" width="344" x="0" y="0"><feOffset dy="2"/><feGaussianBlur result="blur" stdDeviation="24"/><feFlood flood-opacity=".078"/><feComposite in2="blur" operator="in"/><feComposite in="SourceGraphic"/></filter><g transform="translate(-.003)"><g filter="url(#a)"><path d="m0 0h200v200h-200z" fill="#08142c" transform="translate(72 70)"/></g><path d="m-15920.326-7199.932a.886.886 0 0 1 .174-1.243.889.889 0 0 1 .658-.17.886.886 0 0 1 .584.346.879.879 0 0 1 .171.657.884.884 0 0 1 -.346.585.876.876 0 0 1 -.532.179.885.885 0 0 1 -.709-.354zm40.029-.623a.886.886 0 0 1 .174-1.243.893.893 0 0 1 .659-.17.887.887 0 0 1 .586.346.884.884 0 0 1 .17.658.886.886 0 0 1 -.346.584.881.881 0 0 1 -.533.18.881.881 0 0 1 -.713-.354zm30.854-2.887a.993.993 0 0 1 -.526-1.3.993.993 0 0 1 1.3-.524 1 1 0 0 1 .527 1.3 1 1 0 0 1 -.916.6.983.983 0 0 1 -.385-.076zm-83.842-24.734a.892.892 0 0 1 -.171-.657.887.887 0 0 1 .343-.585.888.888 0 0 1 1.242.173.888.888 0 0 1 -.174 1.242.88.88 0 0 1 -.531.179.883.883 0 0 1 -.708-.35zm95.083-1.749a.991.991 0 0 1 -.533-.541.993.993 0 0 1 .007-.759.992.992 0 0 1 1.3-.525.991.991 0 0 1 .525 1.3.993.993 0 0 1 -.913.6.965.965 0 0 1 -.385-.072zm17.916-19.059a.884.884 0 0 1 -.173-.657.886.886 0 0 1 .345-.586.89.89 0 0 1 .657-.17.887.887 0 0 1 .586.345.881.881 0 0 1 .172.659.887.887 0 0 1 -.347.585.871.871 0 0 1 -.532.178.888.888 0 0 1 -.707-.352zm-51.92-9.131a.874.874 0 0 1 -.173-.658.881.881 0 0 1 .347-.585.883.883 0 0 1 .657-.169.881.881 0 0 1 .583.346.877.877 0 0 1 .172.657.885.885 0 0 1 -.345.584.877.877 0 0 1 -.534.178.882.882 0 0 1 -.708-.351zm36.456-11.385a.884.884 0 0 1 -.169-.657.886.886 0 0 1 .346-.584.887.887 0 0 1 1.242.175.878.878 0 0 1 .171.658.886.886 0 0 1 -.346.584.888.888 0 0 1 -.536.179.888.888 0 0 1 -.708-.355zm-54.777-13.885a1 1 0 0 1 -.527-1.3 1 1 0 0 1 1.3-.525.993.993 0 0 1 .529 1.3 1 1 0 0 1 -.917.6 1 1 0 0 1 -.384-.073zm64.271-7.055a1 1 0 0 1 .289-.707.993.993 0 0 1 .705-.293.994.994 0 0 1 .706.293 1 1 0 0 1 .289.707.99.99 0 0 1 -.291.7.994.994 0 0 1 -.7.291.994.994 0 0 1 -.994-.991zm-26.494 0a1 1 0 0 1 .29-.707 1 1 0 0 1 .7-.293 1 1 0 0 1 .705.294 1 1 0 0 1 .288.706.993.993 0 0 1 -.993.994.994.994 0 0 1 -.993-.991zm-61.586-2.417a.892.892 0 0 1 .177-1.243.888.888 0 0 1 1.239.175.893.893 0 0 1 .171.657.884.884 0 0 1 -.345.585.878.878 0 0 1 -.532.178.889.889 0 0 1 -.708-.352zm74.832-24.073a1 1 0 0 1 .291-.7.992.992 0 0 1 .7-.291.993.993 0 0 1 .7.292.992.992 0 0 1 .29.7.993.993 0 0 1 -.993.993.993.993 0 0 1 -.99-.991zm-42.632-14.115a.884.884 0 0 1 -.169-.657.886.886 0 0 1 .346-.584.887.887 0 0 1 1.241.173.887.887 0 0 1 .17.658.881.881 0 0 1 -.345.584.883.883 0 0 1 -.535.179.886.886 0 0 1 -.709-.35z" fill="#fff" transform="translate(16047.68 7419.048)"/><path d="m-15930.053-7255.773a1 1 0 0 1 -.526-1.3 1 1 0 0 1 1.3-.524.993.993 0 0 1 .525 1.3 1 1 0 0 1 -.914.607 1 1 0 0 1 -.385-.083zm74.278-29.684a.992.992 0 0 1 -.527-1.3 1 1 0 0 1 1.3-.527.994.994 0 0 1 .526 1.3 1 1 0 0 1 -.915.6.979.979 0 0 1 -.384-.073zm-77.154-37.168a1 1 0 0 1 -.529-1.3 1 1 0 0 1 1.3-.526 1 1 0 0 1 .527 1.3 1 1 0 0 1 -.916.605.987.987 0 0 1 -.382-.079zm64.216-4a1 1 0 0 1 -.527-1.3 1 1 0 0 1 1.3-.524.994.994 0 0 1 .526 1.3 1 1 0 0 1 -.913.6 1 1 0 0 1 -.386-.077zm64.218-4a.993.993 0 0 1 -.526-1.3 1 1 0 0 1 1.3-.527 1 1 0 0 1 .524 1.3 1 1 0 0 1 -.916.605.983.983 0 0 1 -.386-.079z" fill="#fff" opacity=".638" transform="translate(16047.704 7440.306)"/><path d="m-15447.681-7250.4a63.078 63.078 0 0 1 -21.324-47.352 63.248 63.248 0 0 1 63.252-63.246 63.252 63.252 0 0 1 63.261 63.257 63.083 63.083 0 0 1 -21.322 47.34z" fill="#596e96" transform="translate(15609.616 7520.403)"/><path d="m-15415.09-7243.647a50.022 50.022 0 0 1 -33.91-47.353 50 50 0 0 1 50.009-50 50 50 0 0 1 50.009 50.009 50.021 50.021 0 0 1 -33.9 47.339z" fill="#657ba5" transform="translate(15602.858 7513.647)"/><path d="m43.57 42.272-7.323-7.49c.002-24.106-14.216-34.782-14.216-34.782s-14.358 10.679-14.36 34.785l-7.324 7.491a1.269 1.269 0 0 0 -.335 1.084l2.8 17.056a1.168 1.168 0 0 0 1.8.824l10.238-6.927s3.158 3.051 7.186 3.051a11.016 11.016 0 0 0 7.034-3.052l10.237 6.926a1.173 1.173 0 0 0 1.8-.824l2.829-17.074a1.356 1.356 0 0 0 -.366-1.068zm-21.542-15.422a4.886 4.886 0 1 1 4.684-4.883 4.778 4.778 0 0 1 -4.684 4.883z" fill="#f5f5f5" opacity=".178" transform="matrix(.70710678 .70710678 -.70710678 .70710678 170.94 102.587)"/><path d="m0 42.96a58.489 58.489 0 0 0 22.964-7.684 59.426 59.426 0 0 0 17.042-15.068 66.166 66.166 0 0 0 10.513-20.208 54 54 0 0 1 -6.44 16.784 53.8 53.8 0 0 1 -11.289 13.485 52.668 52.668 0 0 1 -15.058 9.091 52 52 0 0 1 -17.732 3.6z" fill="#fff" opacity=".205" transform="matrix(.99254615 .12186934 -.12186934 .99254615 192.064 214.825)"/><path d="m-15564.3-7480.608c-5.463-2.1-8.937-6.287-7.757-9.359s6.566-3.865 12.031-1.769 8.938 6.288 7.76 9.363c-.735 1.91-3.1 2.939-6.091 2.939a16.833 16.833 0 0 1 -5.943-1.174zm5.449-26.093a5.3 5.3 0 0 1 5.3-5.3 5.3 5.3 0 0 1 5.3 5.3 5.3 5.3 0 0 1 -5.3 5.3 5.3 5.3 0 0 1 -5.3-5.3z" fill="#fff" opacity=".044" transform="translate(15747.817 7694.581)"/><path d="m10.814 24.442a1.2 1.2 0 0 1 -2.211.653c-6.2-9.064 2.612-9.473 2.613-13.88a3.2 3.2 0 0 0 -3.247-3.2 3.236 3.236 0 0 0 -3.162 3.252v4.282a1.2 1.2 0 0 1 -2.075.826 10.01 10.01 0 0 1 -2.732-6.761 9.614 9.614 0 1 1 19.228 0c0 8.525-8.414 9.663-8.414 14.828z" fill="#89a9e7" transform="matrix(.70710678 .70710678 -.70710678 .70710678 137.685 162.734)"/><path d="m10.814 24.442a1.2 1.2 0 0 1 -2.211.653c-6.2-9.064 2.612-9.473 2.613-13.88a3.2 3.2 0 0 0 -3.247-3.2 3.236 3.236 0 0 0 -3.162 3.252v4.282a1.2 1.2 0 0 1 -2.075.826 10.01 10.01 0 0 1 -2.732-6.761 9.614 9.614 0 1 1 19.228 0c0 8.525-8.414 9.663-8.414 14.828z" fill="#89a9e6" transform="matrix(.70710678 .70710678 -.70710678 .70710678 129.374 149.894)"/><path d="m8.41 24.442a1.2 1.2 0 0 0 2.211.653c6.2-9.065-2.61-9.473-2.61-13.879a3.2 3.2 0 1 1 6.409.047v4.282a1.2 1.2 0 0 0 2.074.826 10.014 10.014 0 0 0 2.733-6.758 9.614 9.614 0 1 0 -19.227.001c0 8.528 8.412 9.663 8.411 14.828z" fill="#b2c7f0" transform="matrix(.70710678 .70710678 -.70710678 .70710678 145.239 147.629)"/><path d="m37.4 36.286-6.286-6.43c.002-20.691-12.203-29.856-12.203-29.856s-12.324 9.167-12.326 29.859l-6.285 6.431a1.089 1.089 0 0 0 -.288.93l2.406 14.641a1 1 0 0 0 1.545.707l8.788-5.946a10 10 0 0 0 6.169 2.618 9.456 9.456 0 0 0 6.038-2.62l8.787 5.945a1.007 1.007 0 0 0 1.545-.707l2.424-14.658a1.164 1.164 0 0 0 -.314-.914zm-18.491-13.238a4.194 4.194 0 1 1 4.021-4.191 4.1 4.1 0 0 1 -4.021 4.191z" fill="#f5f5f5" transform="matrix(.70710678 .70710678 -.70710678 .70710678 173.376 104.551)"/></g></svg>