<svg xmlns="http://www.w3.org/2000/svg" xmlns:xlink="http://www.w3.org/1999/xlink" width="744" height="344" viewBox="0 0 744 344"><defs><filter id="a" x="0" y="0" width="744" height="344" filterUnits="userSpaceOnUse"><feOffset dy="2" input="SourceAlpha"/><feGaussianBlur stdDeviation="24" result="b"/><feFlood flood-opacity="0.078"/><feComposite operator="in" in2="b"/><feComposite in="SourceGraphic"/></filter></defs><g transform="translate(72.043 70)"><g transform="matrix(1, 0, 0, 1, -72.04, -70)" filter="url(#a)"><path d="M0,0H600V200H0Z" transform="translate(72 70)" fill="#08142c"/></g><path d="M-18149.6-9175.514a1,1,0,0,1,.557-1.294,1,1,0,0,1,1.289.547,1,1,0,0,1-.219,1.079,1.105,1.105,0,0,1-.332.22,1.015,1.015,0,0,1-.369.07A1.007,1.007,0,0,1-18149.6-9175.514Zm-246.961.547a.983.983,0,0,1-.326-.215,1,1,0,0,1-.221-1.079,1,1,0,0,1,1.291-.547,1,1,0,0,1,.551,1.294.993.993,0,0,1-.92.622A.97.97,0,0,1-18396.559-9174.967Zm386.963-40.546a1,1,0,0,1,.551-1.294,1,1,0,0,1,1.295.547,1.015,1.015,0,0,1-.221,1.079,1.043,1.043,0,0,1-.33.215.949.949,0,0,1-.369.075A1,1,0,0,1-18009.6-9215.513Zm-189.309-5.238a1,1,0,0,1,.551-1.294.992.992,0,0,1,1.295.547,1,1,0,0,1-.215,1.079,1.052,1.052,0,0,1-.332.215.961.961,0,0,1-.373.075A1,1,0,0,1-18198.9-9220.751Zm-148.348.547a.98.98,0,0,1-.33-.215,1,1,0,0,1-.221-1.079.992.992,0,0,1,1.295-.547.991.991,0,0,1,.551,1.294.992.992,0,0,1-.92.622A.956.956,0,0,1-18347.252-9220.2Zm8.594-9.182a.993.993,0,0,1-.527-1.3,1,1,0,0,1,1.3-.523.992.992,0,0,1,.523,1.3.985.985,0,0,1-.91.6A.958.958,0,0,1-18338.658-9229.386Zm220.6-19.635a.994.994,0,0,1,.547-1.295.989.989,0,0,1,1.295.547.982.982,0,0,1-.221,1.07.864.864,0,0,1-.332.22.956.956,0,0,1-.373.074A.986.986,0,0,1-18118.061-9249.021Zm-310.029.546a1.079,1.079,0,0,1-.332-.219,1.006,1.006,0,0,1-.219-1.075.988.988,0,0,1,1.293-.547,1,1,0,0,1,.553,1.295.994.994,0,0,1-.922.616A1.051,1.051,0,0,1-18428.09-9248.475Zm163.705-10.593a1,1,0,0,1-.527-1.3,1,1,0,0,1,1.309-.528.993.993,0,0,1,.523,1.3,1,1,0,0,1-.916.6A1.043,1.043,0,0,1-18264.385-9259.067Zm205.482-1.683a.993.993,0,0,1,.551-1.294.994.994,0,0,1,1.295.547,1,1,0,0,1-.221,1.079.952.952,0,0,1-.332.215.942.942,0,0,1-.369.075A1,1,0,0,1-18058.9-9260.75Zm-97.42-8.237a.989.989,0,0,1,.553-1.29.988.988,0,0,1,1.289.547,1,1,0,0,1-.215,1.074,1.027,1.027,0,0,1-.336.215.928.928,0,0,1-.369.075A.991.991,0,0,1-18156.322-9268.987Zm-233.508.551a1.087,1.087,0,0,1-.332-.22,1,1,0,0,1-.219-1.074.992.992,0,0,1,1.295-.547.993.993,0,0,1,.551,1.29.992.992,0,0,1-.92.621A1.046,1.046,0,0,1-18389.83-9268.437Zm411.771-20.588a.99.99,0,0,1,.547-1.295,1,1,0,0,1,1.293.552.989.989,0,0,1-.219,1.07.962.962,0,0,1-.332.22.963.963,0,0,1-.373.074A.983.983,0,0,1-17978.059-9289.024Zm-560,0a.99.99,0,0,1,.547-1.295,1,1,0,0,1,1.293.552.982.982,0,0,1-.219,1.07.962.962,0,0,1-.332.22.963.963,0,0,1-.373.074A.983.983,0,0,1-18538.059-9289.024Zm196.521-7.21a1,1,0,0,1-.527-1.3.992.992,0,0,1,1.3-.528,1,1,0,0,1,.527,1.3,1,1,0,0,1-.916.607A1.047,1.047,0,0,1-18341.537-9296.234Zm64.219-4a.994.994,0,0,1-.527-1.3,1,1,0,0,1,1.3-.528.992.992,0,0,1,.523,1.3.981.981,0,0,1-.91.6A.958.958,0,0,1-18277.318-9300.239Zm64.213-4a1,1,0,0,1-.527-1.3,1,1,0,0,1,1.309-.528,1,1,0,0,1,.523,1.3,1,1,0,0,1-.916.607A1.043,1.043,0,0,1-18213.105-9304.234Zm196.785-4.752a.991.991,0,0,1,.547-1.29.99.99,0,0,1,1.295.547.99.99,0,0,1-.221,1.07.923.923,0,0,1-.332.22.951.951,0,0,1-.369.074A.988.988,0,0,1-18016.32-9308.986Zm-97.418-8.238a.989.989,0,0,1,.547-1.295.991.991,0,0,1,1.289.552.99.99,0,0,1-.219,1.075.944.944,0,0,1-.328.219,1.028,1.028,0,0,1-.373.07A.983.983,0,0,1-18113.738-9317.225Zm-318.67.551a.96.96,0,0,1-.332-.219,1,1,0,0,1-.219-1.075,1,1,0,0,1,1.295-.552,1,1,0,0,1,.551,1.295.992.992,0,0,1-.92.621A1.038,1.038,0,0,1-18432.408-9316.674Z" transform="translate(18567.021 9343.916)" fill="#fff" opacity="0.638"/><path d="M-18102.039-9153.419a.89.89,0,0,1-.756-1,.888.888,0,0,1,1-.756.881.881,0,0,1,.752,1,.851.851,0,0,1-.248.5.884.884,0,0,1-.625.261A1.075,1.075,0,0,1-18102.039-9153.419Zm-311.641-.252a.932.932,0,0,1-.252-.5.89.89,0,0,1,.756-1,.888.888,0,0,1,1,.756.9.9,0,0,1-.756,1,1.075,1.075,0,0,1-.125.009A.892.892,0,0,1-18413.68-9153.671Zm282.506-10.558a.886.886,0,0,1-.756-1,.89.89,0,0,1,1-.761.888.888,0,0,1,.75,1,.866.866,0,0,1-.246.5.884.884,0,0,1-.625.262A1.111,1.111,0,0,1-18131.174-9164.229Zm-253.371-.252a.873.873,0,0,1-.252-.5.891.891,0,0,1,.756-1,.888.888,0,0,1,1,.761.888.888,0,0,1-.756,1,.98.98,0,0,1-.121.01A.9.9,0,0,1-18384.545-9164.48Zm310.369-17.686a.884.884,0,0,1-.75-1,.881.881,0,0,1,1-.751.882.882,0,0,1,.756,1,.873.873,0,0,1-.252.5.877.877,0,0,1-.625.262A1.111,1.111,0,0,1-18074.176-9182.166Zm-367.367-.252a.873.873,0,0,1-.252-.5.888.888,0,0,1,.756-1,.9.9,0,0,1,1,.756.887.887,0,0,1-.756,1,1.077,1.077,0,0,1-.125.01A.881.881,0,0,1-18441.543-9182.418Zm127.529-8.43a.892.892,0,0,1,.178-1.245.885.885,0,0,1,1.24.177.886.886,0,0,1-.176,1.241.88.88,0,0,1-.533.182A.9.9,0,0,1-18314.014-9190.848Zm40.031-.625a.886.886,0,0,1,.174-1.241.886.886,0,0,1,1.24.173.882.882,0,0,1-.172,1.241.88.88,0,0,1-.533.182A.88.88,0,0,1-18273.982-9191.473Zm311.943-1.95a.887.887,0,0,1-.756-1,.888.888,0,0,1,1-.756.882.882,0,0,1,.752,1,.86.86,0,0,1-.248.5.867.867,0,0,1-.625.257A.557.557,0,0,1-17962.039-9193.423Zm-560,0a.883.883,0,0,1-.754-1,.887.887,0,0,1,1-.756.889.889,0,0,1,.756,1,.888.888,0,0,1-.252.5.877.877,0,0,1-.625.257A.583.583,0,0,1-18522.041-9193.423Zm278.914-.937a.992.992,0,0,1-.527-1.3.994.994,0,0,1,1.3-.522.993.993,0,0,1,.525,1.3,1,1,0,0,1-.914.6A.949.949,0,0,1-18243.127-9194.36Zm251.953-9.866a.889.889,0,0,1-.756-1,.888.888,0,0,1,1-.76.887.887,0,0,1,.754,1,.9.9,0,0,1-.246.5.891.891,0,0,1-.631.261C-17991.094-9204.218-17991.131-9204.223-17991.174-9204.227Zm-560,0a.888.888,0,0,1-.756-1,.89.89,0,0,1,1-.76.884.884,0,0,1,.75,1,.915.915,0,0,1-.246.5.894.894,0,0,1-.631.261C-18551.09-9204.218-18551.131-9204.223-18551.174-9204.227Zm495.482-2.347a.992.992,0,0,1,.551-1.292,1,1,0,0,1,1.291.55.994.994,0,0,1-.219,1.073,1,1,0,0,1-.332.219,1.028,1.028,0,0,1-.373.07A.992.992,0,0,1-18055.691-9206.573Zm-404.877.55a.99.99,0,0,1-.33-.219,1,1,0,0,1-.221-1.073,1,1,0,0,1,1.293-.55.994.994,0,0,1,.551,1.292.989.989,0,0,1-.92.62A1.035,1.035,0,0,1-18460.568-9206.023Zm133.6-13.071a.889.889,0,0,1,.172-1.241.9.9,0,0,1,1.246.173.893.893,0,0,1-.178,1.246.9.9,0,0,1-.531.177A.89.89,0,0,1-18326.973-9219.095Zm95.084-1.749a.987.987,0,0,1-.527-1.3,1,1,0,0,1,1.307-.527.994.994,0,0,1,.527,1.3,1,1,0,0,1-.914.606A1,1,0,0,1-18231.889-9220.844Zm-262.287-1.32a.893.893,0,0,1-.756-1,.892.892,0,0,1,1-.756.888.888,0,0,1,.756,1,.867.867,0,0,1-.252.5.88.88,0,0,1-.625.261A1.109,1.109,0,0,1-18494.176-9222.164Zm330.664-1.2a.9.9,0,0,1-.756-1,.9.9,0,0,1,1-.756.885.885,0,0,1,.756,1,.869.869,0,0,1-.246.5.891.891,0,0,1-.631.262A1.077,1.077,0,0,1-18163.512-9223.363Zm-188.7-.252a.863.863,0,0,1-.248-.5.885.885,0,0,1,.752-1,.89.89,0,0,1,1,.756.885.885,0,0,1-.75,1,1.111,1.111,0,0,1-.127.01A.887.887,0,0,1-18352.211-9223.615Zm243.057-4.973a.884.884,0,0,1-.756-1,.888.888,0,0,1,1-.751.893.893,0,0,1,.756,1,.918.918,0,0,1-.252.5.891.891,0,0,1-.625.261A.617.617,0,0,1-18109.154-9228.588Zm-297.41-.252a.851.851,0,0,1-.248-.5.882.882,0,0,1,.752-1,.887.887,0,0,1,1,.751.888.888,0,0,1-.754,1,1.109,1.109,0,0,1-.127.009A.88.88,0,0,1-18406.564-9228.84Zm340.1-4.4a1,1,0,0,1,.551-1.3.994.994,0,0,1,1.293.551,1,1,0,0,1-.221,1.073.99.99,0,0,1-.33.219.947.947,0,0,1-.373.075A1,1,0,0,1-18066.469-9233.244Zm-383.322.546a.96.96,0,0,1-.332-.219,1,1,0,0,1-.219-1.073.994.994,0,0,1,1.293-.551,1,1,0,0,1,.549,1.3.987.987,0,0,1-.918.616A1.028,1.028,0,0,1-18449.791-9232.7Zm308.518-1.353a1,1,0,0,1,.551-1.292,1,1,0,0,1,1.3.55,1,1,0,0,1-.219,1.073,1,1,0,0,1-.332.219.947.947,0,0,1-.373.075A1,1,0,0,1-18141.273-9234.051Zm-233.717.55a1,1,0,0,1-.332-.219.988.988,0,0,1-.219-1.073.992.992,0,0,1,1.291-.55,1,1,0,0,1,.551,1.292.992.992,0,0,1-.918.62A1.028,1.028,0,0,1-18374.99-9233.5Zm161.02-6.4a.881.881,0,0,1,.174-1.24.88.88,0,0,1,1.24.172.888.888,0,0,1-.172,1.246.9.9,0,0,1-.531.177A.88.88,0,0,1-18213.971-9239.9Zm-261.721-6.671a.993.993,0,0,1,.549-1.292,1,1,0,0,1,1.293.546,1,1,0,0,1-.219,1.077.962.962,0,0,1-.332.22,1.026,1.026,0,0,1-.373.069A.991.991,0,0,1-18475.691-9246.572Zm209.8-2.458a.887.887,0,0,1,.178-1.241.884.884,0,0,1,1.24.173.884.884,0,0,1-.178,1.24.865.865,0,0,1-.531.183A.9.9,0,0,1-18265.893-9249.03Zm199.91-9.812a.884.884,0,0,1-.756-1,.884.884,0,0,1,1-.756.889.889,0,0,1,.756,1,.879.879,0,0,1-.252.5.881.881,0,0,1-.621.257A1.07,1.07,0,0,1-18065.982-9258.842Zm-383.754-.256a.885.885,0,0,1-.246-.5.885.885,0,0,1,.756-1,.884.884,0,0,1,1,.756.884.884,0,0,1-.756,1,1.037,1.037,0,0,1-.121,0A.894.894,0,0,1-18449.736-9259.1Zm220.3-1.32a.889.889,0,0,1,.178-1.241.888.888,0,0,1,1.242.178.89.89,0,0,1-.174,1.24.891.891,0,0,1-.537.178A.88.88,0,0,1-18229.436-9260.418Zm138.01-2a.885.885,0,0,1-.752-1,.884.884,0,0,1,1-.756.885.885,0,0,1,.756,1,.879.879,0,0,1-.252.5.878.878,0,0,1-.625.262A1.077,1.077,0,0,1-18091.426-9262.415Zm-332.865-.252a.9.9,0,0,1-.252-.5.887.887,0,0,1,.756-1,.891.891,0,0,1,1,.756.892.892,0,0,1-.756,1,1.077,1.077,0,0,1-.125.01A.885.885,0,0,1-18424.291-9262.667Zm400.779-.7a.9.9,0,0,1-.756-1,.9.9,0,0,1,1-.756.885.885,0,0,1,.754,1,.866.866,0,0,1-.246.5.887.887,0,0,1-.631.262A1.077,1.077,0,0,1-18023.512-9263.362Zm-94.744-1.838a1,1,0,0,1,0-1.4.986.986,0,0,1,1.4,0,.984.984,0,0,1,0,1.4.985.985,0,0,1-.7.289A1.012,1.012,0,0,1-18118.256-9265.2Zm-279.865,0a1,1,0,0,1,0-1.4.993.993,0,0,1,1.41,0,1,1,0,0,1,0,1.4,1.015,1.015,0,0,1-.705.289A1.008,1.008,0,0,1-18398.121-9265.2Zm428.967-3.387a.886.886,0,0,1-.756-1,.888.888,0,0,1,1-.751.88.88,0,0,1,.75,1,.846.846,0,0,1-.246.5.881.881,0,0,1-.625.262A1.111,1.111,0,0,1-17969.154-9268.587Zm-560,0a.886.886,0,0,1-.756-1,.888.888,0,0,1,1-.751.885.885,0,0,1,.754,1,.885.885,0,0,1-.25.5.882.882,0,0,1-.627.262A1.077,1.077,0,0,1-18529.154-9268.587Zm42.686-4.66a.994.994,0,0,1,.551-1.292.994.994,0,0,1,1.293.55,1,1,0,0,1-.221,1.073.943.943,0,0,1-.33.215.963.963,0,0,1-.373.074A.989.989,0,0,1-18486.469-9273.247Zm318.725.111a.887.887,0,0,1-.754-1,.885.885,0,0,1,1-.751.882.882,0,0,1,.756,1,.873.873,0,0,1-.252.5.884.884,0,0,1-.625.262A1.111,1.111,0,0,1-18167.744-9273.136Zm-180.23-.252a.873.873,0,0,1-.252-.5.888.888,0,0,1,.756-1,.9.9,0,0,1,1,.756.887.887,0,0,1-.756,1,1.081,1.081,0,0,1-.121.01A.883.883,0,0,1-18347.975-9273.388Zm346.7-.662a1,1,0,0,1,.551-1.292,1,1,0,0,1,1.3.551,1,1,0,0,1-.219,1.072,1,1,0,0,1-.332.22,1.026,1.026,0,0,1-.373.069A1,1,0,0,1-18001.273-9274.05Zm-282.939-.252a1,1,0,0,1-.527-1.3,1,1,0,0,1,1.307-.522,1,1,0,0,1,.527,1.3.993.993,0,0,1-.914.6A.976.976,0,0,1-18284.213-9274.3Zm64.271-7.054a1,1,0,0,1,.994-1,1,1,0,0,1,.994,1,.992.992,0,0,1-.994.994A.992.992,0,0,1-18219.941-9281.355Zm-26.492,0a.994.994,0,0,1,.988-1,1,1,0,0,1,1,1,1,1,0,0,1-1,.994A.991.991,0,0,1-18246.434-9281.355Zm-61.59-2.416a.9.9,0,0,1,.178-1.246.888.888,0,0,1,1.24.178.881.881,0,0,1-.172,1.24.869.869,0,0,1-.531.183A.907.907,0,0,1-18308.023-9283.771Zm208.5-.164a.994.994,0,0,1,0-1.4.991.991,0,0,1,1.41,0,.988.988,0,0,1-.006,1.4.969.969,0,0,1-.7.29A1,1,0,0,1-18099.521-9283.936Zm-317.334,0a1,1,0,0,1,0-1.4.989.989,0,0,1,1.408,0,.994.994,0,0,1,0,1.4.981.981,0,0,1-.7.29A.992.992,0,0,1-18416.855-9283.936Zm289.236-9.362a1,1,0,0,1,0-1.4.99.99,0,0,1,1.4,0,.991.991,0,0,1,0,1.4,1,1,0,0,1-.7.289A1.008,1.008,0,0,1-18127.619-9293.3Zm-261.135,0a1,1,0,0,1,0-1.4.99.99,0,0,1,1.4,0,.988.988,0,0,1,0,1.4,1,1,0,0,1-.7.289A1.008,1.008,0,0,1-18388.754-9293.3Zm-97.23-5.547a.881.881,0,0,1-.754-1,.884.884,0,0,1,1-.756.885.885,0,0,1,.752,1,.887.887,0,0,1-.248.5.889.889,0,0,1-.629.261A.58.58,0,0,1-18485.984-9298.845Zm-25.443-3.573a.881.881,0,0,1-.75-1,.882.882,0,0,1,1-.756.885.885,0,0,1,.756,1,.9.9,0,0,1-.252.5.883.883,0,0,1-.625.257A.617.617,0,0,1-18511.428-9302.418Zm559.25-1a.925.925,0,0,1,.061-.223v.693A.886.886,0,0,1-17952.178-9303.417Zm-26.078-1.781a1,1,0,0,1,0-1.409.989.989,0,0,1,1.4,0,.99.99,0,0,1,.006,1.4,1.019,1.019,0,0,1-.705.289A1.016,1.016,0,0,1-17978.256-9305.2Zm-560,0a1,1,0,0,1,0-1.409.989.989,0,0,1,1.4,0,.988.988,0,0,1,0,1.4.989.989,0,0,1-.7.289A1.016,1.016,0,0,1-18538.256-9305.2Zm305.066-2.646a.992.992,0,0,1,.992-.994.994.994,0,0,1,.994.994.993.993,0,0,1-.994.989A.99.99,0,0,1-18233.189-9307.844Zm205.447-5.29a.888.888,0,0,1-.756-1,.888.888,0,0,1,1-.756.887.887,0,0,1,.756,1,.879.879,0,0,1-.252.5.884.884,0,0,1-.625.261A1.075,1.075,0,0,1-18027.742-9313.134Zm-248.078-8.827a.885.885,0,0,1,.174-1.24.884.884,0,0,1,1.24.173.88.88,0,0,1-.172,1.24.881.881,0,0,1-.533.183A.88.88,0,0,1-18275.82-9321.961Zm316.3-1.973a1,1,0,0,1,0-1.409,1,1,0,0,1,1.408,0,1,1,0,0,1,0,1.409,1.012,1.012,0,0,1-.705.289A1,1,0,0,1-17959.52-9323.934Zm-560,0a1,1,0,0,1,0-1.409,1,1,0,0,1,1.41,0,1,1,0,0,1-.006,1.409.991.991,0,0,1-.7.289A1.015,1.015,0,0,1-18519.521-9323.934Zm531.9-9.363a1,1,0,0,1,0-1.4.986.986,0,0,1,1.4,0,.991.991,0,0,1,0,1.4,1,1,0,0,1-.7.289A1,1,0,0,1-17987.619-9333.3Zm-560,0a1,1,0,0,1,0-1.4.986.986,0,0,1,1.4,0,1,1,0,0,1,0,1.4.991.991,0,0,1-.7.289A1,1,0,0,1-18547.619-9333.3Z" transform="translate(18552.076 9339.965)" fill="#fff"/><path d="M43.57,42.272l-7.323-7.49C36.249,10.676,22.031,0,22.031,0S7.673,10.679,7.671,34.785L.347,42.276A1.269,1.269,0,0,0,.012,43.36L2.817,60.416a1.168,1.168,0,0,0,1.8.824l10.238-6.927s3.158,3.051,7.186,3.051a11.016,11.016,0,0,0,7.034-3.052l10.237,6.926a1.173,1.173,0,0,0,1.8-.824L43.936,43.34A1.356,1.356,0,0,0,43.57,42.272ZM22.028,26.85a4.886,4.886,0,1,1,4.684-4.883A4.778,4.778,0,0,1,22.028,26.85Z" transform="translate(281.652 32.587) rotate(45)" fill="#f5f5f5" opacity="0.178"/><path d="M-15456.867-7297.5a36.353,36.353,0,0,1-12.135-27.187,36.156,36.156,0,0,1,36-36.312,36.158,36.158,0,0,1,36,36.313,36.36,36.36,0,0,1-12.135,27.188Z" transform="translate(7897.457 -15346.975) rotate(-90)" fill="#967059"/><path d="M-15429.674-7284a29.231,29.231,0,0,1-19.324-27.725c0-16.169,12.76-29.275,28.5-29.275s28.5,13.106,28.5,29.275a29.232,29.232,0,0,1-19.325,27.725Z" transform="translate(7883.957 -15334.578) rotate(-90)" fill="#86624f"/><path d="M20.99,17.85h0a24.3,24.3,0,0,1-9.541-3.193A24.69,24.69,0,0,1,4.368,8.4,27.492,27.492,0,0,1,0,0,22.438,22.438,0,0,0,2.676,6.974a22.354,22.354,0,0,0,4.69,5.6,21.882,21.882,0,0,0,6.256,3.777A21.6,21.6,0,0,0,20.99,17.85Z" transform="translate(582.086 109.093) rotate(-97)" fill="#fff" opacity="0.205"/><path d="M-15563.068-7511.327c3.137,1.206,5.131,3.611,4.454,5.376s-3.771,2.22-6.911,1.016-5.131-3.611-4.455-5.378c.422-1.1,1.778-1.687,3.5-1.687A9.686,9.686,0,0,1-15563.068-7511.327Zm-3.13,14.987a3.043,3.043,0,0,1-3.044,3.042,3.044,3.044,0,0,1-3.043-3.042,3.042,3.042,0,0,1,3.043-3.044A3.042,3.042,0,0,1-15566.2-7496.34Z" transform="translate(8084.141 -15490.314) rotate(-90)" fill="#fff" opacity="0.044"/><path d="M-15447.681-7250.4a63.08,63.08,0,0,1-21.322-47.352,63.251,63.251,0,0,1,63.257-63.245,63.25,63.25,0,0,1,63.255,63.245,63.076,63.076,0,0,1-21.322,47.352Z" transform="translate(15720.328 7450.402)" fill="#596e96"/><path d="M-15415.09-7243.647A50.021,50.021,0,0,1-15449-7291a50,50,0,0,1,50.009-50,50,50,0,0,1,50.009,50,50.022,50.022,0,0,1-33.909,47.353Z" transform="translate(15713.57 7443.648)" fill="#657ba5"/><path d="M0,42.96H0a58.489,58.489,0,0,0,22.964-7.684A59.426,59.426,0,0,0,40.006,20.208,66.166,66.166,0,0,0,50.519,0a54,54,0,0,1-6.44,16.784A53.8,53.8,0,0,1,32.79,30.269,52.668,52.668,0,0,1,17.732,39.36,52,52,0,0,1,0,42.96Z" transform="translate(302.775 144.824) rotate(7)" fill="#fff" opacity="0.205"/><path d="M-15564.3-7480.608c-5.463-2.1-8.937-6.287-7.757-9.359s6.566-3.865,12.031-1.769,8.938,6.288,7.76,9.363c-.735,1.91-3.1,2.939-6.091,2.939A16.832,16.832,0,0,1-15564.3-7480.608Zm5.449-26.093a5.3,5.3,0,0,1,5.3-5.3,5.3,5.3,0,0,1,5.3,5.3,5.3,5.3,0,0,1-5.3,5.3A5.3,5.3,0,0,1-15558.85-7506.7Z" transform="translate(15858.527 7624.582)" fill="#fff" opacity="0.044"/><path d="M10.814,24.442a1.2,1.2,0,0,1-2.211.653c-6.2-9.064,2.612-9.473,2.613-13.88a3.2,3.2,0,0,0-3.247-3.2,3.236,3.236,0,0,0-3.162,3.252v4.282a1.2,1.2,0,0,1-2.075.826A10.01,10.01,0,0,1,0,9.614a9.614,9.614,0,0,1,19.228,0C19.227,18.139,10.814,19.277,10.814,24.442Z" transform="translate(248.396 92.734) rotate(45)" fill="#89a9e7"/><path d="M10.814,24.442a1.2,1.2,0,0,1-2.211.653c-6.2-9.064,2.612-9.473,2.613-13.88a3.2,3.2,0,0,0-3.247-3.2,3.236,3.236,0,0,0-3.162,3.252v4.282a1.2,1.2,0,0,1-2.075.826A10.01,10.01,0,0,1,0,9.614a9.614,9.614,0,0,1,19.228,0C19.227,18.139,10.814,19.277,10.814,24.442Z" transform="translate(240.086 79.895) rotate(45)" fill="#89a9e6"/><path d="M8.41,24.442a1.2,1.2,0,0,0,2.211.653c6.2-9.065-2.61-9.473-2.61-13.879a3.2,3.2,0,1,1,6.409.047v4.282a1.2,1.2,0,0,0,2.074.826,10.014,10.014,0,0,0,2.733-6.758A9.614,9.614,0,0,0,0,9.614C0,18.141,8.411,19.277,8.41,24.442Z" transform="translate(255.949 77.628) rotate(45)" fill="#b2c7f0"/><path d="M37.4,36.286l-6.286-6.43C31.116,9.165,18.911,0,18.911,0S6.587,9.167,6.585,29.859L.3,36.29a1.089,1.089,0,0,0-.288.93L2.418,51.861a1,1,0,0,0,1.545.707l8.788-5.946A10,10,0,0,0,18.92,49.24a9.456,9.456,0,0,0,6.038-2.62l8.787,5.945a1.007,1.007,0,0,0,1.545-.707L37.714,37.2A1.164,1.164,0,0,0,37.4,36.286ZM18.909,23.048a4.194,4.194,0,1,1,4.021-4.191A4.1,4.1,0,0,1,18.909,23.048Z" transform="translate(284.088 34.551) rotate(45)" fill="#f5f5f5"/><path d="M27,0A27,27,0,1,1,0,27,27,27,0,0,1,27,0Z" transform="translate(51.957 76)" fill="#4f8b7f"/><path d="M20,0A20,20,0,1,1,0,20,20,20,0,0,1,20,0Z" transform="translate(58.957 83)" fill="#7ba099"/></g></svg>