<svg xmlns="http://www.w3.org/2000/svg" xmlns:xlink="http://www.w3.org/1999/xlink" width="343.88" height="343.964" viewBox="0 0 343.88 343.964">
  <defs>
    <filter id="Прямоугольник_164" x="0" y="0" width="343.88" height="343.964" filterUnits="userSpaceOnUse">
      <feOffset dy="2" input="SourceAlpha"/>
      <feGaussianBlur stdDeviation="24" result="blur"/>
      <feFlood flood-opacity="0.078"/>
      <feComposite operator="in" in2="blur"/>
      <feComposite in="SourceGraphic"/>
    </filter>
  </defs>
  <g id="image-2" transform="translate(71.88 70)">
    <g transform="matrix(1, 0, 0, 1, -71.88, -70)" filter="url(#Прямоугольник_164)">
      <rect id="Прямоугольник_164-2" data-name="Прямоугольник 164" width="199.88" height="199.964" transform="translate(72 70)" fill="#08142c"/>
    </g>
    <path id="Контур_78" data-name="Контур 78" d="M-17456.969-7419.844a.879.879,0,0,1,.641-1.072.9.9,0,0,1,1.078.642.9.9,0,0,1-.641,1.08,1.055,1.055,0,0,1-.219.031A.89.89,0,0,1-17456.969-7419.844Zm-105.719-.062a.891.891,0,0,1,.641-1.08.9.9,0,0,1,1.078.649.888.888,0,0,1-.656,1.08.725.725,0,0,1-.2.023A.906.906,0,0,1-17562.687-7419.906Zm123.141-14.2a.983.983,0,0,1-.531-1.3.992.992,0,0,1,1.3-.532.988.988,0,0,1,.516,1.3.971.971,0,0,1-.906.61A.873.873,0,0,1-17439.547-7434.1Zm-49.266-60.511a.9.9,0,0,1,.656-1.072.868.868,0,0,1,1.063.642.875.875,0,0,1-.641,1.08.912.912,0,0,1-.219.024A.92.92,0,0,1-17488.812-7494.615Z" transform="translate(17596.76 7524.502)" fill="#fff"/>
    <path id="Контур_77" data-name="Контур 77" d="M-17562.109-7431.037a.985.985,0,0,1,.031-1.4.978.978,0,0,1,1.391.023.994.994,0,0,1-.016,1.409.988.988,0,0,1-.687.274A.97.97,0,0,1-17562.109-7431.037Zm66.281-20.053a1.013,1.013,0,0,1,.031-1.4,1,1,0,0,1,1.406.023.994.994,0,0,1-.031,1.409.987.987,0,0,1-.672.274A1.034,1.034,0,0,1-17495.828-7451.09Zm17.7-21.2a1.007,1.007,0,0,1,.016-1.409,1,1,0,0,1,1.406.023.993.993,0,0,1-.016,1.409,1.014,1.014,0,0,1-.687.274A1,1,0,0,1-17478.125-7472.286Zm-60.547-21.407a.994.994,0,0,1,.016-1.409,1,1,0,0,1,1.406.023,1.008,1.008,0,0,1-.016,1.409,1.025,1.025,0,0,1-.7.274A.989.989,0,0,1-17538.672-7493.692Z" transform="translate(17601.645 7531.069)" fill="#fff" opacity="0.638"/>
    <path id="Контур_67" data-name="Контур 67" d="M-17518.859-7236.728c-1.391-.18-2.781-.36-4.141-.548v-80.837c61.875-3.045,135.922-3.178,199.625-.431v81.816Z" transform="translate(17523 7436.727)" fill="#596e96"/>
    <path id="Контур_68" data-name="Контур 68" d="M-17523-7233.855v-73.5c31.8-2.974,67.594-4.642,105.422-4.642,33.469,0,65.3,1.307,94.2,3.663v74.482Z" transform="translate(17523 7433.853)" fill="#657ba5"/>
    <path id="Контур_76" data-name="Контур 76" d="M-17503.7-7250.4v-39.072h-5.3v-21.861h106.422v21.861h-5.3v39.072Zm70.047-81.464a11.916,11.916,0,0,1,11.906-11.913,11.906,11.906,0,0,1,11.906,11.913,11.908,11.908,0,0,1-11.906,11.921A11.918,11.918,0,0,1-17433.656-7331.868Zm-42.969-8.609a20.521,20.521,0,0,1,20.516-20.522,20.5,20.5,0,0,1,20.484,20.522,20.506,20.506,0,0,1-20.484,20.53A20.523,20.523,0,0,1-17476.625-7340.478Zm-24.453,7.294a11.924,11.924,0,0,1,11.906-11.928,11.9,11.9,0,0,1,11.891,11.928,11.9,11.9,0,0,1-11.891,11.913A11.921,11.921,0,0,1-17501.078-7333.183Z" transform="translate(17544.703 7450.404)" fill="#89a9e7"/>
    <path id="Контур_75" data-name="Контур 75" d="M0,12.473H0a15.867,15.867,0,0,0,6.4-2.232,16.774,16.774,0,0,0,4.752-4.374A19.467,19.467,0,0,0,14.086,0a16.091,16.091,0,0,1-1.8,4.873A15.432,15.432,0,0,1,9.142,8.788a14.582,14.582,0,0,1-4.2,2.639A13.981,13.981,0,0,1,0,12.473Z" transform="translate(90.651 107.724) rotate(-90)" fill="#fff" opacity="0.314"/>
    <path id="Контур_74" data-name="Контур 74" d="M0,5.863H0A6.585,6.585,0,0,0,2.79,4.814,7.534,7.534,0,0,0,4.861,2.758,9.438,9.438,0,0,0,6.139,0a7.953,7.953,0,0,1-.783,2.29,7.165,7.165,0,0,1-1.372,1.84A6.293,6.293,0,0,1,2.155,5.371,5.714,5.714,0,0,1,0,5.863Z" transform="translate(122.38 116.333) rotate(-90)" fill="#fff" opacity="0.409"/>
    <path id="Контур_73" data-name="Контур 73" d="M-15570.016-7501.676c-1.547-.689-2.531-2.066-2.187-3.076.328-1.009,1.859-1.268,3.406-.579,1.531.689,2.531,2.066,2.188,3.076a1.66,1.66,0,0,1-1.719.971A4.305,4.305,0,0,1-15570.016-7501.676Zm1.547-8.586a1.635,1.635,0,0,1,1.5-1.737,1.635,1.635,0,0,1,1.5,1.737,1.638,1.638,0,0,1-1.5,1.746A1.638,1.638,0,0,1-15568.469-7510.263Z" transform="translate(15652.066 7621.27)" fill="#fff" opacity="0.256"/>
    <path id="Контур_72" data-name="Контур 72" d="M-17461.875-7372.3h-26.437v-22.519h5.281V-7431.9h-5.281v-1.323h31.734v21.853h-5.3v39.072Zm-69.391,0h-26.453v-39.072H-17563v-21.853h31.734v1.323h-3.984v37.084h3.984v22.519Zm55.5-69.535a12.017,12.017,0,0,1-4.625-.932,11.95,11.95,0,0,1-3.766-2.559,12.112,12.112,0,0,1-2.562-3.789,11.787,11.787,0,0,1-.937-4.642,11.786,11.786,0,0,1,.938-4.641,12.112,12.112,0,0,1,2.563-3.789,12.058,12.058,0,0,1,3.766-2.551,11.742,11.742,0,0,1,4.625-.939,11.706,11.706,0,0,1,4.641.939,11.82,11.82,0,0,1,3.781,2.551,12.112,12.112,0,0,1,2.563,3.789,12.055,12.055,0,0,1,.922,4.641,12.055,12.055,0,0,1-.922,4.642,12.112,12.112,0,0,1-2.562,3.789,11.843,11.843,0,0,1-3.781,2.559A11.978,11.978,0,0,1-17475.766-7441.836Zm-67.422-1.323a11.742,11.742,0,0,1-4.625-.939,11.82,11.82,0,0,1-3.781-2.551,12.342,12.342,0,0,1-2.547-3.789,11.787,11.787,0,0,1-.937-4.642,11.758,11.758,0,0,1,.938-4.641,12.337,12.337,0,0,1,2.547-3.789,11.843,11.843,0,0,1,3.781-2.559,11.874,11.874,0,0,1,4.625-.932,11.893,11.893,0,0,1,4.641.932,11.843,11.843,0,0,1,3.781,2.559,12.112,12.112,0,0,1,2.563,3.789,12.026,12.026,0,0,1,.922,4.641,12.055,12.055,0,0,1-.922,4.642,12.118,12.118,0,0,1-2.562,3.789,11.948,11.948,0,0,1-3.781,2.551A11.762,11.762,0,0,1-17543.187-7443.159Z" transform="translate(17598.703 7572.298)" fill="#b2c7f0"/>
    <path id="Контур_70" data-name="Контур 70" d="M-17512.359-7421.479h0v-.008a17.4,17.4,0,0,0-3.922-1.5,17.947,17.947,0,0,0-4.344-.532,17.409,17.409,0,0,0-7.422,1.651v-47.682l-22.5,23.325a4.676,4.676,0,0,1-3.391,1.448,4.683,4.683,0,0,1-3.344-1.37l-4.344-4.3a4.6,4.6,0,0,1-1.375-3.288,4.524,4.524,0,0,1,1.375-3.271l38.094-37.632a4.678,4.678,0,0,1,3.344-1.362,4.6,4.6,0,0,1,3.3,1.362l38.109,37.609a4.637,4.637,0,0,1,1.375,3.287,4.588,4.588,0,0,1-1.375,3.272l-4.359,4.3a4.755,4.755,0,0,1-3.328,1.362,4.643,4.643,0,0,1-3.391-1.44l-22.5-23.3Z" transform="translate(17642.98 7522.49)" fill="#99a2ad" opacity="0.15"/>
    <path id="Контур_71" data-name="Контур 71" d="M-17520.172-7415.922a21.163,21.163,0,0,0-13.266-10.355V-7473.3l-19.047,20.006a3.863,3.863,0,0,1-2.859,1.245,3.925,3.925,0,0,1-2.812-1.174l-3.672-3.687a3.938,3.938,0,0,1-1.172-2.825,3.886,3.886,0,0,1,1.172-2.8l32.2-32.287a3.951,3.951,0,0,1,2.813-1.174,3.9,3.9,0,0,1,2.813,1.174l32.2,32.271a3.909,3.909,0,0,1,1.172,2.818,3.89,3.89,0,0,1-1.172,2.81l-3.672,3.687a3.969,3.969,0,0,1-2.812,1.159,3.935,3.935,0,0,1-2.875-1.221l-19.016-20v57.38Z" transform="translate(17660.832 7522.49)" fill="#5d6878"/>
    <ellipse id="Эллипс_82" data-name="Эллипс 82" cx="9.625" cy="2.015" rx="9.625" ry="2.015" transform="translate(169.448 135.1)" opacity="0.192"/>
    <g id="Сгруппировать_286" data-name="Сгруппировать 286" transform="translate(166.767 105.931)">
      <g id="Многоугольник_8" data-name="Многоугольник 8" transform="translate(0 15.928)" fill="#6ca565">
        <path d="M 15.67619800567627 14.85229587554932 L 8.171477317810059 14.85229587554932 C 6.804197788238525 14.85229587554932 5.629037857055664 14.11913585662842 5.027897834777832 12.89109516143799 C 4.426767826080322 11.66306591033936 4.568587779998779 10.2852258682251 5.407277584075928 9.205395698547363 L 9.159637451171875 4.374115467071533 C 9.827507972717285 3.514205455780029 10.83502769470215 3.021025419235229 11.92383766174316 3.021025419235229 C 13.01264762878418 3.021025419235229 14.02016735076904 3.514205455780029 14.68803787231445 4.374115467071533 L 18.44039726257324 9.205385208129883 C 19.27908706665039 10.2852258682251 19.42090797424316 11.66306591033936 18.81977844238281 12.89110565185547 C 18.21863746643066 14.11913585662842 17.0434684753418 14.85229587554932 15.67619800567627 14.85229587554932 Z" stroke="none"/>
        <path d="M 11.92383766174316 3.521014213562012 C 10.99056720733643 3.521014213562012 10.12698745727539 3.943744659423828 9.55451774597168 4.680814743041992 L 5.802158355712891 9.512094497680664 C 5.083288192749023 10.43766403198242 4.961727142333984 11.61866474151611 5.476978302001953 12.6712646484375 C 5.992237091064453 13.72387504577637 6.999526977539062 14.352294921875 8.171477317810059 14.352294921875 L 15.67619800567627 14.352294921875 C 16.84814834594727 14.352294921875 17.85543823242188 13.72387504577637 18.37068748474121 12.6712646484375 C 18.88594818115234 11.61866474151611 18.7643871307373 10.43766403198242 18.04551696777344 9.512094497680664 L 14.29315757751465 4.680814743041992 C 13.72068786621094 3.943744659423828 12.85709762573242 3.521014213562012 11.92383766174316 3.521014213562012 M 11.92383766174316 2.52101993560791 C 13.10303020477295 2.52101993560791 14.28222274780273 3.036484718322754 15.08292770385742 4.067414283752441 L 18.83528709411621 8.89869499206543 C 20.87626838684082 11.52651405334473 19.00351715087891 15.352294921875 15.67619800567627 15.352294921875 L 8.171477317810059 15.352294921875 C 4.844146728515625 15.352294921875 2.971406936645508 11.52651405334473 5.012388229370117 8.89869499206543 L 8.764747619628906 4.067414283752441 C 9.565452575683594 3.036484718322754 10.74464511871338 2.52101993560791 11.92383766174316 2.52101993560791 Z" stroke="none" fill="#657ba5"/>
      </g>
      <g id="Многоугольник_9" data-name="Многоугольник 9" transform="translate(0 8.732)" fill="#6ca565">
        <path d="M 15.54728698730469 14.46848773956299 L 8.300386428833008 14.46848773956299 C 6.923736572265625 14.46848773956299 5.745046615600586 13.72808742523193 5.147406578063965 12.48792743682861 C 4.549766540527344 11.24776744842529 4.705056667327881 9.864517211914062 5.562806606292725 8.787736892700195 L 9.186256408691406 4.239067077636719 C 9.854126930236816 3.400667190551758 10.85193634033203 2.919817209243774 11.92383670806885 2.919817209243774 C 12.99573707580566 2.919817209243774 13.99354648590088 3.400667190551758 14.66141700744629 4.239077091217041 L 18.28486633300781 8.787736892700195 C 19.14261627197266 9.864517211914062 19.29791641235352 11.24775695800781 18.70027732849121 12.48792743682861 C 18.10263633728027 13.72808742523193 16.92394638061523 14.46848773956299 15.54728698730469 14.46848773956299 Z" stroke="none"/>
        <path d="M 11.92383670806885 3.419816970825195 C 11.00505638122559 3.419816970825195 10.14979648590088 3.831976890563965 9.577346801757812 4.550607681274414 L 5.953897476196289 9.099277496337891 C 5.218677520751953 10.02222728729248 5.085567474365234 11.20786666870117 5.59782600402832 12.27086734771729 C 6.110086441040039 13.33385753631592 7.120397567749023 13.96848678588867 8.300386428833008 13.96848678588867 L 15.54728698730469 13.96848678588867 C 16.72727584838867 13.96848678588867 17.73758697509766 13.33385753631592 18.24984741210938 12.27086734771729 C 18.76210784912109 11.20786666870117 18.62899780273438 10.02222728729248 17.89377593994141 9.099277496337891 L 14.27032661437988 4.550607681274414 C 13.69786643981934 3.831976890563965 12.84260654449463 3.419816970825195 11.92383670806885 3.419816970825195 M 11.92383670806885 2.419819831848145 C 13.08781909942627 2.419819831848145 14.25180149078369 2.922391891479492 15.05249691009521 3.927536964416504 L 18.67594718933105 8.476207733154297 C 20.76333618164062 11.09658718109131 18.89744567871094 14.96848678588867 15.54728698730469 14.96848678588867 L 8.300386428833008 14.96848678588867 C 4.950225830078125 14.96848678588867 3.08433723449707 11.09658718109131 5.171726226806641 8.476207733154297 L 8.79517650604248 3.927536964416504 C 9.595871925354004 2.922391891479492 10.75985431671143 2.419819831848145 11.92383670806885 2.419819831848145 Z" stroke="none" fill="#657ba5"/>
      </g>
      <g id="Многоугольник_10" data-name="Многоугольник 10" transform="translate(4.022 0)" fill="#6ca565">
        <path d="M 9.207279205322266 14.66038990020752 L 6.595398902893066 14.66038990020752 C 5.361409187316895 14.66038990020752 4.242669105529785 14.03047943115234 3.602769136428833 12.97537994384766 C 2.962869167327881 11.92026996612549 2.921319007873535 10.63704967498779 3.491639137268066 9.542769432067871 L 4.797579288482666 7.037039756774902 C 5.41188907623291 5.858359813690186 6.572168827056885 5.154669761657715 7.901339054107666 5.154669761657715 C 9.230499267578125 5.154669761657715 10.39077949523926 5.858359813690186 11.00509929656982 7.037039756774902 L 12.31103897094727 9.542769432067871 C 12.8813591003418 10.63704967498779 12.83980941772461 11.92026996612549 12.19990921020508 12.97537994384766 C 11.56000900268555 14.03047943115234 10.44126892089844 14.66038990020752 9.207279205322266 14.66038990020752 Z" stroke="none"/>
        <path d="M 7.901339054107666 5.654660224914551 C 6.762048721313477 5.654660224914551 5.767529487609863 6.257820129394531 5.240979194641113 7.268129348754883 L 3.935039520263672 9.773859977722168 C 3.446188926696777 10.71181964874268 3.481799125671387 11.81171989440918 4.030288696289062 12.71608924865723 C 4.578779220581055 13.62047004699707 5.537698745727539 14.16038990020752 6.595398902893066 14.16038990020752 L 9.207279205322266 14.16038990020752 C 10.26497840881348 14.16038990020752 11.22389888763428 13.62045955657959 11.77238845825195 12.71608924865723 C 12.32087898254395 11.81171035766602 12.35648918151855 10.71181011199951 11.86763954162598 9.773859977722168 L 10.56169891357422 7.268129348754883 C 10.03514862060547 6.257829666137695 9.040618896484375 5.654660224914551 7.901339054107666 5.654660224914551 M 7.9013352394104 4.654664993286133 C 9.301172256469727 4.654664993286133 10.70100975036621 5.371759414672852 11.44848918914795 6.805950164794922 L 12.75442886352539 9.311679840087891 C 14.14232921600342 11.97467041015625 12.21023941040039 15.16038990020752 9.207279205322266 15.16038990020752 L 6.595398902893066 15.16038990020752 C 3.592429161071777 15.16038990020752 1.660348892211914 11.97467041015625 3.048249244689941 9.311679840087891 L 4.354188919067383 6.805950164794922 C 5.101663589477539 5.371759414672852 6.501499176025391 4.654664993286133 7.9013352394104 4.654664993286133 Z" stroke="none" fill="#657ba5"/>
      </g>
    </g>
    <ellipse id="Эллипс_83" data-name="Эллипс 83" cx="7.614" cy="0.672" rx="7.614" ry="0.672" transform="translate(145.601 132.414)" opacity="0.042"/>
    <g id="Сгруппировать_287" data-name="Сгруппировать 287" transform="translate(144.834 111.208)">
      <g id="Многоугольник_8-2" data-name="Многоугольник 8" transform="translate(0 11.226)" fill="#689084">
        <path d="M 12.01292037963867 10.24660778045654 L 3.981300830841064 10.24660778045654 C 3.402030944824219 10.24660778045654 2.900960922241211 9.937578201293945 2.640930891036987 9.419948577880859 C 2.380900859832764 8.902318000793457 2.432110786437988 8.315837860107422 2.777930736541748 7.851118087768555 L 6.793740749359131 2.454638242721558 C 7.079630851745605 2.070458173751831 7.518240928649902 1.850118160247803 7.997110843658447 1.850118160247803 C 8.475980758666992 1.850118160247803 8.914590835571289 2.070458173751831 9.200480461120605 2.454638242721558 L 13.21629047393799 7.851118087768555 C 13.56211090087891 8.315828323364258 13.61333084106445 8.902308464050293 13.35330104827881 9.419938087463379 C 13.09327125549316 9.937578201293945 12.59219074249268 10.24660778045654 12.01292037963867 10.24660778045654 Z" stroke="none"/>
        <path d="M 7.997110843658447 2.350118637084961 C 7.677861213684082 2.350118637084961 7.38546085357666 2.497008323669434 7.194870948791504 2.753128051757812 L 3.179050445556641 8.149618148803711 C 2.948511123657227 8.459427833557129 2.914361000061035 8.850408554077148 3.087710380554199 9.195498466491699 C 3.26107120513916 9.54058837890625 3.595120429992676 9.746608734130859 3.981301307678223 9.746608734130859 L 12.01292037963867 9.746608734130859 C 12.39910125732422 9.746608734130859 12.73315048217773 9.54058837890625 12.90650081634521 9.195498466491699 C 13.0798511505127 8.850408554077148 13.04571056365967 8.459427833557129 12.81516075134277 8.149608612060547 L 8.799350738525391 2.753128051757812 C 8.608760833740234 2.497008323669434 8.316350936889648 2.350118637084961 7.997110843658447 2.350118637084961 M 7.997110843658447 1.350120544433594 C 8.599423408508301 1.350120544433594 9.201736450195312 1.618793487548828 9.601600646972656 2.15613842010498 L 13.61741065979004 7.552618026733398 C 14.59924125671387 8.872017860412598 13.65755081176758 10.74660778045654 12.01292037963867 10.74660778045654 L 3.981301307678223 10.74660778045654 C 2.336670875549316 10.74660778045654 1.394970893859863 8.872017860412598 2.376811027526855 7.552618026733398 L 6.392621040344238 2.15613842010498 C 6.792486190795898 1.618793487548828 7.394798278808594 1.350120544433594 7.997110843658447 1.350120544433594 Z" stroke="none" fill="#657ba5"/>
      </g>
      <g id="Многоугольник_9-2" data-name="Многоугольник 9" transform="translate(0 5.853)" fill="#689084">
        <path d="M 12.03393077850342 10.34255504608154 L 3.960290908813477 10.34255504608154 C 3.382400751113892 10.34255504608154 2.881860733032227 10.03458499908447 2.621350765228271 9.518745422363281 C 2.360840797424316 9.002895355224609 2.410100936889648 8.417275428771973 2.753130912780762 7.952195167541504 L 6.789950847625732 2.479035139083862 C 7.075700759887695 2.091605186462402 7.515700817108154 1.869405269622803 7.997110843658447 1.869405269622803 C 8.478520393371582 1.869405269622803 8.918520927429199 2.091605186462402 9.20427131652832 2.479035139083862 L 13.24109077453613 7.952195167541504 C 13.58412075042725 8.417275428771973 13.63338088989258 9.002895355224609 13.37287044525146 9.518745422363281 C 13.11236095428467 10.03458499908447 12.61182117462158 10.34255504608154 12.03393077850342 10.34255504608154 Z" stroke="none"/>
        <path d="M 7.997110843658447 2.369404792785645 C 7.67616081237793 2.369404792785645 7.382841110229492 2.517535209655762 7.192340850830078 2.775825500488281 L 3.155520439147949 8.248985290527344 C 2.926831245422363 8.559035301208496 2.893990516662598 8.949445724487305 3.067661285400391 9.29334545135498 C 3.241331100463867 9.637245178222656 3.575031280517578 9.842555046081543 3.960290908813477 9.842555046081543 L 12.03393077850342 9.842555046081543 C 12.41919136047363 9.842555046081543 12.75289058685303 9.637245178222656 12.92656135559082 9.29334545135498 C 13.1002311706543 8.949445724487305 13.06739044189453 8.559035301208496 12.83870124816895 8.248985290527344 L 8.801880836486816 2.775825500488281 C 8.611381530761719 2.517535209655762 8.318050384521484 2.369404792785645 7.997110843658447 2.369404792785645 M 7.997110843658447 1.369402885437012 C 8.602043151855469 1.369402885437012 9.206975936889648 1.640350341796875 9.606660842895508 2.182245254516602 L 13.64348030090332 7.655405044555664 C 14.61738109588623 8.975825309753418 13.67465114593506 10.84255504608154 12.03393077850342 10.84255504608154 L 3.960290908813477 10.84255504608154 C 2.319570541381836 10.84255504608154 1.376840591430664 8.975825309753418 2.350740432739258 7.655405044555664 L 6.387560844421387 2.182245254516602 C 6.787245750427246 1.640350341796875 7.392178535461426 1.369402885437012 7.997110843658447 1.369402885437012 Z" stroke="none" fill="#657ba5"/>
      </g>
      <g id="Многоугольник_10-2" data-name="Многоугольник 10" transform="translate(2.682 0)" fill="#689084">
        <path d="M 7.397506237030029 10.15065670013428 L 3.233386278152466 10.15065670013428 C 2.709946393966675 10.15065670013428 2.233056306838989 9.884886741638184 1.957706332206726 9.439726829528809 C 1.682346343994141 8.994566917419434 1.657506346702576 8.449187278747559 1.891246318817139 7.980827331542969 L 3.97330641746521 3.808957099914551 C 4.232736587524414 3.289127111434937 4.734476566314697 2.978787183761597 5.315446376800537 2.978787183761597 C 5.896416187286377 2.978787183761597 6.39815616607666 3.289127111434937 6.657586574554443 3.808967113494873 L 8.739645957946777 7.980827331542969 C 8.973386764526367 8.449187278747559 8.948546409606934 8.994566917419434 8.673186302185059 9.439726829528809 C 8.397836685180664 9.884886741638184 7.920946598052979 10.15065670013428 7.397506237030029 10.15065670013428 Z" stroke="none"/>
        <path d="M 5.315446376800537 3.478787422180176 C 4.928126335144043 3.478787422180176 4.593636512756348 3.685687065124512 4.4206862449646 4.03223705291748 L 2.338625907897949 8.204107284545898 C 2.114016532897949 8.654157638549805 2.29478645324707 9.034196853637695 2.382925987243652 9.17670726776123 C 2.471076011657715 9.319207191467285 2.730396270751953 9.650657653808594 3.233386516571045 9.650657653808594 L 7.397506713867188 9.650657653808594 C 7.900496482849121 9.650657653808594 8.159816741943359 9.319207191467285 8.247966766357422 9.17670726776123 C 8.336106300354004 9.034196853637695 8.516876220703125 8.654157638549805 8.292266845703125 8.204107284545898 L 6.210206508636475 4.03223705291748 C 6.037246227264404 3.685687065124512 5.702756404876709 3.478787422180176 5.315446376800537 3.478787422180176 M 5.315446376800537 2.478784561157227 C 6.026063919067383 2.478784561157227 6.736681461334229 2.847752571105957 7.104966163635254 3.585686683654785 L 9.187026023864746 7.757556915283203 C 9.850646018981934 9.08726692199707 8.883625984191895 10.65065765380859 7.397506713867188 10.65065765380859 L 3.233386516571045 10.65065765380859 C 1.74726676940918 10.65065765380859 0.7802467346191406 9.08726692199707 1.443866729736328 7.757556915283203 L 3.52592658996582 3.585686683654785 C 3.894211292266846 2.847752571105957 4.604828834533691 2.478784561157227 5.315446376800537 2.478784561157227 Z" stroke="none" fill="#657ba5"/>
      </g>
    </g>
    <ellipse id="Эллипс_84" data-name="Эллипс 84" cx="7.614" cy="0.672" rx="7.614" ry="0.672" transform="translate(20.711 130.494)" opacity="0.042"/>
    <g id="Сгруппировать_288" data-name="Сгруппировать 288" transform="translate(19.849 109.289)">
      <g id="Многоугольник_8-3" data-name="Многоугольник 8" transform="translate(0 11.322)" fill="#689084">
        <path d="M 12.02832889556885 9.958751678466797 L 4.06166934967041 9.958751678466797 C 3.477219104766846 9.958751678466797 2.974149227142334 9.645721435546875 2.715969085693359 9.121392250061035 C 2.457779169082642 8.597062110900879 2.516379117965698 8.007452011108398 2.872729063034058 7.544191837310791 L 6.856059074401855 2.365741729736328 C 7.14224910736084 1.993681788444519 7.575599193572998 1.780291795730591 8.044999122619629 1.780291795730591 C 8.514399528503418 1.780291795730591 8.947749137878418 1.993681788444519 9.233939170837402 2.365741729736328 L 13.21726894378662 7.544191837310791 C 13.57361888885498 8.007452011108398 13.6322193145752 8.597062110900879 13.3740291595459 9.121392250061035 C 13.11584949493408 9.645721435546875 12.61277866363525 9.958751678466797 12.02832889556885 9.958751678466797 Z" stroke="none"/>
        <path d="M 8.044999122619629 2.280291557312012 C 7.73206901550293 2.280291557312012 7.443169593811035 2.422552108764648 7.252368927001953 2.670592308044434 L 3.269039154052734 7.849041938781738 C 3.031469345092773 8.157881736755371 2.992408752441406 8.550951957702637 3.164539337158203 8.900511741638184 C 3.33665943145752 9.250061988830566 3.672039031982422 9.458751678466797 4.06166934967041 9.458751678466797 L 12.02832889556885 9.458751678466797 C 12.41795921325684 9.458751678466797 12.75333881378174 9.250061988830566 12.92545890808105 8.900511741638184 C 13.09758949279785 8.550951957702637 13.05851936340332 8.157881736755371 12.82095909118652 7.849041938781738 L 8.837629318237305 2.670592308044434 C 8.646829605102539 2.422552108764648 8.357929229736328 2.280291557312012 8.044999122619629 2.280291557312012 M 8.044999122619629 1.280291557312012 C 8.637481689453125 1.280291557312012 9.229964256286621 1.540492057800293 9.630258560180664 2.060892105102539 L 13.6135892868042 7.239341735839844 C 14.62528896331787 8.554592132568359 13.687668800354 10.4587516784668 12.02832889556885 10.4587516784668 L 4.06166934967041 10.4587516784668 C 2.402329444885254 10.4587516784668 1.464709281921387 8.554592132568359 2.476399421691895 7.239341735839844 L 6.459738731384277 2.060892105102539 C 6.860033988952637 1.540492057800293 7.452516555786133 1.280291557312012 8.044999122619629 1.280291557312012 Z" stroke="none" fill="#657ba5"/>
      </g>
      <g id="Многоугольник_9-3" data-name="Многоугольник 9" transform="translate(0 5.949)" fill="#689084">
        <path d="M 12.09444904327393 10.24660110473633 L 3.995549201965332 10.24660110473633 C 3.415349006652832 10.24660110473633 2.913909196853638 9.936851501464844 2.654199123382568 9.418021202087402 C 2.394499063491821 8.899191856384277 2.447039127349854 8.312141418457031 2.794749021530151 7.847671508789062 L 6.844199180603027 2.438371419906616 C 7.1301589012146 2.056381464004517 7.567829132080078 1.83730149269104 8.044999122619629 1.83730149269104 C 8.52216911315918 1.83730149269104 8.9598388671875 2.056381464004517 9.24579906463623 2.438371419906616 L 13.29524898529053 7.847671508789062 C 13.64295959472656 8.312141418457031 13.69549942016602 8.899191856384277 13.43579959869385 9.418021202087402 C 13.1760892868042 9.936851501464844 12.67464923858643 10.24660110473633 12.09444904327393 10.24660110473633 Z" stroke="none"/>
        <path d="M 8.044999122619629 2.337302207946777 C 7.726888656616211 2.337302207946777 7.43510913848877 2.483351707458496 7.24445915222168 2.738021850585938 L 3.195009231567383 8.147321701049805 C 2.96320915222168 8.456961631774902 2.928178787231445 8.848331451416016 3.101319313049316 9.194211959838867 C 3.274458885192871 9.540102005004883 3.608749389648438 9.746602058410645 3.995549201965332 9.746602058410645 L 12.09444904327393 9.746602058410645 C 12.48124885559082 9.746602058410645 12.81553936004639 9.540102005004883 12.98867893218994 9.194211959838867 C 13.16181945800781 8.848331451416016 13.12678909301758 8.456961631774902 12.89498901367188 8.147321701049805 L 8.845529556274414 2.738012313842773 C 8.654889106750488 2.483351707458496 8.363109588623047 2.337302207946777 8.044999122619629 2.337302207946777 M 8.044999122619629 1.33730411529541 C 8.645549774169922 1.33730411529541 9.246099472045898 1.604447364807129 9.646068572998047 2.138731956481934 L 13.69551944732666 7.548031806945801 C 14.68270874023438 8.866731643676758 13.74171924591064 10.74660205841064 12.09444904327393 10.74660205841064 L 3.995549201965332 10.74660205841064 C 2.348278999328613 10.74660205841064 1.407289505004883 8.866731643676758 2.394478797912598 7.548031806945801 L 6.443928718566895 2.138731956481934 C 6.843898773193359 1.604447364807129 7.444449424743652 1.33730411529541 8.044999122619629 1.33730411529541 Z" stroke="none" fill="#657ba5"/>
      </g>
      <g id="Многоугольник_10-3" data-name="Многоугольник 10" transform="translate(2.777 0)" fill="#689084">
        <path d="M 7.466972351074219 10.0546989440918 L 3.259692192077637 10.0546989440918 C 2.734022378921509 10.0546989440918 2.256072282791138 9.787199020385742 1.981172323226929 9.33914852142334 C 1.706262230873108 8.891088485717773 1.684312224388123 8.343809127807617 1.922442317008972 7.875178813934326 L 4.02607250213623 3.735358715057373 C 4.287142276763916 3.221598863601685 4.787052154541016 2.914878845214844 5.363332271575928 2.914878845214844 C 5.93961238861084 2.914878845214844 6.439522266387939 3.221598863601685 6.700592041015625 3.735358715057373 L 8.804222106933594 7.875178813934326 C 9.042352676391602 8.343809127807617 9.020401954650879 8.891088485717773 8.745491981506348 9.33914852142334 C 8.470592498779297 9.787199020385742 7.992642402648926 10.0546989440918 7.466972351074219 10.0546989440918 Z" stroke="none"/>
        <path d="M 5.363332271575928 3.414878845214844 C 4.979142189025879 3.414878845214844 4.645872116088867 3.619359016418457 4.471822261810303 3.961858749389648 L 2.368192672729492 8.101678848266602 C 2.139362335205078 8.552008628845215 2.319342613220215 8.934238433837891 2.407341957092285 9.077669143676758 C 2.495342254638672 9.221098899841309 2.754562377929688 9.554698944091797 3.259692192077637 9.554698944091797 L 7.466972351074219 9.554698944091797 C 7.972102165222168 9.554698944091797 8.231322288513184 9.221098899841309 8.31932258605957 9.077669143676758 C 8.407321929931641 8.934238433837891 8.587302207946777 8.552008628845215 8.35847282409668 8.101678848266602 L 6.254842281341553 3.961858749389648 C 6.080792427062988 3.619359016418457 5.747522354125977 3.414878845214844 5.363332271575928 3.414878845214844 M 5.363332271575928 2.414875984191895 C 6.069537162780762 2.414875984191895 6.775742530822754 2.779533386230469 7.146342277526855 3.508849143981934 L 9.249972343444824 7.648668766021729 C 9.926072120666504 8.979188919067383 8.959412574768066 10.5546989440918 7.466972351074219 10.5546989440918 L 3.259692192077637 10.5546989440918 C 1.767251968383789 10.5546989440918 0.8005924224853516 8.979188919067383 1.476692199707031 7.648668766021729 L 3.580322265625 3.508849143981934 C 3.95092248916626 2.779533386230469 4.657127380371094 2.414875984191895 5.363332271575928 2.414875984191895 Z" stroke="none" fill="#657ba5"/>
      </g>
    </g>
    <path id="Контур_69" data-name="Контур 69" d="M-17450.312-7253.94v-41.4h8.344v16.7a8.337,8.337,0,0,0,8.344-8.344v-16.7a8.346,8.346,0,0,0-8.344-8.343h-33.344a8.34,8.34,0,0,0-8.312,8.343v16.7a8.33,8.33,0,0,0,8.313,8.344v-16.7h8.344v41.4h-41.656v-27.026a16.61,16.61,0,0,1-8.344-14.378v-8.352a16.7,16.7,0,0,1,16.688-16.695h8.313a16.673,16.673,0,0,1-16.656-16.695,16.68,16.68,0,0,1,16.656-16.7,16.615,16.615,0,0,1,9.047,2.7,24.971,24.971,0,0,1,24.3-19.4,24.984,24.984,0,0,1,24.3,19.4,16.537,16.537,0,0,1,9.047-2.7,16.7,16.7,0,0,1,16.656,16.7,16.693,16.693,0,0,1-16.656,16.695h8.313a16.678,16.678,0,0,1,16.656,16.695v8.352a16.614,16.614,0,0,1-8.312,14.378v27.026Zm25.031-49.756v16.7a16.643,16.643,0,0,1-8.344,14.378v10.668h16.656v-33.4h8.344v-8.352a8.346,8.346,0,0,0-8.344-8.343h-10.641A16.5,16.5,0,0,1-17425.281-7303.7Zm-83.344,0v8.352h8.344v33.4h16.656v-10.668a16.587,16.587,0,0,1-8.344-14.378v-16.7a16.488,16.488,0,0,1,2.313-8.343h-10.625A8.346,8.346,0,0,0-17508.625-7303.7Zm83.344-16.695a16.6,16.6,0,0,1-14.562-8.688,24.778,24.778,0,0,1-18.781,8.688Zm-33.344,0a24.786,24.786,0,0,1-18.8-8.688,16.6,16.6,0,0,1-14.547,8.688Zm25-16.695a8.336,8.336,0,0,0,8.344,8.343,8.33,8.33,0,0,0,8.313-8.343,8.337,8.337,0,0,0-8.312-8.352A8.343,8.343,0,0,0-17433.625-7337.086Zm-41.687-8.352a16.7,16.7,0,0,0,16.688,16.695,16.673,16.673,0,0,0,16.656-16.695,16.678,16.678,0,0,0-16.656-16.7A16.7,16.7,0,0,0-17475.312-7345.438Zm-24.969,8.352a8.32,8.32,0,0,0,8.313,8.343,8.336,8.336,0,0,0,8.344-8.343,8.343,8.343,0,0,0-8.344-8.352A8.327,8.327,0,0,0-17500.281-7337.086Z" transform="translate(17547.398 7453.607)" fill="#fff"/>
  </g>
</svg>
