<svg height="343.964" viewBox="0 0 744 343.964" width="744" xmlns="http://www.w3.org/2000/svg" xmlns:xlink="http://www.w3.org/1999/xlink"><filter id="a" filterUnits="userSpaceOnUse" height="343.964" width="744" x="0" y="0"><feOffset dy="2"/><feGaussianBlur result="blur" stdDeviation="24"/><feFlood flood-opacity=".078"/><feComposite in2="blur" operator="in"/><feComposite in="SourceGraphic"/></filter><g filter="url(#a)"><path d="m0 0h600v199.964h-600z" fill="#08142c" transform="translate(72 70)"/></g><path d="m-18417.383-9457.165a.886.886 0 0 1 -.3-1.215.885.885 0 0 1 1.215-.3.885.885 0 0 1 .3 1.216.875.875 0 0 1 -.424.369.918.918 0 0 1 -.332.065.853.853 0 0 1 -.459-.135zm205.955-6.231a.884.884 0 0 1 -.473-1.163.887.887 0 0 1 1.164-.473.89.89 0 0 1 .467 1.164.863.863 0 0 1 -.369.421.88.88 0 0 1 -.443.121.89.89 0 0 1 -.346-.074zm145.582-2.4a.886.886 0 0 1 -.473-1.164.883.883 0 0 1 1.16-.472.89.89 0 0 1 .473 1.164.868.868 0 0 1 -.375.42.847.847 0 0 1 -.439.122.9.9 0 0 1 -.346-.074zm-314.654-6.937a.89.89 0 0 1 -.3-1.221.885.885 0 0 1 1.215-.3.884.884 0 0 1 .3 1.216.9.9 0 0 1 -.426.364.914.914 0 0 1 -.336.065.882.882 0 0 1 -.453-.126zm-181.381-2.31a.892.892 0 0 1 -.309-1.22.89.89 0 0 1 1.221-.3.885.885 0 0 1 .3 1.216.862.862 0 0 1 -.43.364.879.879 0 0 1 -.332.065.887.887 0 0 1 -.45-.127zm121.9-3.454a.883.883 0 0 1 -.3-1.216.883.883 0 0 1 1.215-.3.888.888 0 0 1 .3 1.22.892.892 0 0 1 -.426.365.9.9 0 0 1 -.332.061.865.865 0 0 1 -.455-.133zm203.205-2.88a.883.883 0 0 1 -.473-1.159.887.887 0 0 1 1.164-.473.886.886 0 0 1 .467 1.164.871.871 0 0 1 -.369.421.917.917 0 0 1 -.443.117.875.875 0 0 1 -.343-.072zm145.578-2.4a.881.881 0 0 1 -.467-1.159.881.881 0 0 1 1.158-.473.887.887 0 0 1 .473 1.164.912.912 0 0 1 -.369.421.944.944 0 0 1 -.449.116.823.823 0 0 1 -.34800000001-.073zm-85.881-.169a.889.889 0 0 1 -.467-1.164.884.884 0 0 1 1.16-.472.889.889 0 0 1 .471 1.164.868.868 0 0 1 -.373.421.876.876 0 0 1 -.445.121.919.919 0 0 1 -.343-.074zm145.584-2.4a.893.893 0 0 1 -.473-1.164.894.894 0 0 1 1.164-.472.891.891 0 0 1 .473 1.164.87.87 0 0 1 -.375.42.871.871 0 0 1 -.443.122.89.89 0 0 1 -.343-.077zm-321.484-.617a.993.993 0 0 1 -.973-1.015.988.988 0 0 1 1.01-.972 1 1 0 0 1 .977 1.01 1 1 0 0 1 -.621.9 1.03 1.03 0 0 1 -.375.074zm-172.027-3.65a.883.883 0 0 1 -.3-1.216.887.887 0 0 1 1.215-.3.894.894 0 0 1 .3 1.22.905.905 0 0 1 -.432.365.884.884 0 0 1 -.33.065.878.878 0 0 1 -.447-.141zm-59.475-5.759a.885.885 0 0 1 -.3-1.216.883.883 0 0 1 1.215-.3.883.883 0 0 1 .3 1.215.9.9 0 0 1 -.426.365.922.922 0 0 1 -.336.065.894.894 0 0 1 -.451-.136zm431.57-6.362a1 1 0 0 1 .869-1.108 1 1 0 0 1 1.107.865 1 1 0 0 1 -.49.981 1 1 0 0 1 -.379.126.957.957 0 0 1 -.121 0 .992.992 0 0 1 -.983-.871zm-344.568-2.113a.989.989 0 0 1 -.977-1.01.993.993 0 0 1 1.016-.972 1 1 0 0 1 .977 1.01 1.009 1.009 0 0 1 -.627.9.956.956 0 0 1 -.369.07zm145-10.882a1 1 0 0 1 -.977-1.01.99.99 0 0 1 1.01-.973.987.987 0 0 1 .977 1.01.993.993 0 0 1 -.621.9 1.043 1.043 0 0 1 -.365.07zm65.262-12.089a.876.876 0 0 1 .641-1.07.9.9 0 0 1 1.078.641.9.9 0 0 1 -.639 1.08 1.228 1.228 0 0 1 -.221.032.89.89 0 0 1 -.853-.69zm-105.719-.061a.888.888 0 0 1 .641-1.08.9.9 0 0 1 1.078.65.892.892 0 0 1 -.658 1.08.783.783 0 0 1 -.2.022.908.908 0 0 1 -.855-.67900000001zm-1.633-1.248a.891.891 0 0 1 -.3-1.22.887.887 0 0 1 1.215-.3.889.889 0 0 1 .3 1.22.917.917 0 0 1 -.426.364.918.918 0 0 1 -.332.065.924.924 0 0 1 -.45-.13600000001zm238.152-2.164a.991.991 0 0 1 .865-1.1.987.987 0 0 1 1.107.865 1 1 0 0 1 -.49.977.921.921 0 0 1 -.379.126.922.922 0 0 1 -.121.01.987.987 0 0 1 -.975-.887zm-340.561-2.318a.992.992 0 0 1 -.977-1.01.989.989 0 0 1 1.01-.978.993.993 0 0 1 .977 1.01.993.993 0 0 1 -.621.9.991.991 0 0 1 -.371.075zm298.121-4.23a.879.879 0 0 1 -.467-1.159.886.886 0 0 1 1.158-.473.89.89 0 0 1 .473 1.164.92.92 0 0 1 -.373.421.876.876 0 0 1 -.445.121.869.869 0 0 1 -.339-.08200000001zm-144.152-2.272a.886.886 0 0 1 -.3-1.215.885.885 0 0 1 1.217-.3.881.881 0 0 1 .3 1.215.867.867 0 0 1 -.424.365.932.932 0 0 1 -.338.065.879.879 0 0 1 -.446-.13800000001zm289.736-.131a.878.878 0 0 1 -.469-1.159.886.886 0 0 1 1.16-.472.893.893 0 0 1 .473 1.164.921.921 0 0 1 -.375.42.861.861 0 0 1 -.443.122.815.815 0 0 1 -.339-.08300000001zm-216.523-1.837a.982.982 0 0 1 -.533-1.295.991.991 0 0 1 1.3-.532.983.983 0 0 1 .514 1.3.971.971 0 0 1 -.906.608.856.856 0 0 1 -.368-.08900000001zm-176.852-3.478a.889.889 0 0 1 -.3-1.216.881.881 0 0 1 1.215-.3.884.884 0 0 1 .3 1.216.87.87 0 0 1 -.426.364.922.922 0 0 1 -.336.065.919.919 0 0 1 -.446-.13600000001zm25.625-.136a1 1 0 0 1 -.977-1.015.994.994 0 0 1 1.01-.972 1 1 0 0 1 .982 1.01 1 1 0 0 1 -.627.9.986.986 0 0 1 -.373.075zm168.311-1.164a.89.89 0 0 1 -.467-1.164.883.883 0 0 1 1.16-.472.886.886 0 0 1 .471 1.164.883.883 0 0 1 -.373.421.861.861 0 0 1 -.445.121.9.9 0 0 1 -.339-.077zm-286.355-.154a.875.875 0 0 1 -.3-1.215.883.883 0 0 1 1.215-.3.883.883 0 0 1 .3 1.215.9.9 0 0 1 -.43.369.869.869 0 0 1 -.332.061.842.842 0 0 1 -.447-.13800000001zm431.939-2.253a.888.888 0 0 1 -.473-1.159.89.89 0 0 1 1.164-.473.887.887 0 0 1 .473 1.164.892.892 0 0 1 -.375.421.871.871 0 0 1 -.443.122.815.815 0 0 1 -.339-.08200000001zm-121.336-2.159a1 1 0 0 1 .869-1.108 1 1 0 0 1 1.107.865 1 1 0 0 1 -.49.981 1.072 1.072 0 0 1 -.379.126 1.054 1.054 0 0 1 -.121 0 1 1 0 0 1 -.979-.872zm145.582-2.4a1 1 0 0 1 .865-1.107.99.99 0 0 1 1.107.864 1 1 0 0 1 -.49.982 1.015 1.015 0 0 1 -.375.126 1.037 1.037 0 0 1 -.121 0 1 1 0 0 1 -.979-.87600000001zm-282.148.486a.891.891 0 0 1 -.3-1.22.893.893 0 0 1 1.221-.3.888.888 0 0 1 .3 1.216.861.861 0 0 1 -.426.364.914.914 0 0 1 -.336.065.887.887 0 0 1 -.452-.13600000001zm215.705-2.548a.888.888 0 0 1 -.473-1.164.882.882 0 0 1 1.164-.467.882.882 0 0 1 .469 1.159.873.873 0 0 1 -.369.421.876.876 0 0 1 -.445.121.9.9 0 0 1 -.339-.085zm-338.182-2.1a.89.89 0 0 1 -.309-1.22.889.889 0 0 1 1.221-.3.89.89 0 0 1 .3 1.22.881.881 0 0 1 -.43.364.861.861 0 0 1 -.332.066.889.889 0 0 1 -.443-.14500000001zm-103.639-5.45a.892.892 0 0 1 -.3-1.216.893.893 0 0 1 1.221-.3.885.885 0 0 1 .3 1.221.869.869 0 0 1 -.426.364.886.886 0 0 1 -.332.065.871.871 0 0 1 -.456-.148zm25.621-.136a.991.991 0 0 1 -.973-1.01 1 1 0 0 1 1.01-.977 1 1 0 0 1 .977 1.015.988.988 0 0 1 -.621.9 1.013 1.013 0 0 1 -.379.07zm176.883-2.81a1 1 0 0 1 .553-1.295.988.988 0 0 1 1.289.552.983.983 0 0 1 -.547 1.29.942.942 0 0 1 -.369.075 1 1 0 0 1 -.919-.63600000001zm215.668.463a.886.886 0 0 1 -.473-1.164.888.888 0 0 1 1.164-.467.883.883 0 0 1 .473 1.159.93.93 0 0 1 -.373.425.934.934 0 0 1 -.449.117.892.892 0 0 1 -.335-.084zm145.578-2.4a.889.889 0 0 1 -.467-1.164.888.888 0 0 1 1.164-.468.881.881 0 0 1 .467 1.159.839.839 0 0 1 -.369.421.876.876 0 0 1 -.449.122.934.934 0 0 1 -.339-.086zm-482.139-2.9a.891.891 0 0 1 -.3-1.215.889.889 0 0 1 1.219-.3.89.89 0 0 1 .3 1.221.913.913 0 0 1 -.43.364.918.918 0 0 1 -.332.065.883.883 0 0 1 -.449-.149zm311.365-4.333a1 1 0 0 1 .365-1.36.994.994 0 0 1 1.355.364 1 1 0 0 1 -.365 1.36.982.982 0 0 1 -.5.131 1 1 0 0 1 -.84700000001-.509zm-165.9-.753a.987.987 0 0 1 .547-1.295 1 1 0 0 1 1.295.547 1 1 0 0 1 -.553 1.295.942.942 0 0 1 -.369.075 1 1 0 0 1 -.914-.636zm311.484-1.65a.994.994 0 0 1 .365-1.359.994.994 0 0 1 1.355.364 1 1 0 0 1 -.363 1.36 1 1 0 0 1 -.5.131 1 1 0 0 1 -.85100000001-.511zm-480.553-6.306a1 1 0 0 1 .547-1.295.994.994 0 0 1 1.295.547 1 1 0 0 1 -.547 1.295.949.949 0 0 1 -.375.075 1 1 0 0 1 -.914-.636zm357.918-4.539a1 1 0 0 1 .359-1.36 1 1 0 0 1 1.361.365 1 1 0 0 1 -.365 1.36 1 1 0 0 1 -.5.131.984.984 0 0 1 -.84900000001-.51zm145.578-2.4a1 1 0 0 1 .365-1.36.991.991 0 0 1 1.359.369 1 1 0 0 1 -.365 1.355 1 1 0 0 1 -.494.131 1.007 1.007 0 0 1 -.85900000001-.512zm-401.451-1.818a.889.889 0 0 1 -.3-1.22.888.888 0 0 1 1.221-.3.883.883 0 0 1 .3 1.216.87.87 0 0 1 -.426.364.91.91 0 0 1 -.332.065.9.9 0 0 1 -.45700000001-.14200000001zm-77.48-1.169a1 1 0 0 1 .547-1.295 1 1 0 0 1 1.295.552.994.994 0 0 1 -.547 1.295 1.031 1.031 0 0 1 -.369.07 1 1 0 0 1 -.92000000001-.636zm122.295-1.715a1 1 0 0 1 .547-1.295 1 1 0 0 1 1.295.551 1 1 0 0 1 -.547 1.295 1.038 1.038 0 0 1 -.375.07.992.992 0 0 1 -.914-.638zm142.361-.122a.875.875 0 0 1 -.467-1.159.878.878 0 0 1 1.158-.472.884.884 0 0 1 .473 1.163.9.9 0 0 1 -.373.421.883.883 0 0 1 -.445.122.827.827 0 0 1 -.34000000001-.09200000001zm145.584-2.4a.887.887 0 0 1 -.473-1.164.888.888 0 0 1 1.164-.468.887.887 0 0 1 .473 1.164.913.913 0 0 1 -.375.421.88.88 0 0 1 -.443.121.829.829 0 0 1 -.34000000001-.093zm-220.727-4.151a.909.909 0 0 1 .654-1.075.875.875 0 0 1 1.066.641.878.878 0 0 1 -.641 1.08.829.829 0 0 1 -.219.027.924.924 0 0 1 -.854-.693zm119.121-2.538a.991.991 0 0 1 .359-1.355 1 1 0 0 1 1.361.364 1 1 0 0 1 -.365 1.355 1 1 0 0 1 -.5.136.987.987 0 0 1 -.84900000001-.52zm145.582-2.4a.993.993 0 0 1 .361-1.356 1 1 0 0 1 1.359.365 1 1 0 0 1 -.365 1.355 1.008 1.008 0 0 1 -.494.136.99.99 0 0 1 -.855-.522zm-521.24-3.38a.893.893 0 0 1 -.3-1.22.887.887 0 0 1 1.215-.3.89.89 0 0 1 .3 1.221.923.923 0 0 1 -.426.364.914.914 0 0 1 -.336.065.919.919 0 0 1 -.447-.15200000001zm44.82-2.885a.988.988 0 0 1 .547-1.294.993.993 0 0 1 1.295.551.992.992 0 0 1 -.553 1.29.942.942 0 0 1 -.369.075 1 1 0 0 1 -.913-.64500000001z" fill="#fff" transform="translate(18698 9702.482)"/><path d="m-18439.334-9489.11a.993.993 0 0 1 -.977-1.015.992.992 0 0 1 1.014-.973.991.991 0 0 1 .973 1.006.993.993 0 0 1 -.621.906 1.011 1.011 0 0 1 -.375.075zm201.1-3.768a.994.994 0 0 1 .865-1.108 1 1 0 0 1 1.107.865 1 1 0 0 1 -.49.981 1.01 1.01 0 0 1 -.379.126.948.948 0 0 1 -.117.01.994.994 0 0 1 -.984-.874zm145.578-2.4a1 1 0 0 1 .869-1.107.992.992 0 0 1 1.1.864.992.992 0 0 1 -.486.982 1.022 1.022 0 0 1 -.379.126.98.98 0 0 1 -.121.01 1 1 0 0 1 -.981-.878zm-491.182-11.722a1 1 0 0 1 -.977-1.01.994.994 0 0 1 1.014-.973.994.994 0 0 1 .979 1.006 1.006 1.006 0 0 1 -.623.906 1 1 0 0 1 -.379.07zm196.373-28.973a.986.986 0 0 1 .031-1.4.974.974 0 0 1 1.389.023.988.988 0 0 1 -.014 1.407.973.973 0 0 1 -.687.275.966.966 0 0 1 -.719-.3zm5.879-8.493a.992.992 0 0 1 -.977-1.006.993.993 0 0 1 1.01-.977.989.989 0 0 1 .977 1.01.985.985 0 0 1 -.621.9.956.956 0 0 1 -.369.07zm107.436-4.876a.991.991 0 0 1 .863-1.107 1 1 0 0 1 1.109.864.985.985 0 0 1 -.492.981.941.941 0 0 1 -.373.127c-.043 0-.084.009-.121.009a.993.993 0 0 1 -.98600000001-.869zm-192.895-.683a.992.992 0 0 1 -.977-1.01.989.989 0 0 1 1.01-.977.992.992 0 0 1 .977 1.01 1 1 0 0 1 -.621.906 1.043 1.043 0 0 1 -.365.07zm338.477-1.72a.994.994 0 0 1 .865-1.108.993.993 0 0 1 1.107.865.993.993 0 0 1 -.49.981.933.933 0 0 1 -.375.126 1.081 1.081 0 0 1 -.121.01.993.993 0 0 1 -.986-.868zm-60.18-3.983a.988.988 0 0 1 .865-1.107.99.99 0 0 1 1.107.864 1 1 0 0 1 -.49.982 1.112 1.112 0 0 1 -.375.126 1.037 1.037 0 0 1 -.121 0 .987.987 0 0 1 -.986-.86zm-132.437-.3a1.021 1.021 0 0 1 .033-1.4 1 1 0 0 1 1.406.023.994.994 0 0 1 -.033 1.412.988.988 0 0 1 -.668.271 1.055 1.055 0 0 1 -.739-.299zm278.021-2.1a.989.989 0 0 1 .863-1.107 1 1 0 0 1 1.109.864 1.009 1.009 0 0 1 -.492.981.955.955 0 0 1 -.373.122.617.617 0 0 1 -.127.009.984.984 0 0 1 -.98-.866zm-482.92-4.217a.992.992 0 0 1 -.977-1.01 1 1 0 0 1 1.01-.977 1 1 0 0 1 .977 1.01.989.989 0 0 1 -.621.9.98.98 0 0 1 -.369.074zm-85.463-5.558a1 1 0 0 1 -.979-1.01.994.994 0 0 1 1.016-.977.992.992 0 0 1 .977 1.01.992.992 0 0 1 -.621.9 1 1 0 0 1 -.375.075zm308.068-9.316a1 1 0 0 1 .014-1.411 1.008 1.008 0 0 1 1.406.022 1 1 0 0 1 -.018 1.412 1 1 0 0 1 -.687.271.99.99 0 0 1 -.715-.291zm-105.527-.57a.991.991 0 0 1 -.973-1.01.991.991 0 0 1 1.01-.972.986.986 0 0 1 .973 1.01.99.99 0 0 1 -.617.9 1.006 1.006 0 0 1 -.379.07zm188.467-7.124a.993.993 0 0 1 .865-1.1.988.988 0 0 1 1.107.864.993.993 0 0 1 -.486.978 1.059 1.059 0 0 1 -.379.126 1.071 1.071 0 0 1 -.121.009.993.993 0 0 1 -.986-.874zm145.582-2.4a1 1 0 0 1 .865-1.1.993.993 0 0 1 1.107.865.98.98 0 0 1 -.49.977.925.925 0 0 1 -.373.126 1.044 1.044 0 0 1 -.123.01 1 1 0 0 1 -.986-.877zm-478.547-8.354a1 1 0 0 1 -.977-1.01.993.993 0 0 1 1.01-.977.992.992 0 0 1 .977 1.01.991.991 0 0 1 -.623.906.976.976 0 0 1 -.373.07zm189.477-2.959a1 1 0 0 1 .014-1.407 1 1 0 0 1 1.406.023 1.008 1.008 0 0 1 -.014 1.407 1.034 1.034 0 0 1 -.7.275.985.985 0 0 1 -.706-.297zm13.064-6.923a1 1 0 0 1 -.977-1.01.993.993 0 0 1 1.014-.977.988.988 0 0 1 .973 1.01 1 1 0 0 1 -.621.906.972.972 0 0 1 -.375.07zm184.035-14.936a1 1 0 0 1 .869-1.107.992.992 0 0 1 1.1.869.989.989 0 0 1 -.49.982.98.98 0 0 1 -.369.121 1.111 1.111 0 0 1 -.127.01 1 1 0 0 1 -.983-.873zm-328.533-2.949a.992.992 0 0 1 -.977-1.01 1 1 0 0 1 1.014-.977.991.991 0 0 1 .973 1.01 1 1 0 0 1 -.621.906.963.963 0 0 1 -.369.07z" fill="#fff" opacity=".638" transform="translate(18698 9706)"/><path d="m-17510.557-7236.728c-4.178-.18-8.359-.36-12.443-.548v-80.837c185.973-3.045 408.531-3.178 600-.431v81.816z" fill="#596e96" transform="translate(17595 7506.727)"/><path d="m-17523-7233.855v-73.5c95.57-2.974 203.162-4.642 316.859-4.642 100.594 0 196.258 1.307 283.141 3.663v74.482z" fill="#657ba5" transform="translate(17595 7503.852)"/><path d="m-17503.7-7250.4v-39.072h-5.3v-21.861h106.422v21.861h-5.3v39.072zm70.047-81.464a11.916 11.916 0 0 1 11.906-11.913 11.906 11.906 0 0 1 11.906 11.913 11.908 11.908 0 0 1 -11.906 11.921 11.918 11.918 0 0 1 -11.909-11.925zm-42.969-8.609a20.521 20.521 0 0 1 20.516-20.522 20.5 20.5 0 0 1 20.484 20.522 20.506 20.506 0 0 1 -20.484 20.53 20.523 20.523 0 0 1 -20.519-20.535zm-24.453 7.294a11.924 11.924 0 0 1 11.906-11.928 11.9 11.9 0 0 1 11.891 11.928 11.9 11.9 0 0 1 -11.891 11.913 11.921 11.921 0 0 1 -11.909-11.917z" fill="#89a9e7" transform="translate(17815.703 7520.404)"/><g fill="#fff"><path d="m0 12.473a15.867 15.867 0 0 0 6.4-2.232 16.774 16.774 0 0 0 4.752-4.374 19.467 19.467 0 0 0 2.934-5.867 16.091 16.091 0 0 1 -1.8 4.873 15.432 15.432 0 0 1 -3.144 3.915 14.582 14.582 0 0 1 -4.2 2.639 13.981 13.981 0 0 1 -4.942 1.046z" opacity=".314" transform="matrix(0 -1 1 0 361.65 177.724)"/><path d="m0 5.863a6.585 6.585 0 0 0 2.79-1.049 7.534 7.534 0 0 0 2.071-2.056 9.438 9.438 0 0 0 1.278-2.758 7.953 7.953 0 0 1 -.783 2.29 7.165 7.165 0 0 1 -1.372 1.84 6.293 6.293 0 0 1 -1.829 1.241 5.714 5.714 0 0 1 -2.155.492z" opacity=".409" transform="matrix(0 -1 1 0 393.379 186.333)"/><path d="m-15570.016-7501.676c-1.547-.689-2.531-2.066-2.187-3.076.328-1.009 1.859-1.268 3.406-.579 1.531.689 2.531 2.066 2.188 3.076a1.66 1.66 0 0 1 -1.719.971 4.305 4.305 0 0 1 -1.688-.392zm1.547-8.586a1.635 1.635 0 0 1 1.5-1.737 1.635 1.635 0 0 1 1.5 1.737 1.638 1.638 0 0 1 -1.5 1.746 1.638 1.638 0 0 1 -1.5-1.747z" opacity=".256" transform="translate(15923.066 7691.27)"/></g><path d="m-17461.875-7372.3h-26.437v-22.519h5.281v-37.081h-5.281v-1.323h31.734v21.853h-5.3v39.072zm-69.391 0h-26.453v-39.072h-5.281v-21.853h31.734v1.323h-3.984v37.084h3.984v22.519zm55.5-69.535a12.017 12.017 0 0 1 -4.625-.932 11.95 11.95 0 0 1 -3.766-2.559 12.112 12.112 0 0 1 -2.562-3.789 11.787 11.787 0 0 1 -.937-4.642 11.786 11.786 0 0 1 .938-4.641 12.112 12.112 0 0 1 2.563-3.789 12.058 12.058 0 0 1 3.766-2.551 11.742 11.742 0 0 1 4.625-.939 11.706 11.706 0 0 1 4.641.939 11.82 11.82 0 0 1 3.781 2.551 12.112 12.112 0 0 1 2.563 3.789 12.055 12.055 0 0 1 .922 4.641 12.055 12.055 0 0 1 -.922 4.642 12.112 12.112 0 0 1 -2.562 3.789 11.843 11.843 0 0 1 -3.781 2.559 11.978 11.978 0 0 1 -4.64399999999.931zm-67.422-1.323a11.742 11.742 0 0 1 -4.625-.939 11.82 11.82 0 0 1 -3.781-2.551 12.342 12.342 0 0 1 -2.547-3.789 11.787 11.787 0 0 1 -.937-4.642 11.758 11.758 0 0 1 .938-4.641 12.337 12.337 0 0 1 2.547-3.789 11.843 11.843 0 0 1 3.781-2.559 11.874 11.874 0 0 1 4.625-.932 11.893 11.893 0 0 1 4.641.932 11.843 11.843 0 0 1 3.781 2.559 12.112 12.112 0 0 1 2.563 3.789 12.026 12.026 0 0 1 .922 4.641 12.055 12.055 0 0 1 -.922 4.642 12.118 12.118 0 0 1 -2.562 3.789 11.948 11.948 0 0 1 -3.781 2.551 11.762 11.762 0 0 1 -4.642.938z" fill="#b2c7f0" transform="translate(17869.703 7642.299)"/><path d="m-17512.359-7421.479v-.008a17.4 17.4 0 0 0 -3.922-1.5 17.947 17.947 0 0 0 -4.344-.532 17.409 17.409 0 0 0 -7.422 1.651v-47.682l-22.5 23.325a4.676 4.676 0 0 1 -3.391 1.448 4.683 4.683 0 0 1 -3.344-1.37l-4.344-4.3a4.6 4.6 0 0 1 -1.375-3.288 4.524 4.524 0 0 1 1.375-3.271l38.094-37.632a4.678 4.678 0 0 1 3.344-1.362 4.6 4.6 0 0 1 3.3 1.362l38.109 37.609a4.637 4.637 0 0 1 1.375 3.287 4.588 4.588 0 0 1 -1.375 3.272l-4.359 4.3a4.755 4.755 0 0 1 -3.328 1.362 4.643 4.643 0 0 1 -3.391-1.44l-22.5-23.3z" fill="#99a2ad" opacity=".15" transform="translate(17913.98 7592.49)"/><path d="m-17520.172-7415.922a21.163 21.163 0 0 0 -13.266-10.355v-47.023l-19.047 20.006a3.863 3.863 0 0 1 -2.859 1.245 3.925 3.925 0 0 1 -2.812-1.174l-3.672-3.687a3.938 3.938 0 0 1 -1.172-2.825 3.886 3.886 0 0 1 1.172-2.8l32.2-32.287a3.951 3.951 0 0 1 2.813-1.174 3.9 3.9 0 0 1 2.813 1.174l32.2 32.271a3.909 3.909 0 0 1 1.172 2.818 3.89 3.89 0 0 1 -1.172 2.81l-3.672 3.687a3.969 3.969 0 0 1 -2.812 1.159 3.935 3.935 0 0 1 -2.875-1.221l-19.016-20v57.38z" fill="#5d6878" transform="translate(17931.832 7592.49)"/><ellipse cx="450.072" cy="207.116" opacity=".192" rx="9.625" ry="2.015"/><g fill="#6ca565" transform="translate(437.766 191.859)"><path d="m15.67619801 14.85229588h-7.50472069c-1.36727953 0-2.54243946-.73316002-3.14357949-1.96120072-.60113-1.22802925-.45931005-2.60586929.37937975-3.68569946l3.75235987-4.83128023c.66787052-.85991001 1.67539024-1.35309005 2.76420021-1.35309005s2.09632969.49318004 2.76420021 1.35309005l3.75235939 4.83126974c.83868981 1.07984066.98051071 2.4576807.37938118 3.68572044-.60114097 1.22803021-1.77630996 1.96119023-3.14358043 1.96119023z"/><path d="m11.92383766 3.52101421c-.93327045 0-1.7968502.42273045-2.36931991 1.15980053l-3.75235939 4.83127976c-.71887017.92556953-.84043122 2.10657024-.32518006 3.15917015.51525879 1.0526104 1.52254868 1.68103027 2.69449902 1.68103027h7.50472069c1.17195034 0 2.17924022-.62841987 2.69448947-1.68103027.5152607-1.05259991.39369965-2.23360062-.32517051-3.15917015l-3.75235939-4.83127976c-.57246971-.73707008-1.43605995-1.15980053-2.36931992-1.15980053m0-.99999427c1.17919254 0 2.35838509.51546478 3.15909004 1.54639434l3.75235939 4.83128071c2.0409813 2.62781906.16823006 6.45359993-3.15908908 6.45359993h-7.50472069c-3.32733059 0-5.20007038-3.82578087-3.15908909-6.45359993l3.75235939-4.83128071c.80070496-1.03092956 1.9798975-1.54639434 3.15909004-1.54639434z" fill="#657ba5"/></g><g fill="#6ca565" transform="translate(437.766 184.663)"><path d="m15.54728699 14.46848774h-7.24690056c-1.37664986 0-2.55533981-.74040031-3.15297985-1.9805603s-.44234991-2.62341023.41540003-3.70019055l3.6234498-4.54866981c.66787052-.83839989 1.66567993-1.31924987 2.7375803-1.31924987s2.06970978.48084998 2.7375803 1.31925988l3.62344932 4.5486598c.85774994 1.07678032 1.01305008 2.46002007.415411 3.70019055-.59764099 1.24015999-1.77633095 1.9805603-3.15299034 1.9805603z"/><path d="m11.92383671 3.41981697c-.91878033 0-1.77404022.41215992-2.34648991 1.13079071l-3.62344932 4.54866982c-.73521996.92294979-.86833001 2.10858917-.35607148 3.17158985.51226044 1.06299019 1.52257157 1.69761944 2.70256043 1.69761944h7.24690056c1.17998886 0 2.19029999-.63462925 2.70256042-1.69761944.51226044-1.06300068.37915039-2.24864006-.35607147-3.17158985l-3.62344933-4.54866982c-.57246017-.71863079-1.42772007-1.13079071-2.3464899-1.13079071m0-.99999714c1.16398239 0 2.32796478.50257206 3.1286602 1.50771713l3.62345028 4.54867077c2.08738899 2.62037945.22149849 6.49227906-3.1286602 6.49227906h-7.24690056c-3.3501606 0-5.2160492-3.87189961-3.1286602-6.49227906l3.62345028-4.54867077c.80069542-1.00514507 1.96467781-1.50771713 3.1286602-1.50771713z" fill="#657ba5"/></g><g fill="#6ca565" transform="translate(441.788 175.931)"><path d="m9.20727921 14.6603899h-2.61188031c-1.23398971 0-2.35272979-.62991047-2.99262976-1.68500996-.63989997-1.05510997-.68145013-2.33833027-.11113-3.43261051l1.30594015-2.50572967c.61430979-1.17867995 1.77458954-1.88237 3.10375976-1.88237 1.32916022 0 2.48944045.70369005 3.10376025 1.88237l1.30593967 2.50572967c.57032013 1.09428024.52877045 2.37750054-.11112976 3.43261051-.63990021 1.05509949-1.75864029 1.68500996-2.99263 1.68500996z"/><path d="m7.90133905 5.65466022c-1.13929033 0-2.13380956.60315991-2.66035986 1.61346913l-1.30593967 2.50573063c-.48885059.93795967-.45324039 2.03785991.09524918 2.94222927.54849052.9043808 1.50741005 1.44430065 2.5651102 1.44430065h2.61188031c1.0576992 0 2.01661968-.53993034 2.56510925-1.44430065.54849052-.90437889.58410072-2.00427914.09525108-2.94222927l-1.30594063-2.50573063c-.52655029-1.01029968-1.52108001-1.61346913-2.66035986-1.61346913m-.00000381-.99999523c1.39983702 0 2.79967451.71709442 3.54715395 2.15128517l1.30593967 2.50572968c1.38790036 2.66299057-.54418945 5.84871006-3.54714965 5.84871006h-2.61188031c-3.00296974 0-4.93505001-3.18571949-3.54714966-5.84871006l1.30593968-2.50572968c.74747467-1.43419075 2.14731026-2.15128517 3.54714632-2.15128517z" fill="#657ba5"/></g><ellipse cx="424.214" cy="203.085" opacity=".042" rx="7.614" ry=".672"/><g fill="#689084" transform="translate(415.834 192.434)"><path d="m12.01292038 10.24660778h-8.03161955c-.57926989 0-1.08033991-.30902958-1.34036994-.8266592-.26003003-.51763058-.2088201-1.10411072.13699985-1.56883049l4.01581001-5.39647985c.2858901-.38418007.72450018-.60452008 1.20337009-.60452008.47886992 0 .91748.22034001 1.20336962.60452008l4.01581001 5.39647985c.34582043.46471023.39704037 1.05119037.13701058 1.56882-.26002979.51764011-.76111031.82666969-1.34038067.82666969z"/><path d="m7.99711084 2.35011864c-.31924963 0-.61164999.14688968-.80223989.40300941l-4.0158205 5.3964901c-.23053933.30980968-.26468945.7007904-.09134007 1.04588032.17336083.34508991.50741005.55111026.89359093.55111026h8.03161907c.38618088 0 .7202301-.20602035.89358044-.55111026.17335033-.34508992.13920974-.73607064-.09134007-1.04588986l-4.01581001-5.39648056c-.19058991-.25611973-.4829998-.40300941-.8022399-.40300941m0-.9999981c.60231257 0 1.20462561.26867295 1.60448981.80601788l4.01581001 5.39647961c.9818306 1.31939983.04014015 3.19398975-1.60449028 3.19398975h-8.03161907c-1.64463043 0-2.58633042-1.87458992-1.60449028-3.19398975l4.01581001-5.39647961c.39986515-.53734493 1.00217724-.80601788 1.6044898-.80601788z" fill="#657ba5"/></g><g fill="#689084" transform="translate(415.834 187.061)"><path d="m12.03393078 10.34255505h-8.07363987c-.57789016 0-1.07843018-.30797005-1.33894014-.82380963-.26050997-.51585006-.21124983-1.10146999.13178014-1.56655025l4.03681994-5.47316003c.28574991-.38742995.72574997-.60962987 1.20715999-.60962987.48140955 0 .92141009.22219992 1.20716048.60962987l4.03681945 5.47316003c.34302998.46508026.39229012 1.05070019.13177968 1.56655025-.2605095.51583958-.76104928.82380963-1.33893967.82380963z"/><path d="m7.99711084 2.36940479c-.32095003 0-.61426973.14813042-.80476999.40642071l-4.03682041 5.47315979c-.22868919.31005001-.26152992.70046043-.08785915 1.04436016.17366981.34389973.50736999.5492096.89262962.5492096h8.07363987c.38526058 0 .71895981-.20530987.89263058-.5492096.17366981-.34389973.14082908-.73431015-.08786011-1.04436016l-4.03682041-5.47315979c-.19049931-.25829029-.48383046-.40642071-.80477-.40642071m0-1.0000019c.60493231 0 1.2098651.27094745 1.60955.81284236l4.03681946 5.47315979c.9739008 1.32042027.03117085 3.18715001-1.60954952 3.18715001h-8.07363987c-1.64072037 0-2.58345032-1.86672974-1.60955048-3.18715001l4.03682041-5.47315979c.39968491-.54189491 1.0046177-.81284236 1.60955-.81284236z" fill="#657ba5"/></g><g fill="#689084" transform="translate(418.516 181.208)"><path d="m7.39750624 10.1506567h-4.16411996c-.52343989 0-1.00032997-.26576996-1.27567995-.71092987-.27535999-.44515991-.30019998-.99053955-.06646001-1.4588995l2.0820601-4.17187023c.25943017-.51982999.76117015-.83016992 1.34213996-.83016992s1.08270979.31033993 1.34214019.83017993l2.08205939 4.17186022c.2337408.46835995.20890045 1.01373959-.06645966 1.4588995-.27534961.44515991-.7522397.71092987-1.27568006.71092987z"/><path d="m5.31544638 3.47878742c-.38732004 0-.72180987.20689965-.89476014.55344963l-2.08206033 4.17187023c-.22460938.45005036-.04383946.83008957.04430008.97259999.08815002.14249992.34747028.47395038.85046053.47395038h4.16412019c.50298977 0 .76231003-.33145046.85046006-.47395038.08813953-.14251042.26890945-.52254963.04430008-.97259999l-2.08206034-4.17187023c-.17296028-.34654998-.50745011-.55344963-.89476013-.55344963m0-1.00000286c.71061754 0 1.42123508.36896801 1.78951978 1.10690212l2.08205986 4.17187024c.66362 1.32971-.30340004 2.89310073-1.78951931 2.89310073h-4.16412019c-1.48611975 0-2.45313979-1.56339073-1.78951979-2.89310073l2.08205986-4.17187024c.3682847-.73793411 1.07890224-1.10690212 1.78951979-1.10690212z" fill="#657ba5"/></g><ellipse cx="299.325" cy="201.166" opacity=".042" rx="7.614" ry=".672"/><g fill="#689084" transform="translate(290.85 190.611)"><path d="m12.0283289 9.95875168h-7.96665955c-.58445025 0-1.08752012-.31303024-1.34570026-.83735943-.25818992-.52433014-.19958997-1.11394024.15675997-1.57720041l3.98333001-5.17845011c.28619004-.37205994.71954012-.58544993 1.18894005-.58544993.46940041 0 .90275002.21338999 1.18894005.58544993l3.98332977 5.17845011c.35634995.46326017.41495037 1.05287027.15676022 1.57720041-.25817967.52432919-.7612505.83735943-1.34570026.83735943z"/><path d="m8.04499912 2.28029156c-.3129301 0-.60182953.14226055-.79263019.39030075l-3.98332978 5.17844963c-.2375698.3088398-.2766304.70191002-.10449981 1.0514698.17212009.34955025.50749969.55823994.89713001.55823994h7.96665955c.38963031 0 .72500991-.20868969.89713001-.55823994.17213058-.34955978.13306045-.74263-.10449982-1.0514698l-3.98332977-5.17844963c-.19079971-.2480402-.47970009-.39030075-.7926302-.39030075m0-1c.59248257 0 1.18496514.2602005 1.58525944.78060055l3.98333073 5.17844963c1.01169967 1.31525039.07407951 3.21940994-1.58526039 3.21940994h-7.96665955c-1.65933991 0-2.59696007-1.90415955-1.58526993-3.21940994l3.98333931-5.17844963c.40029526-.52040005.99277783-.78060055 1.58526039-.78060055z" fill="#657ba5"/></g><g fill="#689084" transform="translate(290.85 185.238)"><path d="m12.09444904 10.2466011h-8.09889984c-.58020019 0-1.08164-.3097496-1.34135008-.8285799-.25970006-.51882934-.20715999-1.10587978.1405499-1.57034969l4.04945016-5.40930009c.28595972-.38198996.72362995-.60106993 1.20079994-.60106993s.91483975.21907997 1.20079994.60106993l4.04944993 5.40930009c.3477106.46446991.40025043 1.05152035.14055061 1.57034969-.25971031.5188303-.76115036.8285799-1.34135056.8285799z"/><path d="m8.04499912 2.33730221c-.31811046 0-.60988998.1460495-.80053997.40071964l-4.04944992 5.40929985c-.23180008.30963993-.26683044.70100975-.09368992 1.04689026.17313958.34589005.50743008.5523901.89422989.5523901h8.09889984c.38679982 0 .72109032-.20650005.89422989-.5523901.17314053-.34588051.13811016-.73725033-.09368992-1.04689026l-4.04945945-5.40930939c-.19064045-.2546606-.48241997-.4007101-.80053044-.4007101m0-.99999809c.60055065 0 1.20110035.26714324 1.60106945.80142784l4.04945088 5.40929985c.98718929 1.31869983.0461998 3.19857025-1.60107041 3.19857025h-8.09889984c-1.6472702 0-2.58825969-1.87987042-1.6010704-3.19857025l4.04944992-5.40929985c.39997005-.5342846 1.0005207-.80142784 1.6010704-.80142784z" fill="#657ba5"/></g><g fill="#689084" transform="translate(293.627 179.289)"><path d="m7.46697235 10.05469894h-4.20728016c-.52566981 0-1.00361991-.26749992-1.27851987-.71555042-.27491009-.44806003-.2968601-.99533939-.05873-1.46396971l2.10363018-4.13982009c.26106978-.51375986.76097965-.82047987 1.33725977-.82047987s1.07619.30672001 1.33725977.82047987l2.10363007 4.13982009c.23813057.46863032.21617984 1.01590968-.05873013 1.46396971-.27489948.4480505-.75284958.71555042-1.27851963.71555042z"/><path d="m5.36333227 3.41487885c-.38419008 0-.71746015.20448017-.89151001.5469799l-2.10362959 4.1398201c-.22883033.45032978-.04885006.83255958.03914929.97599029.08800029.14342976.34722042.4770298.85235023.4770298h4.20728016c.50512982 0 .76434994-.33360004.85235024-.4770298.08799934-.14343071.26797962-.52566051.03915023-.97599029l-2.10363054-4.1398201c-.17404985-.34249973-.50731993-.5469799-.89151001-.5469799m0-1.00000287c.70620489 0 1.41241026.36465741 1.78301001 1.09397316l2.10363006 4.13981963c.67609978 1.33052015-.29055977 2.90603017-1.78299999 2.90603017h-4.20728016c-1.49244022 0-2.45909977-1.57551002-1.78299999-2.90603017l2.10363007-4.13981963c.37060022-.72931575 1.07680511-1.09397316 1.78301-1.09397316z" fill="#657ba5"/></g><path d="m-17450.312-7253.94v-41.4h8.344v16.7a8.337 8.337 0 0 0 8.344-8.344v-16.7a8.346 8.346 0 0 0 -8.344-8.343h-33.344a8.34 8.34 0 0 0 -8.312 8.343v16.7a8.33 8.33 0 0 0 8.313 8.344v-16.7h8.344v41.4h-41.656v-27.026a16.61 16.61 0 0 1 -8.344-14.378v-8.352a16.7 16.7 0 0 1 16.688-16.695h8.313a16.673 16.673 0 0 1 -16.656-16.695 16.68 16.68 0 0 1 16.656-16.7 16.615 16.615 0 0 1 9.047 2.7 24.971 24.971 0 0 1 24.3-19.4 24.984 24.984 0 0 1 24.3 19.4 16.537 16.537 0 0 1 9.047-2.7 16.7 16.7 0 0 1 16.656 16.7 16.693 16.693 0 0 1 -16.656 16.695h8.313a16.678 16.678 0 0 1 16.656 16.695v8.352a16.614 16.614 0 0 1 -8.312 14.378v27.026zm25.031-49.756v16.7a16.643 16.643 0 0 1 -8.344 14.378v10.668h16.656v-33.4h8.344v-8.352a8.346 8.346 0 0 0 -8.344-8.343h-10.641a16.5 16.5 0 0 1 2.32900000001 8.345zm-83.344 0v8.352h8.344v33.4h16.656v-10.668a16.587 16.587 0 0 1 -8.344-14.378v-16.7a16.488 16.488 0 0 1 2.313-8.343h-10.625a8.346 8.346 0 0 0 -8.34399999999 8.333zm83.344-16.695a16.6 16.6 0 0 1 -14.562-8.688 24.778 24.778 0 0 1 -18.781 8.688zm-33.344 0a24.786 24.786 0 0 1 -18.8-8.688 16.6 16.6 0 0 1 -14.547 8.688zm25-16.695a8.336 8.336 0 0 0 8.344 8.343 8.33 8.33 0 0 0 8.313-8.343 8.337 8.337 0 0 0 -8.312-8.352 8.343 8.343 0 0 0 -8.34499999999 8.352zm-41.687-8.352a16.7 16.7 0 0 0 16.688 16.695 16.673 16.673 0 0 0 16.656-16.695 16.678 16.678 0 0 0 -16.656-16.7 16.7 16.7 0 0 0 -16.68799999999 16.7zm-24.969 8.352a8.32 8.32 0 0 0 8.313 8.343 8.336 8.336 0 0 0 8.344-8.343 8.343 8.343 0 0 0 -8.344-8.352 8.327 8.327 0 0 0 -8.31299999999 8.352z" fill="#fff" transform="translate(17818.398 7523.607)"/><path d="m-18462.1-9266.032h-114.35a8.9 8.9 0 0 1 1.215-4.5l29.936-51.963a8.9 8.9 0 0 1 7.8-4.508 8.9 8.9 0 0 1 7.8 4.508l16.658 28.921 9.748-16.92a8.907 8.907 0 0 1 7.8-4.507 8.907 8.907 0 0 1 7.8 4.507l25.6 44.458z" fill="#596e96" transform="translate(19104 9457.035)"/><path d="m33.7 13.528a9 9 0 0 1 15.595 0l25.927 44.978a9 9 0 0 1 -7.797 13.494h-51.85a9 9 0 0 1 -7.8-13.494z" fill="#657ba5" transform="translate(525 134)"/><path d="m33.7 13.528a9 9 0 0 1 15.595 0l25.927 44.978a9 9 0 0 1 -7.797 13.494h-51.85a9 9 0 0 1 -7.8-13.494z" fill="#657ba5" transform="translate(567 146)"/><ellipse cx="149" cy="226" fill="#566684" rx="52" ry="8"/><ellipse cx="149" cy="229" fill="#647698" rx="40" ry="5"/><ellipse cx="541.5" cy="242" fill="#566684" rx="33.5" ry="8"/><ellipse cx="520.5" cy="237" fill="#566684" rx="33.5" ry="8"/><ellipse cx="567.5" cy="234" fill="#566684" rx="33.5" ry="8"/><ellipse cx="541.5" cy="245" fill="#647698" rx="25.5" ry="5"/><ellipse cx="520.5" cy="240" fill="#647698" rx="25.5" ry="5"/><ellipse cx="565.5" cy="237" fill="#647698" rx="25.5" ry="5"/></svg>