<svg xmlns="http://www.w3.org/2000/svg" xmlns:xlink="http://www.w3.org/1999/xlink" width="343.642" height="343.939" viewBox="0 0 343.642 343.939">
  <defs>
    <filter id="Прямоугольник_165" x="0" y="0" width="343.642" height="343.939" filterUnits="userSpaceOnUse">
      <feOffset dy="2" input="SourceAlpha"/>
      <feGaussianBlur stdDeviation="24" result="blur"/>
      <feFlood flood-opacity="0.078"/>
      <feComposite operator="in" in2="blur"/>
      <feComposite in="SourceGraphic"/>
    </filter>
  </defs>
  <g id="image-3" transform="translate(72.652 70.28)">
    <g transform="matrix(1, 0, 0, 1, -72.65, -70.28)" filter="url(#Прямоугольник_165)">
      <rect id="Прямоугольник_165-2" data-name="Прямоугольник 165" width="199.641" height="199.939" transform="translate(72 70)" fill="#08142c"/>
    </g>
    <path id="Контур_81" data-name="Контур 81" d="M-19451.008-7419.917a.883.883,0,0,1,.645-1.075.884.884,0,0,1,1.072.646.886.886,0,0,1-.645,1.072.916.916,0,0,1-.217.027A.884.884,0,0,1-19451.008-7419.917Zm-37.91-3.759a.891.891,0,0,1,.645-1.074.882.882,0,0,1,1.074.646.89.89,0,0,1-.645,1.075.9.9,0,0,1-.211.026A.892.892,0,0,1-19488.918-7423.677Zm-27.957-6.243a.886.886,0,0,1,.645-1.075.889.889,0,0,1,1.072.646.884.884,0,0,1-.645,1.075.9.9,0,0,1-.217.027A.881.881,0,0,1-19516.875-7429.919Zm77.322-2.925a1,1,0,0,1-.525-1.3.988.988,0,0,1,1.3-.526.993.993,0,0,1,.527,1.3.994.994,0,0,1-.914.6A.987.987,0,0,1-19439.553-7432.844Zm-113.139-20.881a.884.884,0,0,1,.645-1.075.888.888,0,0,1,1.072.646.888.888,0,0,1-.646,1.075.866.866,0,0,1-.211.026A.882.882,0,0,1-19552.691-7453.726Zm145.629-14.6a.988.988,0,0,1-.525-1.3.987.987,0,0,1,1.295-.526.99.99,0,0,1,.525,1.3.988.988,0,0,1-.91.6A.987.987,0,0,1-19407.062-7468.325Zm-79.91-17.869a.991.991,0,0,1-.523-1.3.988.988,0,0,1,1.3-.526.992.992,0,0,1,.525,1.3.987.987,0,0,1-.91.6A1.016,1.016,0,0,1-19486.973-7486.194Zm17.367-8.421a.881.881,0,0,1,.645-1.075.883.883,0,0,1,1.072.646.885.885,0,0,1-.646,1.071.876.876,0,0,1-.215.027A.886.886,0,0,1-19469.605-7494.615Z" transform="translate(19590.559 7524.401)" fill="#fff"/>
    <path id="Контур_80" data-name="Контур 80" d="M-19434.383-7419.388a.993.993,0,0,1,.025-1.4.988.988,0,0,1,1.4.022.989.989,0,0,1-.027,1.4.967.967,0,0,1-.686.28A.99.99,0,0,1-19434.383-7419.388Zm-90.744-8.142a.993.993,0,0,1,.025-1.4.989.989,0,0,1,1.4.022.994.994,0,0,1-.025,1.406.979.979,0,0,1-.684.276A1,1,0,0,1-19525.127-7427.53Zm-21.324-5.1a1,1,0,0,1,.023-1.405.989.989,0,0,1,1.4.025.99.99,0,0,1-.021,1.4,1,1,0,0,1-.689.278A.987.987,0,0,1-19546.451-7432.634Zm-5.652-39.443a1,1,0,0,1,.027-1.406.99.99,0,0,1,1.4.026.991.991,0,0,1-.025,1.4.975.975,0,0,1-.686.28A1,1,0,0,1-19552.1-7472.077Zm33.426-21.621a.991.991,0,0,1,.027-1.4.99.99,0,0,1,1.4.022.994.994,0,0,1-.025,1.405.982.982,0,0,1-.686.279A.994.994,0,0,1-19518.678-7493.7Z" transform="translate(19614.883 7509.339)" fill="#fff" opacity="0.638"/>
    <path id="Контур_82" data-name="Контур 82" d="M-17518.861-7236.813q-2.083-.267-4.139-.544v-80.758c61.848-3.041,135.838-3.171,199.5-.425v81.727Z" transform="translate(17522.848 7436.532)" fill="#596e96"/>
    <path id="Контур_83" data-name="Контур 83" d="M-17523-7233.933v-73.495c31.779-2.926,67.547-4.57,105.365-4.57,33.43,0,65.248,1.284,94.135,3.6v74.462Z" transform="translate(17522.848 7433.653)" fill="#657ba5"/>
    <ellipse id="Эллипс_99" data-name="Эллипс 99" cx="20.037" cy="2.554" rx="20.037" ry="2.554" transform="translate(104.269 163.174)" opacity="0.192"/>
    <ellipse id="Эллипс_100" data-name="Эллипс 100" cx="9.472" cy="2.189" rx="9.472" ry="2.189" transform="translate(169.116 134.715)" opacity="0.192"/>
    <g id="Сгруппировать_297" data-name="Сгруппировать 297" transform="translate(166.202 105.528)">
      <g id="Многоугольник_8" data-name="Многоугольник 8" transform="translate(0 16.054)" fill="#6ca565">
        <path d="M 15.8221263885498 14.82379817962646 L 8.222286224365234 14.82379817962646 C 6.851296424865723 14.82379817962646 5.674716472625732 14.0877685546875 5.07495641708374 12.85491847991943 C 4.475196361541748 11.62206840515137 4.622356414794922 10.24206829071045 5.468606472015381 9.163417816162109 L 9.268526077270508 4.319948196411133 C 9.936446189880371 3.468598365783691 10.94012641906738 2.980328321456909 12.02220630645752 2.980328321456909 C 13.10428619384766 2.980328321456909 14.10796642303467 3.468598365783691 14.77588653564453 4.319948196411133 L 18.5758056640625 9.163417816162109 C 19.42205619812012 10.24206829071045 19.56921577453613 11.62206840515137 18.96945571899414 12.85491847991943 C 18.36969566345215 14.0877685546875 17.19311714172363 14.82379817962646 15.8221263885498 14.82379817962646 Z" stroke="none"/>
        <path d="M 12.02220630645752 3.480328559875488 C 11.09470653533936 3.480328559875488 10.23440647125244 3.898848533630371 9.661916732788086 4.628568649291992 L 5.861995697021484 9.472038269042969 C 5.136636734008789 10.39659881591797 5.010496139526367 11.57945823669434 5.524576187133789 12.63618850708008 C 6.038656234741211 13.69291877746582 7.047145843505859 14.32379817962646 8.222286224365234 14.32379817962646 L 15.8221263885498 14.32379817962646 C 16.99726676940918 14.32379817962646 18.00575637817383 13.69291877746582 18.51983642578125 12.63618850708008 C 19.03391647338867 11.57945823669434 18.90777587890625 10.39659881591797 18.18241691589355 9.472038269042969 L 14.38250637054443 4.628578186035156 C 13.80999660491943 3.898848533630371 12.94969654083252 3.480328559875488 12.02220630645752 3.480328559875488 M 12.02220630645752 2.480328559875488 C 13.1953592300415 2.480328559875488 14.36851119995117 2.990657806396484 15.16926670074463 4.011318206787109 L 18.96918678283691 8.854787826538086 C 21.0285758972168 11.47973823547363 19.15850639343262 15.32379817962646 15.8221263885498 15.32379817962646 L 8.222286224365234 15.32379817962646 C 4.885906219482422 15.32379817962646 3.015836715698242 11.47973823547363 5.075225830078125 8.854787826538086 L 8.87514591217041 4.011318206787109 C 9.675901412963867 2.990657806396484 10.84905338287354 2.480328559875488 12.02220630645752 2.480328559875488 Z" stroke="none" fill="#657ba5"/>
      </g>
      <g id="Многоугольник_9" data-name="Многоугольник 9" transform="translate(0 8.756)" fill="#6ca565">
        <path d="M 15.8221263885498 14.82379817962646 L 8.222286224365234 14.82379817962646 C 6.851296424865723 14.82379817962646 5.674716472625732 14.0877685546875 5.07495641708374 12.85491847991943 C 4.475196361541748 11.62206840515137 4.622356414794922 10.24206829071045 5.468606472015381 9.163417816162109 L 9.268526077270508 4.319948196411133 C 9.936446189880371 3.468598365783691 10.94012641906738 2.980328321456909 12.02220630645752 2.980328321456909 C 13.10428619384766 2.980328321456909 14.10796642303467 3.468598365783691 14.77588653564453 4.319948196411133 L 18.5758056640625 9.163417816162109 C 19.42205619812012 10.24206829071045 19.56921577453613 11.62206840515137 18.96945571899414 12.85491847991943 C 18.36969566345215 14.0877685546875 17.19311714172363 14.82379817962646 15.8221263885498 14.82379817962646 Z" stroke="none"/>
        <path d="M 12.02220630645752 3.480328559875488 C 11.09470653533936 3.480328559875488 10.23440647125244 3.898848533630371 9.661916732788086 4.628568649291992 L 5.861995697021484 9.472038269042969 C 5.136636734008789 10.39659881591797 5.010496139526367 11.57945823669434 5.524576187133789 12.63618850708008 C 6.038656234741211 13.69291877746582 7.047145843505859 14.32379817962646 8.222286224365234 14.32379817962646 L 15.8221263885498 14.32379817962646 C 16.99726676940918 14.32379817962646 18.00575637817383 13.69291877746582 18.51983642578125 12.63618850708008 C 19.03391647338867 11.57945823669434 18.90777587890625 10.39659881591797 18.18241691589355 9.472038269042969 L 14.38250637054443 4.628578186035156 C 13.80999660491943 3.898848533630371 12.94969654083252 3.480328559875488 12.02220630645752 3.480328559875488 M 12.02220630645752 2.480328559875488 C 13.1953592300415 2.480328559875488 14.36851119995117 2.990657806396484 15.16926670074463 4.011318206787109 L 18.96918678283691 8.854787826538086 C 21.0285758972168 11.47973823547363 19.15850639343262 15.32379817962646 15.8221263885498 15.32379817962646 L 8.222286224365234 15.32379817962646 C 4.885906219482422 15.32379817962646 3.015836715698242 11.47973823547363 5.075225830078125 8.854787826538086 L 8.87514591217041 4.011318206787109 C 9.675901412963867 2.990657806396484 10.84905338287354 2.480328559875488 12.02220630645752 2.480328559875488 Z" stroke="none" fill="#657ba5"/>
      </g>
      <g id="Многоугольник_10" data-name="Многоугольник 10" transform="translate(4.372 0)" fill="#6ca565">
        <path d="M 8.833164215087891 14.82379722595215 L 6.46783447265625 14.82379722595215 C 5.246374607086182 14.82379722595215 4.133574485778809 14.20358657836914 3.491104602813721 13.16474723815918 C 2.848634481430054 12.12589645385742 2.790794610977173 10.85324668884277 3.33640456199646 9.760406494140625 L 4.519074440002441 7.391556739807129 C 5.124494552612305 6.178906917572021 6.295114517211914 5.454936981201172 7.650494575500488 5.454936981201172 C 9.005874633789062 5.454936981201172 10.17649459838867 6.178906917572021 10.78191471099854 7.391556739807129 L 11.96458435058594 9.760406494140625 C 12.51019477844238 10.85324668884277 12.45235443115234 12.12589645385742 11.80988502502441 13.16474723815918 C 11.16741466522217 14.20358657836914 10.05462455749512 14.82379722595215 8.833164215087891 14.82379722595215 Z" stroke="none"/>
        <path d="M 7.650494575500488 5.954936981201172 C 6.488744735717773 5.954936981201172 5.485354423522949 6.57548713684082 4.966414451599121 7.614896774291992 L 3.783744812011719 9.983746528625488 C 3.316084861755371 10.92046642303467 3.365654945373535 12.01130676269531 3.916354179382324 12.90174674987793 C 4.467044830322266 13.79218673706055 5.420864105224609 14.32379722595215 6.46783447265625 14.32379722595215 L 8.833164215087891 14.32379722595215 C 9.880125045776367 14.32379722595215 10.83395481109619 13.79218673706055 11.38463401794434 12.90175628662109 C 11.93533515930176 12.01130676269531 11.98490428924561 10.92046642303467 11.51724433898926 9.983746528625488 L 10.33457469940186 7.614896774291992 C 9.815634727478027 6.57548713684082 8.812244415283203 5.954936981201172 7.650494575500488 5.954936981201172 M 7.650494575500488 4.954936981201172 C 9.071549415588379 4.954936981201172 10.49260520935059 5.692696571350098 11.2292652130127 7.168216705322266 L 12.4119348526001 9.537066459655762 C 13.73968505859375 12.19653701782227 11.80564498901367 15.32379722595215 8.833164215087891 15.32379722595215 L 6.46783447265625 15.32379722595215 C 3.495344161987305 15.32379722595215 1.561305046081543 12.19653701782227 2.889054298400879 9.537066459655762 L 4.071724891662598 7.168216705322266 C 4.808384895324707 5.692696571350098 6.229439735412598 4.954936981201172 7.650494575500488 4.954936981201172 Z" stroke="none" fill="#657ba5"/>
      </g>
    </g>
    <ellipse id="Эллипс_101" data-name="Эллипс 101" cx="7.65" cy="0.365" rx="7.65" ry="0.365" transform="translate(145.071 132.526)" opacity="0.042"/>
    <g id="Сгруппировать_298" data-name="Сгруппировать 298" transform="translate(144.343 111.366)">
      <g id="Многоугольник_8-2" data-name="Многоугольник 8" transform="translate(0 10.946)" fill="#689084">
        <path d="M 12.08627414703369 10.44556713104248 L 3.943333864212036 10.44556713104248 C 3.366553783416748 10.44556713104248 2.866453886032104 10.13846778869629 2.605553865432739 9.624067306518555 C 2.344663858413696 9.109667778015137 2.392343997955322 8.524737358093262 2.733093976974487 8.05938720703125 L 6.804563999176025 2.499107360839844 C 7.090203762054443 2.109017372131348 7.531313896179199 1.885297417640686 8.014803886413574 1.885297417640686 C 8.498293876647949 1.885297417640686 8.939403533935547 2.109017372131348 9.225044250488281 2.499107360839844 L 13.29651355743408 8.05938720703125 C 13.63726425170898 8.524737358093262 13.68494415283203 9.109667778015137 13.42405414581299 9.624067306518555 C 13.16315364837646 10.13846778869629 12.66305351257324 10.44556713104248 12.08627414703369 10.44556713104248 Z" stroke="none"/>
        <path d="M 8.014804840087891 2.385287284851074 C 7.692484855651855 2.385287284851074 7.398405075073242 2.53443717956543 7.207974433898926 2.794497489929199 L 3.136505126953125 8.354777336120605 C 2.909335136413574 8.665017127990723 2.877554893493652 9.054967880249023 3.051485061645508 9.397897720336914 C 3.225415229797363 9.740827560424805 3.558815002441406 9.94556713104248 3.943334579467773 9.94556713104248 L 12.08627510070801 9.94556713104248 C 12.47079467773438 9.94556713104248 12.80419540405273 9.740827560424805 12.97812461853027 9.397897720336914 C 13.15205478668213 9.054967880249023 13.12027454376221 8.665017127990723 12.89310455322266 8.354777336120605 L 8.821634292602539 2.794497489929199 C 8.631204605102539 2.53443717956543 8.337124824523926 2.385287284851074 8.014804840087891 2.385287284851074 M 8.014804840087891 1.385292053222656 C 8.621870040893555 1.385292053222656 9.228935241699219 1.658097267150879 9.628454208374023 2.203707695007324 L 13.69992446899414 7.76398754119873 C 14.66737461090088 9.085197448730469 13.7238245010376 10.94556713104248 12.08627510070801 10.94556713104248 L 3.943334579467773 10.94556713104248 C 2.305785179138184 10.94556713104248 1.362235069274902 9.085197448730469 2.329685211181641 7.76398754119873 L 6.401154518127441 2.203707695007324 C 6.800674438476562 1.658097267150879 7.407739639282227 1.385292053222656 8.014804840087891 1.385292053222656 Z" stroke="none" fill="#657ba5"/>
      </g>
      <g id="Многоугольник_9-2" data-name="Многоугольник 9" transform="translate(0 5.838)" fill="#689084">
        <path d="M 11.91846370697021 9.715862274169922 L 4.111144065856934 9.715862274169922 C 3.523573875427246 9.715862274169922 3.019323825836182 9.400422096252441 2.762283802032471 8.872052192687988 C 2.50524377822876 8.343691825866699 2.568313837051392 7.752262115478516 2.930993795394897 7.289991855621338 L 6.834653854370117 2.314291954040527 C 7.120886325836182 1.949444174766541 7.551053047180176 1.740171909332275 8.0147705078125 1.740171909332275 C 8.014799118041992 1.740171909332275 8.014775276184082 1.740171909332275 8.014803886413574 1.740171909332275 C 8.478553771972656 1.740161895751953 8.908703804016113 1.949421882629395 9.194953918457031 2.314291954040527 L 13.09861373901367 7.289991855621338 C 13.46129417419434 7.752262115478516 13.52436351776123 8.343691825866699 13.26732349395752 8.872052192687988 C 13.01028347015381 9.400422096252441 12.5060338973999 9.715862274169922 11.91846370697021 9.715862274169922 Z" stroke="none"/>
        <path d="M 8.014804840087891 2.240161895751953 C 7.705635070800781 2.240161895751953 7.418874740600586 2.379672050476074 7.228044509887695 2.62291145324707 L 3.324375152587891 7.598621845245361 C 3.082594871520996 7.906802177429199 3.040544509887695 8.301081657409668 3.211904525756836 8.653322219848633 C 3.383264541625977 9.005561828613281 3.71943473815918 9.215862274169922 4.11114501953125 9.215862274169922 L 11.91846466064453 9.215862274169922 C 12.3101749420166 9.215862274169922 12.6463451385498 9.005561828613281 12.81770515441895 8.653322219848633 C 12.98906517028809 8.301081657409668 12.94701480865479 7.906802177429199 12.70522499084473 7.598611831665039 L 8.80157470703125 2.622921943664551 C 8.610734939575195 2.379672050476074 8.323965072631836 2.240161895751953 8.014804840087891 2.240161895751953 M 8.014804840087891 1.240166664123535 C 8.601382255554199 1.240166664123535 9.187959671020508 1.495331764221191 9.588335037231445 2.005661964416504 L 13.49199485778809 6.981361865997314 C 14.52169513702393 8.293831825256348 13.58665466308594 10.21586227416992 11.91846466064453 10.21586227416992 L 4.11114501953125 10.21586227416992 C 2.442955017089844 10.21586227416992 1.507914543151855 8.293831825256348 2.537614822387695 6.981361865997314 L 6.441274642944336 2.005661964416504 C 6.841650009155273 1.495331764221191 7.428227424621582 1.240166664123535 8.014804840087891 1.240166664123535 Z" stroke="none" fill="#657ba5"/>
      </g>
      <g id="Многоугольник_10-2" data-name="Многоугольник 10" transform="translate(2.914 0)" fill="#689084">
        <path d="M 6.966749668121338 9.715867042541504 L 3.233909845352173 9.715867042541504 C 2.710429906845093 9.715867042541504 2.233519792556763 9.450066566467285 1.9581698179245 9.004846572875977 C 1.682829856872559 8.559626579284668 1.658039927482605 8.014206886291504 1.891879916191101 7.545846462249756 L 3.758289813995361 3.807446718215942 C 4.017749786376953 3.287736654281616 4.519449710845947 2.977466583251953 5.100329875946045 2.977466583251953 C 5.681210041046143 2.977466583251953 6.182909965515137 3.287736654281616 6.442369937896729 3.807446718215942 L 8.308779716491699 7.545846462249756 C 8.542619705200195 8.014206886291504 8.517829895019531 8.559626579284668 8.242489814758301 9.004846572875977 C 7.967139720916748 9.450066566467285 7.490230083465576 9.715867042541504 6.966749668121338 9.715867042541504 Z" stroke="none"/>
        <path d="M 5.100329875946045 3.477466583251953 C 4.713079929351807 3.477466583251953 4.378609657287598 3.684316635131836 4.205629825592041 4.030786514282227 L 2.33922004699707 7.769186496734619 C 2.114529609680176 8.219246864318848 2.295279979705811 8.599327087402344 2.383419990539551 8.741846084594727 C 2.471560001373291 8.884376525878906 2.730879783630371 9.215866088867188 3.233910083770752 9.215866088867188 L 6.966750144958496 9.215866088867188 C 7.469779968261719 9.215866088867188 7.729100227355957 8.884376525878906 7.817239761352539 8.741846084594727 C 7.905379772186279 8.599327087402344 8.086130142211914 8.219246864318848 7.86143970489502 7.769186496734619 L 5.995029926300049 4.030786514282227 C 5.822050094604492 3.684316635131836 5.487579822540283 3.477466583251953 5.100329875946045 3.477466583251953 M 5.100329875946045 2.477466583251953 C 5.810859680175781 2.477466583251953 6.521389961242676 2.846346855163574 6.88971996307373 3.5841064453125 L 8.756130218505859 7.322506904602051 C 9.420009613037109 8.652236938476562 8.45298957824707 10.21586608886719 6.966750144958496 10.21586608886719 L 3.233910083770752 10.21586608886719 C 1.74767017364502 10.21586608886719 0.7806501388549805 8.652236938476562 1.44452953338623 7.322506904602051 L 3.310939788818359 3.5841064453125 C 3.679269790649414 2.846346855163574 4.389800071716309 2.477466583251953 5.100329875946045 2.477466583251953 Z" stroke="none" fill="#657ba5"/>
      </g>
    </g>
    <ellipse id="Эллипс_102" data-name="Эллипс 102" cx="7.65" cy="0.73" rx="7.65" ry="0.73" transform="translate(20.478 130.337)" opacity="0.042"/>
    <g id="Сгруппировать_299" data-name="Сгруппировать 299" transform="translate(19.749 109.176)">
      <g id="Многоугольник_8-3" data-name="Многоугольник 8" transform="translate(0 10.946)" fill="#689084">
        <path d="M 12.08627414703369 10.44556713104248 L 3.943333864212036 10.44556713104248 C 3.366553783416748 10.44556713104248 2.866453886032104 10.13846778869629 2.605553865432739 9.624067306518555 C 2.344663858413696 9.109667778015137 2.392343997955322 8.524737358093262 2.733093976974487 8.05938720703125 L 6.804563999176025 2.499107360839844 C 7.090203762054443 2.109017372131348 7.531313896179199 1.885297417640686 8.014803886413574 1.885297417640686 C 8.498293876647949 1.885297417640686 8.939403533935547 2.109017372131348 9.225044250488281 2.499107360839844 L 13.29651355743408 8.05938720703125 C 13.63726425170898 8.524737358093262 13.68494415283203 9.109667778015137 13.42405414581299 9.624067306518555 C 13.16315364837646 10.13846778869629 12.66305351257324 10.44556713104248 12.08627414703369 10.44556713104248 Z" stroke="none"/>
        <path d="M 8.014804840087891 2.385287284851074 C 7.692484855651855 2.385287284851074 7.398405075073242 2.53443717956543 7.207974433898926 2.794497489929199 L 3.136505126953125 8.354777336120605 C 2.909335136413574 8.665017127990723 2.877554893493652 9.054967880249023 3.051485061645508 9.397897720336914 C 3.225415229797363 9.740827560424805 3.558815002441406 9.94556713104248 3.943334579467773 9.94556713104248 L 12.08627510070801 9.94556713104248 C 12.47079467773438 9.94556713104248 12.80419540405273 9.740827560424805 12.97812461853027 9.397897720336914 C 13.15205478668213 9.054967880249023 13.12027454376221 8.665017127990723 12.89310455322266 8.354777336120605 L 8.821634292602539 2.794497489929199 C 8.631204605102539 2.53443717956543 8.337124824523926 2.385287284851074 8.014804840087891 2.385287284851074 M 8.014804840087891 1.385292053222656 C 8.621870040893555 1.385292053222656 9.228935241699219 1.658097267150879 9.628454208374023 2.203707695007324 L 13.69992446899414 7.76398754119873 C 14.66737461090088 9.085197448730469 13.7238245010376 10.94556713104248 12.08627510070801 10.94556713104248 L 3.943334579467773 10.94556713104248 C 2.305785179138184 10.94556713104248 1.362235069274902 9.085197448730469 2.329685211181641 7.76398754119873 L 6.401154518127441 2.203707695007324 C 6.800674438476562 1.658097267150879 7.407739639282227 1.385292053222656 8.014804840087891 1.385292053222656 Z" stroke="none" fill="#657ba5"/>
      </g>
      <g id="Многоугольник_9-3" data-name="Многоугольник 9" transform="translate(0 5.838)" fill="#689084">
        <path d="M 12.08627414703369 10.44556713104248 L 3.943333864212036 10.44556713104248 C 3.366553783416748 10.44556713104248 2.866453886032104 10.13846778869629 2.605553865432739 9.624067306518555 C 2.344663858413696 9.109667778015137 2.392343997955322 8.524737358093262 2.733093976974487 8.05938720703125 L 6.804563999176025 2.499107360839844 C 7.090203762054443 2.109017372131348 7.531313896179199 1.885297417640686 8.014803886413574 1.885297417640686 C 8.498293876647949 1.885297417640686 8.939403533935547 2.109017372131348 9.225044250488281 2.499107360839844 L 13.29651355743408 8.05938720703125 C 13.63726425170898 8.524737358093262 13.68494415283203 9.109667778015137 13.42405414581299 9.624067306518555 C 13.16315364837646 10.13846778869629 12.66305351257324 10.44556713104248 12.08627414703369 10.44556713104248 Z" stroke="none"/>
        <path d="M 8.014804840087891 2.385287284851074 C 7.692484855651855 2.385287284851074 7.398405075073242 2.53443717956543 7.207974433898926 2.794497489929199 L 3.136505126953125 8.354777336120605 C 2.909335136413574 8.665017127990723 2.877554893493652 9.054967880249023 3.051485061645508 9.397897720336914 C 3.225415229797363 9.740827560424805 3.558815002441406 9.94556713104248 3.943334579467773 9.94556713104248 L 12.08627510070801 9.94556713104248 C 12.47079467773438 9.94556713104248 12.80419540405273 9.740827560424805 12.97812461853027 9.397897720336914 C 13.15205478668213 9.054967880249023 13.12027454376221 8.665017127990723 12.89310455322266 8.354777336120605 L 8.821634292602539 2.794497489929199 C 8.631204605102539 2.53443717956543 8.337124824523926 2.385287284851074 8.014804840087891 2.385287284851074 M 8.014804840087891 1.385292053222656 C 8.621870040893555 1.385292053222656 9.228935241699219 1.658097267150879 9.628454208374023 2.203707695007324 L 13.69992446899414 7.76398754119873 C 14.66737461090088 9.085197448730469 13.7238245010376 10.94556713104248 12.08627510070801 10.94556713104248 L 3.943334579467773 10.94556713104248 C 2.305785179138184 10.94556713104248 1.362235069274902 9.085197448730469 2.329685211181641 7.76398754119873 L 6.401154518127441 2.203707695007324 C 6.800674438476562 1.658097267150879 7.407739639282227 1.385292053222656 8.014804840087891 1.385292053222656 Z" stroke="none" fill="#657ba5"/>
      </g>
      <g id="Многоугольник_10-3" data-name="Многоугольник 10" transform="translate(2.186 0)" fill="#689084">
        <path d="M 7.59128999710083 9.715867042541504 L 3.337990045547485 9.715867042541504 C 2.805810213088989 9.715867042541504 2.324800252914429 9.443326950073242 2.05128002166748 8.986817359924316 C 1.777760148048401 8.530306816101074 1.764320135116577 7.977617263793945 2.015340089797974 7.508357048034668 L 4.141980171203613 3.532697200775146 C 4.40742015838623 3.0364670753479 4.901870250701904 2.740207195281982 5.464640140533447 2.740207195281982 C 6.027400016784668 2.740207195281982 6.521850109100342 3.036457061767578 6.787290096282959 3.532697200775146 L 8.9139404296875 7.508357048034668 C 9.164959907531738 7.977617263793945 9.151519775390625 8.530306816101074 8.878000259399414 8.986817359924316 C 8.604479789733887 9.443326950073242 8.123470306396484 9.715867042541504 7.59128999710083 9.715867042541504 Z" stroke="none"/>
        <path d="M 5.464640140533447 3.240206718444824 C 5.28449010848999 3.240206718444824 4.837930202484131 3.29168701171875 4.582859992980957 3.768527030944824 L 2.456219673156738 7.744196891784668 C 2.215009689331055 8.195116996765137 2.392620086669922 8.583697319030762 2.480179786682129 8.729837417602539 C 2.567740440368652 8.875967025756836 2.826610565185547 9.215867042541504 3.337990283966064 9.215867042541504 L 7.591290473937988 9.215867042541504 C 8.102670669555664 9.215867042541504 8.361539840698242 8.875967025756836 8.449100494384766 8.729837417602539 C 8.536660194396973 8.583697319030762 8.714269638061523 8.195116996765137 8.473060607910156 7.744196891784668 L 6.346400260925293 3.768527030944824 C 6.091340065002441 3.29168701171875 5.644790172576904 3.240206718444824 5.464640140533447 3.240206718444824 M 5.464638710021973 2.240204811096191 C 6.158005237579346 2.240204811096191 6.851370334625244 2.592422485351562 7.228179931640625 3.296856880187988 L 9.354829788208008 7.272517204284668 C 10.06750011444092 8.604806900024414 9.10221004486084 10.2158670425415 7.591290473937988 10.2158670425415 L 3.337990283966064 10.2158670425415 C 1.827070236206055 10.2158670425415 0.8617801666259766 8.604806900024414 1.574450492858887 7.272517204284668 L 3.701090335845947 3.296856880187988 C 4.077905178070068 2.592422485351562 4.771272659301758 2.240204811096191 5.464638710021973 2.240204811096191 Z" stroke="none" fill="#657ba5"/>
      </g>
    </g>
    <ellipse id="Эллипс_103" data-name="Эллипс 103" cx="12.751" cy="1.824" rx="12.751" ry="1.824" transform="translate(75.124 152.958)" opacity="0.109"/>
    <g id="Сгруппировать_300" data-name="Сгруппировать 300" transform="translate(71.5 90.663)">
      <path id="Контур_52" data-name="Контур 52" d="M-19544.738-7432.03v-15.6a8.528,8.528,0,0,1-5.85-2.616,8.545,8.545,0,0,1-2.412-5.971v-7.638a8.23,8.23,0,0,1,.65-3.221,8.154,8.154,0,0,1,1.771-2.631,8.168,8.168,0,0,1,2.623-1.773,8.244,8.244,0,0,1,3.217-.649h5.178a11.794,11.794,0,0,1-1.934-.633,12.079,12.079,0,0,1-3.84-2.591,12.009,12.009,0,0,1-2.586-3.845,12.038,12.038,0,0,1-.949-4.708,12.035,12.035,0,0,1,.949-4.707,12.009,12.009,0,0,1,2.586-3.845,12.128,12.128,0,0,1,3.84-2.591,11.979,11.979,0,0,1,4.7-.951,11.962,11.962,0,0,1,4.7.951,12,12,0,0,1,3.84,2.591,12.111,12.111,0,0,1,2.588,3.845,12.035,12.035,0,0,1,.949,4.707,12.038,12.038,0,0,1-.949,4.708,12.111,12.111,0,0,1-2.588,3.845,11.99,11.99,0,0,1-3.84,2.591,11.677,11.677,0,0,1-1.934.633h5.176a8.242,8.242,0,0,1,3.221.649,8.284,8.284,0,0,1,2.625,1.773,8.3,8.3,0,0,1,1.771,2.631,8.25,8.25,0,0,1,.648,3.221v7.319a8.884,8.884,0,0,1-2.3,5.975,8.865,8.865,0,0,1-5.648,2.885v15.647Zm4.135-20.051v16.231h7.941v-24.5h4.131v8.262a4.424,4.424,0,0,0,2.83-1.292,4.433,4.433,0,0,0,1.3-3.152v-7.319a4.43,4.43,0,0,0-1.3-3.15,4.427,4.427,0,0,0-3.15-1.305h-15.564a4.419,4.419,0,0,0-3.148,1.305,4.424,4.424,0,0,0-1.3,3.15v7.319a4.431,4.431,0,0,0,1.3,3.152,4.433,4.433,0,0,0,2.826,1.292v-8.262h4.129v8.273Zm.6-39.45a8.233,8.233,0,0,0-2.627,1.773,8.21,8.21,0,0,0-1.771,2.633,8.156,8.156,0,0,0-.648,3.219,8.156,8.156,0,0,0,.648,3.221,8.192,8.192,0,0,0,1.771,2.63,8.187,8.187,0,0,0,2.627,1.774,8.18,8.18,0,0,0,3.215.649,8.18,8.18,0,0,0,3.215-.649,8.182,8.182,0,0,0,2.627-1.774,8.224,8.224,0,0,0,1.77-2.63,8.218,8.218,0,0,0,.65-3.221,8.213,8.213,0,0,0-.65-3.219,8.22,8.22,0,0,0-1.77-2.633,8.283,8.283,0,0,0-2.627-1.773,8.206,8.206,0,0,0-3.215-.649A8.206,8.206,0,0,0-19540.008-7491.532Z" transform="translate(19553 7496)" fill="#d0d6e3"/>
      <path id="Icon_awesome-medal" data-name="Icon awesome-medal" d="M6.929,4.055,4.788.482A.99.99,0,0,0,3.938,0H.5A.5.5,0,0,0,.09.781L3.536,5.71A6.4,6.4,0,0,1,6.929,4.055ZM15.358,0H11.916a.991.991,0,0,0-.85.482L8.926,4.055A6.407,6.407,0,0,1,12.318,5.71L15.764.781A.5.5,0,0,0,15.358,0ZM7.927,4.962a5.458,5.458,0,1,0,5.45,5.458A5.454,5.454,0,0,0,7.927,4.962Zm2.865,4.877L9.618,10.985,9.9,12.6a.356.356,0,0,1-.516.375l-1.453-.764-1.452.764a.355.355,0,0,1-.516-.375l.278-1.619L5.063,9.839a.356.356,0,0,1,.2-.608l1.624-.237.726-1.474a.356.356,0,0,1,.638,0l.726,1.474,1.624.237a.356.356,0,0,1,.2.608Z" transform="translate(8.279 23.715)" fill="#f5f5f5"/>
    </g>
    <ellipse id="Эллипс_104" data-name="Эллипс 104" cx="12.751" cy="1.824" rx="12.751" ry="1.824" transform="translate(48.894 152.958)" opacity="0.109"/>
    <ellipse id="Эллипс_105" data-name="Эллипс 105" cx="13.115" cy="1.824" rx="13.115" ry="1.824" transform="translate(21.935 152.958)" opacity="0.109"/>
    <g id="Сгруппировать_301" data-name="Сгруппировать 301" transform="translate(18.652 90.663)">
      <path id="Контур_52-2" data-name="Контур 52" d="M-19544.738-7432.03v-15.6a8.528,8.528,0,0,1-5.85-2.616,8.545,8.545,0,0,1-2.412-5.971v-7.638a8.23,8.23,0,0,1,.65-3.221,8.154,8.154,0,0,1,1.771-2.631,8.168,8.168,0,0,1,2.623-1.773,8.244,8.244,0,0,1,3.217-.649h5.178a11.794,11.794,0,0,1-1.934-.633,12.079,12.079,0,0,1-3.84-2.591,12.009,12.009,0,0,1-2.586-3.845,12.038,12.038,0,0,1-.949-4.708,12.035,12.035,0,0,1,.949-4.707,12.009,12.009,0,0,1,2.586-3.845,12.128,12.128,0,0,1,3.84-2.591,11.979,11.979,0,0,1,4.7-.951,11.962,11.962,0,0,1,4.7.951,12,12,0,0,1,3.84,2.591,12.111,12.111,0,0,1,2.588,3.845,12.035,12.035,0,0,1,.949,4.707,12.038,12.038,0,0,1-.949,4.708,12.111,12.111,0,0,1-2.588,3.845,11.99,11.99,0,0,1-3.84,2.591,11.677,11.677,0,0,1-1.934.633h5.176a8.242,8.242,0,0,1,3.221.649,8.284,8.284,0,0,1,2.625,1.773,8.3,8.3,0,0,1,1.771,2.631,8.25,8.25,0,0,1,.648,3.221v7.319a8.884,8.884,0,0,1-2.3,5.975,8.865,8.865,0,0,1-5.648,2.885v15.647Zm4.135-20.051v16.231h7.941v-24.5h4.131v8.262a4.424,4.424,0,0,0,2.83-1.292,4.433,4.433,0,0,0,1.3-3.152v-7.319a4.43,4.43,0,0,0-1.3-3.15,4.427,4.427,0,0,0-3.15-1.305h-15.564a4.419,4.419,0,0,0-3.148,1.305,4.424,4.424,0,0,0-1.3,3.15v7.319a4.431,4.431,0,0,0,1.3,3.152,4.433,4.433,0,0,0,2.826,1.292v-8.262h4.129v8.273Zm.6-39.45a8.233,8.233,0,0,0-2.627,1.773,8.21,8.21,0,0,0-1.771,2.633,8.156,8.156,0,0,0-.648,3.219,8.156,8.156,0,0,0,.648,3.221,8.192,8.192,0,0,0,1.771,2.63,8.187,8.187,0,0,0,2.627,1.774,8.18,8.18,0,0,0,3.215.649,8.18,8.18,0,0,0,3.215-.649,8.182,8.182,0,0,0,2.627-1.774,8.224,8.224,0,0,0,1.77-2.63,8.218,8.218,0,0,0,.65-3.221,8.213,8.213,0,0,0-.65-3.219,8.22,8.22,0,0,0-1.77-2.633,8.283,8.283,0,0,0-2.627-1.773,8.206,8.206,0,0,0-3.215-.649A8.206,8.206,0,0,0-19540.008-7491.532Z" transform="translate(19553 7496)" fill="#d0d6e3"/>
      <path id="Icon_awesome-medal-2" data-name="Icon awesome-medal" d="M6.929,4.055,4.788.482A.99.99,0,0,0,3.938,0H.5A.5.5,0,0,0,.09.781L3.536,5.71A6.4,6.4,0,0,1,6.929,4.055ZM15.358,0H11.916a.991.991,0,0,0-.85.482L8.926,4.055A6.407,6.407,0,0,1,12.318,5.71L15.764.781A.5.5,0,0,0,15.358,0ZM7.927,4.962a5.458,5.458,0,1,0,5.45,5.458A5.454,5.454,0,0,0,7.927,4.962Zm2.865,4.877L9.618,10.985,9.9,12.6a.356.356,0,0,1-.516.375l-1.453-.764-1.452.764a.355.355,0,0,1-.516-.375l.278-1.619L5.063,9.839a.356.356,0,0,1,.2-.608l1.624-.237.726-1.474a.356.356,0,0,1,.638,0l.726,1.474,1.624.237a.356.356,0,0,1,.2.608Z" transform="translate(8.279 23.715)" fill="#f5f5f5"/>
    </g>
    <g id="Сгруппировать_302" data-name="Сгруппировать 302" transform="translate(45.076 90.663)">
      <path id="Контур_52-3" data-name="Контур 52" d="M-19544.738-7432.03v-15.6a8.528,8.528,0,0,1-5.85-2.616,8.545,8.545,0,0,1-2.412-5.971v-7.638a8.23,8.23,0,0,1,.65-3.221,8.154,8.154,0,0,1,1.771-2.631,8.168,8.168,0,0,1,2.623-1.773,8.244,8.244,0,0,1,3.217-.649h5.178a11.794,11.794,0,0,1-1.934-.633,12.079,12.079,0,0,1-3.84-2.591,12.009,12.009,0,0,1-2.586-3.845,12.038,12.038,0,0,1-.949-4.708,12.035,12.035,0,0,1,.949-4.707,12.009,12.009,0,0,1,2.586-3.845,12.128,12.128,0,0,1,3.84-2.591,11.979,11.979,0,0,1,4.7-.951,11.962,11.962,0,0,1,4.7.951,12,12,0,0,1,3.84,2.591,12.111,12.111,0,0,1,2.588,3.845,12.035,12.035,0,0,1,.949,4.707,12.038,12.038,0,0,1-.949,4.708,12.111,12.111,0,0,1-2.588,3.845,11.99,11.99,0,0,1-3.84,2.591,11.677,11.677,0,0,1-1.934.633h5.176a8.242,8.242,0,0,1,3.221.649,8.284,8.284,0,0,1,2.625,1.773,8.3,8.3,0,0,1,1.771,2.631,8.25,8.25,0,0,1,.648,3.221v7.319a8.884,8.884,0,0,1-2.3,5.975,8.865,8.865,0,0,1-5.648,2.885v15.647Zm4.135-20.051v16.231h7.941v-24.5h4.131v8.262a4.424,4.424,0,0,0,2.83-1.292,4.433,4.433,0,0,0,1.3-3.152v-7.319a4.43,4.43,0,0,0-1.3-3.15,4.427,4.427,0,0,0-3.15-1.305h-15.564a4.419,4.419,0,0,0-3.148,1.305,4.424,4.424,0,0,0-1.3,3.15v7.319a4.431,4.431,0,0,0,1.3,3.152,4.433,4.433,0,0,0,2.826,1.292v-8.262h4.129v8.273Zm.6-39.45a8.233,8.233,0,0,0-2.627,1.773,8.21,8.21,0,0,0-1.771,2.633,8.156,8.156,0,0,0-.648,3.219,8.156,8.156,0,0,0,.648,3.221,8.192,8.192,0,0,0,1.771,2.63,8.187,8.187,0,0,0,2.627,1.774,8.18,8.18,0,0,0,3.215.649,8.18,8.18,0,0,0,3.215-.649,8.182,8.182,0,0,0,2.627-1.774,8.224,8.224,0,0,0,1.77-2.63,8.218,8.218,0,0,0,.65-3.221,8.213,8.213,0,0,0-.65-3.219,8.22,8.22,0,0,0-1.77-2.633,8.283,8.283,0,0,0-2.627-1.773,8.206,8.206,0,0,0-3.215-.649A8.206,8.206,0,0,0-19540.008-7491.532Z" transform="translate(19553 7496)" fill="#d0d6e3"/>
      <path id="Icon_awesome-medal-3" data-name="Icon awesome-medal" d="M6.929,4.055,4.788.482A.99.99,0,0,0,3.938,0H.5A.5.5,0,0,0,.09.781L3.536,5.71A6.4,6.4,0,0,1,6.929,4.055ZM15.358,0H11.916a.991.991,0,0,0-.85.482L8.926,4.055A6.407,6.407,0,0,1,12.318,5.71L15.764.781A.5.5,0,0,0,15.358,0ZM7.927,4.962a5.458,5.458,0,1,0,5.45,5.458A5.454,5.454,0,0,0,7.927,4.962Zm2.865,4.877L9.618,10.985,9.9,12.6a.356.356,0,0,1-.516.375l-1.453-.764-1.452.764a.355.355,0,0,1-.516-.375l.278-1.619L5.063,9.839a.356.356,0,0,1,.2-.608l1.624-.237.726-1.474a.356.356,0,0,1,.638,0l.726,1.474,1.624.237a.356.356,0,0,1,.2.608Z" transform="translate(8.279 23.715)" fill="#f5f5f5"/>
    </g>
    <g id="Сгруппировать_303" data-name="Сгруппировать 303" transform="translate(99.447 38.433)">
      <path id="Объединение_5" data-name="Объединение 5" d="M2.426,9.473C.77,8.729-.284,7.245.073,6.157s1.989-1.366,3.645-.623S6.427,7.762,6.07,8.849a1.776,1.776,0,0,1-1.845,1.04A4.467,4.467,0,0,1,2.426,9.473ZM9.939,1.881a1.754,1.754,0,0,1,1.6-1.874A1.758,1.758,0,0,1,13.15,1.883a1.753,1.753,0,0,1-1.6,1.874A1.758,1.758,0,0,1,9.939,1.881Z" transform="translate(20.154 47.753) rotate(25)" fill="#fff" opacity="0.123"/>
      <path id="Контур_51" data-name="Контур 51" d="M-19540.619-7400.13v-23.382a12.781,12.781,0,0,1-8.768-3.92,12.813,12.813,0,0,1-3.613-8.947v-11.447a12.327,12.327,0,0,1,.975-4.827,12.309,12.309,0,0,1,2.65-3.941,12.34,12.34,0,0,1,3.938-2.659,12.325,12.325,0,0,1,4.818-.974h7.762a17.688,17.688,0,0,1-2.9-.948,18.018,18.018,0,0,1-5.754-3.883,18.052,18.052,0,0,1-3.877-5.762,18.035,18.035,0,0,1-1.426-7.054,18.032,18.032,0,0,1,1.426-7.055,18.052,18.052,0,0,1,3.877-5.762,18.185,18.185,0,0,1,5.754-3.883,17.962,17.962,0,0,1,7.043-1.425,17.944,17.944,0,0,1,7.045,1.425,18.012,18.012,0,0,1,5.754,3.883,18.084,18.084,0,0,1,3.877,5.762,18.031,18.031,0,0,1,1.424,7.055,18.033,18.033,0,0,1-1.424,7.054,18.084,18.084,0,0,1-3.877,5.762,18.063,18.063,0,0,1-5.754,3.883,17.534,17.534,0,0,1-2.9.948h7.758a12.346,12.346,0,0,1,4.824.974,12.375,12.375,0,0,1,3.936,2.659,12.416,12.416,0,0,1,2.654,3.941,12.393,12.393,0,0,1,.971,4.827v10.969a13.313,13.313,0,0,1-3.443,8.955,13.288,13.288,0,0,1-8.465,4.323v23.45Zm6.193-30.05v24.324h11.908v-36.725h6.188v12.383a6.634,6.634,0,0,0,4.242-1.937,6.641,6.641,0,0,0,1.951-4.723v-10.969a6.634,6.634,0,0,0-1.951-4.721,6.631,6.631,0,0,0-4.719-1.957h-23.332a6.627,6.627,0,0,0-4.717,1.957,6.637,6.637,0,0,0-1.951,4.721v10.969a6.644,6.644,0,0,0,1.951,4.723,6.64,6.64,0,0,0,4.236,1.938v-12.383h6.193Zm.893-59.123a12.392,12.392,0,0,0-3.934,2.659,12.331,12.331,0,0,0-2.654,3.944,12.321,12.321,0,0,0-.975,4.826,12.321,12.321,0,0,0,.975,4.825,12.294,12.294,0,0,0,2.654,3.941,12.333,12.333,0,0,0,3.934,2.659,12.3,12.3,0,0,0,4.82.974,12.274,12.274,0,0,0,4.82-.974,12.212,12.212,0,0,0,3.934-2.659,12.226,12.226,0,0,0,2.654-3.941,12.282,12.282,0,0,0,.975-4.825,12.288,12.288,0,0,0-.975-4.826,12.274,12.274,0,0,0-2.654-3.944,12.385,12.385,0,0,0-3.934-2.659,12.275,12.275,0,0,0-4.82-.975A12.3,12.3,0,0,0-19533.533-7489.3Z" transform="translate(19553 7527.505)" fill="#fff"/>
      <g id="Сгруппировать_226" data-name="Сгруппировать 226" transform="translate(43.339 0) rotate(45)">
        <path id="Контур_84" data-name="Контур 84" d="M0,0,43.849.033l.033,43.849L.033,43.849Z" transform="translate(0 0)" fill="none"/>
        <path id="Icon_awesome-crown" data-name="Icon awesome-crown" d="M20.421,17.331,4.342,17.319a.619.619,0,0,0-.618.618v1.237a.621.621,0,0,0,.619.619l16.079.012a.619.619,0,0,0,.618-.618V17.95A.621.621,0,0,0,20.421,17.331ZM22.886,4.965a1.852,1.852,0,0,0-1.854,1.854,1.819,1.819,0,0,0,.171.765l-2.8,1.675A1.236,1.236,0,0,1,16.7,8.81L13.542,3.3a1.857,1.857,0,1,0-2.342,0L8.054,8.8a1.235,1.235,0,0,1-1.708.447l-2.8-1.68A1.855,1.855,0,1,0,1.862,8.659a1.894,1.894,0,0,0,.3-.031l2.8,7.454,14.842.011,2.789-7.45a1.9,1.9,0,0,0,.3.031,1.855,1.855,0,0,0,0-3.711Z" transform="translate(9.145 12.796)" fill="#6d7885"/>
      </g>
      <path id="Вычитание_16" data-name="Вычитание 16" d="M0,8.986H0A11.426,11.426,0,0,0,4.611,7.378,12.081,12.081,0,0,0,8.034,4.227,14.023,14.023,0,0,0,10.145,0,11.59,11.59,0,0,1,8.852,3.511,11.116,11.116,0,0,1,6.584,6.332a10.493,10.493,0,0,1-3.023,1.9A10.064,10.064,0,0,1,0,8.986Z" transform="translate(26.261 48.993) rotate(-90)" fill="#fff" opacity="0.314"/>
    </g>
  </g>
</svg>
