<svg height="24" viewBox="0 0 24 24" width="24" xmlns="http://www.w3.org/2000/svg"><path d="m0 0h24v24h-24z" fill="none"/><path d="m-7376.9-3435.052h-4.487v-2.245h-4.486v-3.676a2.244 2.244 0 0 1 -1.124-1.932v-1.122a2.247 2.247 0 0 1 2.245-2.243h1.122a2.246 2.246 0 0 1 -2.243-2.243 2.246 2.246 0 0 1 2.243-2.243 2.233 2.233 0 0 1 1.214.362 3.349 3.349 0 0 1 3.272-2.6 3.344 3.344 0 0 1 3.271 2.6 2.239 2.239 0 0 1 1.216-.362 2.246 2.246 0 0 1 2.243 2.243 2.246 2.246 0 0 1 -2.243 2.243h1.122a2.246 2.246 0 0 1 2.243 2.243v1.122a2.214 2.214 0 0 1 -1.122 1.932v1.554h-.534v-1.954a.435.435 0 0 0 -.434-.436h-.154v-1.1h1.122v-1.122a1.123 1.123 0 0 0 -1.122-1.122h-1.433a2.213 2.213 0 0 1 .312 1.122v2.217h-.16a.435.435 0 0 0 -.434.436v1.1a2.309 2.309 0 0 1 -.528.424v.43h-1.428a.436.436 0 0 0 -.436.436v.434a.438.438 0 0 0 .1.284.433.433 0 0 0 -.1.282v.436a.435.435 0 0 0 .436.434h.306v2.063zm-4.487-7.853h1.122v6.731h2.243v-6.731h1.122v2.243a1.124 1.124 0 0 0 1.122-1.122v-2.243a1.123 1.123 0 0 0 -1.122-1.122h-4.487a1.123 1.123 0 0 0 -1.122 1.122v2.243a1.123 1.123 0 0 0 1.122 1.122v-2.242zm-3.365 0v4.488h2.243v-1.433a2.22 2.22 0 0 1 -1.122-1.934v-2.243a2.206 2.206 0 0 1 .31-1.122h-1.431a1.123 1.123 0 0 0 -1.122 1.122v1.122zm8.137-4.533a3.348 3.348 0 0 1 -2.528 1.168h4.487a2.242 2.242 0 0 1 -1.958-1.168zm-5.057 0a2.246 2.246 0 0 1 -1.958 1.167h4.486a3.351 3.351 0 0 1 -2.528-1.168zm7.015-2.2a1.123 1.123 0 0 0 -1.122 1.122 1.123 1.123 0 0 0 1.122 1.122 1.123 1.123 0 0 0 1.122-1.122 1.123 1.123 0 0 0 -1.126-1.119zm-4.487-2.243a2.246 2.246 0 0 0 -2.243 2.243 2.246 2.246 0 0 0 2.243 2.243 2.246 2.246 0 0 0 2.244-2.243 2.246 2.246 0 0 0 -2.248-2.24zm-4.486 2.243a1.123 1.123 0 0 0 -1.122 1.122 1.123 1.123 0 0 0 1.122 1.122 1.123 1.123 0 0 0 1.122-1.122 1.123 1.123 0 0 0 -1.126-1.119z" fill="#3574ed" transform="translate(7391.146 3456.309)"/><path d="m5.649 3.89h-1.955v-1.955a.435.435 0 0 0 -.435-.435h-.435a.435.435 0 0 0 -.435.435v1.955h-1.954a.435.435 0 0 0 -.435.434v.435a.435.435 0 0 0 .435.435h1.955v1.955a.435.435 0 0 0 .435.435h.435a.435.435 0 0 0 .435-.435v-1.955h1.954a.435.435 0 0 0 .435-.435v-.435a.435.435 0 0 0 -.435-.434z" fill="#f9f9f9" transform="translate(13.5 13.5)"/><path d="m5.649 3.89h-1.955v-1.955a.435.435 0 0 0 -.435-.435h-.435a.435.435 0 0 0 -.435.435v1.955h-1.954a.435.435 0 0 0 -.435.434v.435a.435.435 0 0 0 .435.435h1.955v1.955a.435.435 0 0 0 .435.435h.435a.435.435 0 0 0 .435-.435v-1.955h1.954a.435.435 0 0 0 .435-.435v-.435a.435.435 0 0 0 -.435-.434z" fill="#f9f9f9" transform="translate(14.5 14)"/><path d="m5.649 3.89h-1.955v-1.955a.435.435 0 0 0 -.435-.435h-.435a.435.435 0 0 0 -.435.435v1.955h-1.954a.435.435 0 0 0 -.435.434v.435a.435.435 0 0 0 .435.435h1.955v1.955a.435.435 0 0 0 .435.435h.435a.435.435 0 0 0 .435-.435v-1.955h1.954a.435.435 0 0 0 .435-.435v-.435a.435.435 0 0 0 -.435-.434z" fill="#3574ed" transform="translate(13.958 13.458)"/></svg>