<svg height="24" viewBox="0 0 24 24" width="24" xmlns="http://www.w3.org/2000/svg"><path d="m0 0h24v24h-24z" fill="none"/><g fill="none" stroke="#4375e5" stroke-linecap="round" stroke-linejoin="round" stroke-width="2" transform="translate(2 5.712)"><path d="m11.155 7.077a4.077 4.077 0 1 1 -4.078-4.077 4.077 4.077 0 0 1 4.077 4.077z"/><path d="m18.867 18.867-2.217-2.217" transform="translate(-6.693 -6.693)"/></g><path d="m-7510.757-3477.2a.223.223 0 0 1 -.13-.042l-2.131-1.442a2.572 2.572 0 0 1 -.777.5l-1.97-2.132a5.771 5.771 0 0 0 .647-4.324.948.948 0 0 0 .629.241 1 1 0 0 0 .976-1.015 1 1 0 0 0 -.976-1.019.993.993 0 0 0 -.965.878 6.569 6.569 0 0 0 -1.108-1.624 8.983 8.983 0 0 1 .578-1.074 7.017 7.017 0 0 1 1.5-1.738 6.956 6.956 0 0 1 1.481 1.738 10.285 10.285 0 0 1 1.481 5.506l1.523 1.561a.274.274 0 0 1 .077.223l-.589 3.554a.25.25 0 0 1 -.246.209z" fill="#3574ed" transform="translate(7530.783 3496)"/></svg>