<svg xmlns="http://www.w3.org/2000/svg" width="24" height="24" viewBox="0 0 24 24"><g transform="translate(-208 -204)"><rect width="24" height="24" transform="translate(208 204)" fill="none"/><g transform="translate(0 2.142)"><g transform="translate(210 207.57)"><path d="M11.155,7.077A4.077,4.077,0,1,1,7.077,3a4.077,4.077,0,0,1,4.077,4.077Z" transform="translate(0 0)" fill="none" stroke="#4375e5" stroke-linecap="round" stroke-linejoin="round" stroke-width="2"/><path d="M18.867,18.867,16.65,16.65" transform="translate(-6.693 -6.693)" fill="none" stroke="#4375e5" stroke-linecap="round" stroke-linejoin="round" stroke-width="2"/></g><path d="M-7510.757-3477.2a.223.223,0,0,1-.13-.042l-2.131-1.442a2.572,2.572,0,0,1-.777.5l-1.97-2.132a5.771,5.771,0,0,0,.647-4.324.948.948,0,0,0,.629.241,1,1,0,0,0,.976-1.015,1,1,0,0,0-.976-1.019.993.993,0,0,0-.965.878,6.569,6.569,0,0,0-1.108-1.624,8.983,8.983,0,0,1,.578-1.074,7.017,7.017,0,0,1,1.5-1.738,6.956,6.956,0,0,1,1.481,1.738,10.285,10.285,0,0,1,1.481,5.506l1.523,1.561a.274.274,0,0,1,.077.223l-.589,3.554A.25.25,0,0,1-7510.757-3477.2Z" transform="translate(7738.783 3697.858)" fill="#3574ed"/></g></g></svg>