<svg height="26.462" viewBox="0 0 105.375 26.462" width="105.375" xmlns="http://www.w3.org/2000/svg"><path d="m-7384.75-3382.57a8.1 8.1 0 0 1 -2.251-6.161v-12.864c0-.2.037-.287.256-.287h3.363c.192 0 .256.063.256.256v12.606a5.511 5.511 0 0 0 1.12 3.669 4.261 4.261 0 0 0 3.424 1.389 4.225 4.225 0 0 0 3.156-1.1 5.55 5.55 0 0 0 1.26-4.025v-6.279l-1.65 1.118a.243.243 0 0 1 -.375-.172l-.585-3.552a.269.269 0 0 1 .07-.226l1.526-1.561c0-5.021 2.99-7.245 2.99-7.245s2.96 2.225 2.96 7.245l1.526 1.561a.277.277 0 0 1 .076.223l-.588 3.556a.244.244 0 0 1 -.375.172l-1.7-1.154v6.506c0 2.831-.819 4.991-2.433 6.422a8.862 8.862 0 0 1 -5.984 1.932 8.489 8.489 0 0 1 -6.042-2.029zm11.585-19.854a1 1 0 0 0 .975 1.016 1 1 0 0 0 .975-1.016 1 1 0 0 0 -.975-1.018 1 1 0 0 0 -.975 1.018zm7.573 21.565c-.168 0-.256-.076-.256-.224v-20.511c0-.172.074-.256.227-.256l.2-.006c1.224-.031 3.5-.091 5.723-.091 2.877 0 5.093.729 6.583 2.167a6.455 6.455 0 0 1 1.93 4.809 6.543 6.543 0 0 1 -2.573 5.556 10.286 10.286 0 0 1 -6.2 1.739h-2.019v6.561c0 .178-.078.256-.256.256zm3.615-17.664v7.423c.545.033.947.033 2.019.033a6.394 6.394 0 0 0 3.487-.812 3.334 3.334 0 0 0 1.47-3c0-2.36-1.678-3.713-4.607-3.713-1.127.004-2.017.038-2.369.069z" fill="#3574ed" transform="translate(7456.563 3407.001)"/><path d="m19.141-22.953v2.734h-7.735v20.219h-3.156v-20.219h-7.734v-2.734zm3.491 5.844a7.633 7.633 0 0 1 3.453.836 6.368 6.368 0 0 1 2.547 2.164 7.466 7.466 0 0 1 1.125 2.953 19.321 19.321 0 0 1 .25 3.688h-12.266a7.157 7.157 0 0 0 1.2 4.086 4.029 4.029 0 0 0 3.484 1.539 4.5 4.5 0 0 0 3.519-1.457 4.9 4.9 0 0 0 1.062-1.95h2.766a5.825 5.825 0 0 1 -.727 2.05 7.308 7.308 0 0 1 -1.383 1.852 6.554 6.554 0 0 1 -3.171 1.692 9.636 9.636 0 0 1 -2.3.25 7.047 7.047 0 0 1 -5.291-2.274 8.846 8.846 0 0 1 -2.172-6.367 9.618 9.618 0 0 1 2.188-6.547 7.216 7.216 0 0 1 5.715-2.515zm4.484 7.409a7.287 7.287 0 0 0 -.8-2.922 4.084 4.084 0 0 0 -3.859-2.031 4.278 4.278 0 0 0 -3.25 1.4 5.283 5.283 0 0 0 -1.388 3.553zm6.1 5.25a2.316 2.316 0 0 0 .891 1.922 3.3 3.3 0 0 0 2.109.7 6.413 6.413 0 0 0 2.875-.687 3.869 3.869 0 0 0 2.343-3.735v-2.266a4.812 4.812 0 0 1 -1.328.547 11.317 11.317 0 0 1 -1.594.313l-1.7.219a6.514 6.514 0 0 0 -2.3.641 2.5 2.5 0 0 0 -1.296 2.343zm6.813-5.687a1.528 1.528 0 0 0 1.3-.812 2.472 2.472 0 0 0 .188-1.078 2.284 2.284 0 0 0 -1.023-2.086 5.491 5.491 0 0 0 -2.93-.648 3.723 3.723 0 0 0 -3.125 1.188 3.907 3.907 0 0 0 -.672 1.953h-2.629q.078-3.094 2.008-4.3a8.244 8.244 0 0 1 4.477-1.211 9.108 9.108 0 0 1 4.8 1.125 3.817 3.817 0 0 1 1.828 3.5v9.641a1.234 1.234 0 0 0 .18.7.867.867 0 0 0 .758.266q.188 0 .422-.023t.5-.07v2.07a7.833 7.833 0 0 1 -1 .234 7.308 7.308 0 0 1 -.937.047 2.313 2.313 0 0 1 -2.115-1.031 3.98 3.98 0 0 1 -.484-1.547 7.156 7.156 0 0 1 -2.469 1.953 7.636 7.636 0 0 1 -3.547.828 5.274 5.274 0 0 1 -3.8-1.414 4.7 4.7 0 0 1 -1.477-3.539 4.558 4.558 0 0 1 1.449-3.609 6.914 6.914 0 0 1 3.813-1.578zm6.428-6.594h2.781v2.375a9.348 9.348 0 0 1 1.813-1.8 5.451 5.451 0 0 1 3.156-.953 4.967 4.967 0 0 1 3.219.984 5.145 5.145 0 0 1 1.25 1.656 6.079 6.079 0 0 1 2.2-1.992 6.145 6.145 0 0 1 2.844-.648q3.375 0 4.594 2.438a7.967 7.967 0 0 1 .656 3.531v11.14h-2.92v-11.625a2.708 2.708 0 0 0 -.836-2.3 3.308 3.308 0 0 0 -2.039-.625 4.048 4.048 0 0 0 -2.852 1.109 4.872 4.872 0 0 0 -1.2 3.7v9.741h-2.854v-10.922a5.675 5.675 0 0 0 -.406-2.484 2.477 2.477 0 0 0 -2.391-1.172 4.125 4.125 0 0 0 -2.9 1.234q-1.3 1.234-1.3 4.469v8.875h-2.816z" fill="#333" transform="translate(-.516 23.142)"/></svg>