<svg height="24" viewBox="0 0 24 24" width="24" xmlns="http://www.w3.org/2000/svg"><path d="m0 0h24v24h-24z" fill="none"/><path d="m18.423 9h-12.853a2.572 2.572 0 0 0 -2.57 2.568v1.285a2.558 2.558 0 0 0 1.285 2.214v4.213h5.141v2.571h5.141v-2.571h5.141v-4.212a2.558 2.558 0 0 0 1.285-2.214v-1.286a2.572 2.572 0 0 0 -2.57-2.568zm-10.283 9h-2.57v-5.146h-1.285v-1.286a1.286 1.286 0 0 1 1.285-1.285h1.641a2.542 2.542 0 0 0 -.356 1.285v2.571a2.558 2.558 0 0 0 1.285 2.214zm6.427-2.571v-2.575h-1.285v7.712h-2.571v-7.712h-1.285v2.571a1.285 1.285 0 0 1 -1.285-1.285v-2.572a1.286 1.286 0 0 1 1.285-1.285h5.141a1.285 1.285 0 0 1 1.285 1.285v2.571a1.285 1.285 0 0 1 -1.285 1.285zm5.141-2.571h-1.285v5.141h-2.57v-1.646a2.558 2.558 0 0 0 1.285-2.214v-2.571a2.542 2.542 0 0 0 -.356-1.285h1.642a1.285 1.285 0 0 1 1.285 1.285v1.285zm-10.608-5.199a3.808 3.808 0 0 0 5.8 0 2.567 2.567 0 1 0 .85-3.388 3.845 3.845 0 0 0 -7.5 0 2.572 2.572 0 1 0 .85 3.388zm8.04-2.518a1.285 1.285 0 1 1 -1.285 1.285 1.284 1.284 0 0 1 1.283-1.285zm-5.14-2.57a2.571 2.571 0 1 1 -2.574 2.57 2.572 2.572 0 0 1 2.574-2.57zm-5.145 5.141a1.285 1.285 0 1 1 1.286-1.285 1.285 1.285 0 0 1 -1.286 1.285z" fill="#3574ed" transform="translate(.001 .715)"/></svg>