<svg height="24" viewBox="0 0 24 24" width="24" xmlns="http://www.w3.org/2000/svg"><path d="m0 0h24v24h-24z" fill="none"/><path d="m22.927 7.641c.152-.513 0-.891-.731-.891h-2.419a1.039 1.039 0 0 0 -1.051.686 20.27 20.27 0 0 1 -2.974 4.949c-.563.563-.821.743-1.129.743-.152 0-.386-.181-.386-.694v-4.793c0-.616-.172-.891-.682-.891h-3.8a.584.584 0 0 0 -.616.554c0 .583.871.719.961 2.362v3.565c0 .78-.14.924-.448.924-.821 0-2.817-3.015-4-6.465-.238-.669-.472-.941-1.092-.941h-2.423c-.69 0-.83.324-.83.686 0 .641.821 3.824 3.824 8.029 2 2.871 4.818 4.427 7.38 4.427 1.54 0 1.729-.345 1.729-.941 0-2.744-.14-3 .632-3 .357 0 .973.181 2.411 1.565 1.643 1.643 1.914 2.378 2.834 2.378h2.419c.69 0 1.039-.345.838-1.027-.46-1.433-3.569-4.382-3.709-4.579-.357-.46-.255-.665 0-1.076 0 0 2.957-4.16 3.261-5.569z" transform="translate(-.432 -1.071)"/></svg>