<svg height="31.296" viewBox="0 0 31.296 31.296" width="31.296" xmlns="http://www.w3.org/2000/svg"><path d="m20.285 17.212h-15.985a.617.617 0 0 0 -.615.615v1.229a.617.617 0 0 0 .615.615h15.985a.617.617 0 0 0 .615-.615v-1.229a.617.617 0 0 0 -.615-.615zm2.459-12.294a1.845 1.845 0 0 0 -1.844 1.844 1.807 1.807 0 0 0 .169.761l-2.781 1.667a1.228 1.228 0 0 1 -1.7-.446l-3.13-5.478a1.844 1.844 0 1 0 -2.328 0l-3.13 5.478a1.229 1.229 0 0 1 -1.7.446l-2.777-1.667a1.844 1.844 0 1 0 -1.679 1.083 1.883 1.883 0 0 0 .3-.031l2.778 7.407h14.749l2.778-7.407a1.883 1.883 0 0 0 .3.031 1.844 1.844 0 1 0 0-3.688z" fill="#6d7885" transform="matrix(.70710678 .70710678 -.70710678 .70710678 13.909 0)"/></svg>