<svg height="12.832" viewBox="0 0 15.54 12.832" width="15.54" xmlns="http://www.w3.org/2000/svg"><g fill="#6d7885" transform="translate(1 1)"><path d="m11.17 9.478h-8.8a.339.339 0 0 0 -.338.338v.677a.339.339 0 0 0 .338.338h8.8a.339.339 0 0 0 .338-.338v-.677a.339.339 0 0 0 -.338-.338zm1.354-6.77a1.016 1.016 0 0 0 -1.015 1.015 1 1 0 0 0 .093.419l-1.532.918a.676.676 0 0 1 -.935-.245l-1.724-3.015a1.015 1.015 0 1 0 -1.282 0l-1.729 3.015a.677.677 0 0 1 -.935.245l-1.525-.918a1.015 1.015 0 1 0 -.924.6 1.037 1.037 0 0 0 .163-.017l1.529 4.075h8.124l1.53-4.079a1.037 1.037 0 0 0 .163.017 1.015 1.015 0 1 0 0-2.031z" stroke="#fff" stroke-width="2"/><path d="m11.17 9.478h-8.8a.339.339 0 0 0 -.338.338v.677a.339.339 0 0 0 .338.338h8.8a.339.339 0 0 0 .338-.338v-.677a.339.339 0 0 0 -.338-.338zm1.354-6.77a1.016 1.016 0 0 0 -1.015 1.015 1 1 0 0 0 .093.419l-1.532.918a.676.676 0 0 1 -.935-.245l-1.724-3.015a1.015 1.015 0 1 0 -1.282 0l-1.729 3.015a.677.677 0 0 1 -.935.245l-1.525-.918a1.015 1.015 0 1 0 -.924.6 1.037 1.037 0 0 0 .163-.017l1.529 4.075h8.124l1.53-4.079a1.037 1.037 0 0 0 .163.017 1.015 1.015 0 1 0 0-2.031z"/></g></svg>