<svg xmlns="http://www.w3.org/2000/svg" width="24" height="24" viewBox="0 0 24 24">
  <g id="Сгруппировать_180" data-name="Сгруппировать 180" transform="translate(-911 -167)">
    <rect id="Прямоугольник_92" data-name="Прямоугольник 92" width="24" height="24" transform="translate(911 167)" fill="none"/>
    <path id="Контур_33" data-name="Контур 33" d="M-7385.709-3392.984a4.649,4.649,0,0,1-1.292-3.535v-7.38c0-.114.021-.165.146-.165h1.93c.11,0,.147.036.147.147v7.233a3.16,3.16,0,0,0,.643,2.1,2.444,2.444,0,0,0,1.964.8,2.424,2.424,0,0,0,1.811-.629,3.185,3.185,0,0,0,.723-2.309v-3.6l-.947.641a.139.139,0,0,1-.215-.1l-.336-2.038a.154.154,0,0,1,.041-.13l.875-.9A5.227,5.227,0,0,1-7378.5-3407a5.246,5.246,0,0,1,1.7,4.157l.875.9a.159.159,0,0,1,.043.128l-.337,2.04a.14.14,0,0,1-.215.1l-.977-.662v3.733a4.689,4.689,0,0,1-1.4,3.685,5.085,5.085,0,0,1-3.434,1.108A4.869,4.869,0,0,1-7385.709-3392.984Zm6.646-11.391a.571.571,0,0,0,.56.583.571.571,0,0,0,.56-.583.571.571,0,0,0-.56-.584A.572.572,0,0,0-7379.063-3404.375Zm4.345,12.373c-.1,0-.147-.044-.147-.129V-3403.9c0-.1.042-.147.13-.147l.113,0c.7-.018,2.007-.052,3.284-.052a5.256,5.256,0,0,1,3.777,1.243,3.7,3.7,0,0,1,1.107,2.759,3.754,3.754,0,0,1-1.477,3.188,5.9,5.9,0,0,1-3.555,1h-1.158v3.764c0,.1-.045.147-.147.147Zm2.074-10.135v4.259c.313.019.543.019,1.158.019a3.669,3.669,0,0,0,2-.466,1.914,1.914,0,0,0,.843-1.719c0-1.354-.963-2.13-2.644-2.13C-7371.931-3402.174-7372.441-3402.155-7372.644-3402.137Z" transform="translate(8300.001 3578.001)" fill="#99a2ad"/>
  </g>
</svg>
