<svg height="24" viewBox="0 0 24 24" width="24" xmlns="http://www.w3.org/2000/svg"><path d="m0 0h24v24h-24z" fill="none"/><g fill="#6d7885"><path d="m4.087 21.558h8.313a1.774 1.774 0 0 0 1.653-1.131l2.765-6.545a1.85 1.85 0 0 0 .126-.677v-1.866a2.132 2.132 0 0 0 -1.827-2.156h-5.766l.87-3.94.029-.29a1.4 1.4 0 0 0 -.4-.981l-.968-.972-6.1 6.149a1.861 1.861 0 0 0 -.532 1.31v9.282a1.823 1.823 0 0 0 1.837 1.817z" transform="translate(4.616 -.081)"/><path d="m21.844 13.828h-3.094v-10.828h3.094z" transform="translate(-17.298 7.649)"/></g></svg>