<svg height="24" viewBox="0 0 24 24" width="24" xmlns="http://www.w3.org/2000/svg"><path d="m0 0h24v24h-24z" fill="none"/><path d="m15.283 12.968h-12.041a.464.464 0 0 0 -.463.463v.926a.464.464 0 0 0 .463.463h12.041a.464.464 0 0 0 .463-.463v-.926a.464.464 0 0 0 -.463-.463zm1.853-9.263a1.39 1.39 0 0 0 -1.389 1.389 1.361 1.361 0 0 0 .127.573l-2.1 1.256a.925.925 0 0 1 -1.274-.335l-2.36-4.128a1.389 1.389 0 1 0 -1.754 0l-2.359 4.128a.926.926 0 0 1 -1.279.336l-2.094-1.256a1.389 1.389 0 1 0 -1.265.816 1.419 1.419 0 0 0 .223-.023l2.093 5.581h11.115l2.093-5.581a1.419 1.419 0 0 0 .223.023 1.389 1.389 0 0 0 0-2.779z" fill="#333" transform="translate(3 5.088)"/></svg>