<svg height="24" viewBox="0 0 24 24" width="24" xmlns="http://www.w3.org/2000/svg"><path d="m0 0h24v24h-24z" fill="none"/><g fill="#99a2ad"><path d="m3.773 18.385h6.893a1.47 1.47 0 0 0 1.371-.938l2.292-5.426a1.534 1.534 0 0 0 .1-.561v-1.547a1.768 1.768 0 0 0 -1.515-1.787h-4.777l.721-3.266.024-.24a1.162 1.162 0 0 0 -.333-.814l-.801-.806-5.057 5.1a1.543 1.543 0 0 0 -.441 1.084v7.694a1.511 1.511 0 0 0 1.523 1.507z" transform="translate(5.239 1.493)"/><path d="m21.315 11.977h-2.565v-8.977h2.565z" transform="translate(-15.749 7.901)"/></g></svg>