<svg xmlns="http://www.w3.org/2000/svg" width="24" height="24" viewBox="0 0 24 24"><g transform="translate(7 569)"><g transform="translate(-7 -569)"><path d="M23,19a2,2,0,0,1-2,2H3a2,2,0,0,1-2-2V8A2,2,0,0,1,3,6H7L9,3h6l2,3h4a2,2,0,0,1,2,2Z" fill="none" stroke="rgba(19,19,19,0.5)" stroke-linecap="round" stroke-linejoin="round" stroke-width="2"/><path d="M16,13a4,4,0,1,1-4-4,4,4,0,0,1,4,4Z" fill="none" stroke="rgba(19,19,19,0.5)" stroke-linecap="round" stroke-linejoin="round" stroke-width="2"/></g><rect width="24" height="24" transform="translate(-7 -569)" fill="none"/></g></svg>