<svg height="24" viewBox="0 0 24 24" width="24" xmlns="http://www.w3.org/2000/svg"><path d="m0 0h24v24h-24z" fill="none"/><path d="m15 21v1.875a1.125 1.125 0 0 1 -1.125 1.125h-12.75a1.125 1.125 0 0 1 -1.125-1.125v-17.25a1.125 1.125 0 0 1 1.125-1.125h3.375v13.875a2.628 2.628 0 0 0 2.625 2.625zm0-16.125v-4.875h-7.875a1.125 1.125 0 0 0 -1.125 1.125v17.25a1.125 1.125 0 0 0 1.125 1.125h12.75a1.125 1.125 0 0 0 1.125-1.125v-12.375h-4.875a1.128 1.128 0 0 1 -1.125-1.125zm5.671-1.454-3.092-3.092a1.125 1.125 0 0 0 -.8-.329h-.279v4.5h4.5v-.284a1.125 1.125 0 0 0 -.329-.8z" fill="#99a2ad" transform="translate(1)"/></svg>