<svg height="512" viewBox="0 0 512 512" width="512" xmlns="http://www.w3.org/2000/svg" xmlns:xlink="http://www.w3.org/1999/xlink"><clipPath id="a"><path d="m0 0h512v512h-512z"/></clipPath><g clip-path="url(#a)"><g fill="#fff"><path d="m0 0h512v512h-512z"/><text font-family="AdobeClean-Bold, Adobe Clean" font-size="108" font-weight="700" transform="translate(309 298)"><tspan x="0" y="0">Up</tspan></text><text font-family="Helvetica-Light, Helvetica" font-size="108" font-weight="300" letter-spacing="-.075em" transform="translate(75 285)"><tspan x="0" y="0">Team</tspan></text></g><path d="m0 0h512v512h-512z" fill="#f0f2f5"/><path d="m162.324 80.84h-131.524a26.314 26.314 0 0 0 -26.3 26.3v13.16a26.174 26.174 0 0 0 13.152 22.657v43.1h52.607v26.3h52.608v-26.3h52.608v-43.1a26.172 26.172 0 0 0 13.153-22.657v-13.155a26.318 26.318 0 0 0 -26.304-26.305zm-105.217 92.06h-26.307v-52.6h-13.149v-13.155a13.161 13.161 0 0 1 13.149-13.152h16.8a26.009 26.009 0 0 0 -3.641 13.152v26.3a26.174 26.174 0 0 0 13.152 22.656zm65.76-26.3v-26.3h-13.152v78.912h-26.3v-78.912h-13.156v26.3a13.153 13.153 0 0 1 -13.152-13.152v-26.3a13.161 13.161 0 0 1 13.152-13.155h52.608a13.153 13.153 0 0 1 13.152 13.152v26.3a13.145 13.145 0 0 1 -13.152 13.155zm52.608-26.3h-13.151v52.6h-26.3v-16.8a26.172 26.172 0 0 0 13.152-22.657v-26.3a26.013 26.013 0 0 0 -3.648-13.152h16.8a13.153 13.153 0 0 1 13.152 13.152zm-108.568-53.151a38.964 38.964 0 0 0 59.313 0 26.269 26.269 0 1 0 8.7-34.665 39.346 39.346 0 0 0 -76.7 0 26.322 26.322 0 1 0 8.7 34.665zm82.265-25.765a13.152 13.152 0 1 1 -13.152 13.152 13.14 13.14 0 0 1 13.152-13.152zm-52.609-26.304a26.3 26.3 0 1 1 -26.3 26.3 26.318 26.318 0 0 1 26.3-26.3zm-52.608 52.608a13.152 13.152 0 1 1 13.152-13.152 13.149 13.149 0 0 1 -13.152 13.152z" fill="#99a2ad" transform="translate(159.719 149.226)"/></g></svg>