<svg height="512" viewBox="0 0 512 512" width="512" xmlns="http://www.w3.org/2000/svg" xmlns:xlink="http://www.w3.org/1999/xlink"><clipPath id="a"><path d="m0 0h512v512h-512z"/></clipPath><g clip-path="url(#a)"><g fill="#fff"><path d="m0 0h512v512h-512z"/><text font-family="AdobeClean-Bold, Adobe Clean" font-size="108" font-weight="700" transform="translate(309 298)"><tspan x="0" y="0">Up</tspan></text><text font-family="Helvetica-Light, Helvetica" font-size="108" font-weight="300" letter-spacing="-.075em" transform="translate(75 285)"><tspan x="0" y="0">Team</tspan></text></g><path d="m0 0h512v512h-512z" fill="#f0f2f5"/><path d="m111.006 30.939a27.564 27.564 0 1 1 -27.564 27.561 27.561 27.561 0 0 1 27.564-27.564m0 118.131c38.983 0 80.067 19.164 80.067 27.564v14.438h-160.134v-14.435c0-8.4 41.083-27.564 80.067-27.564m0-143.07a52.5 52.5 0 1 0 52.5 52.5 52.488 52.488 0 0 0 -52.5-52.5zm0 118.131c-35.046 0-105.006 17.589-105.006 52.503v39.377h210.011v-39.377c0-34.914-69.96-52.503-105.005-52.503z" fill="#99a2ad" transform="translate(144.996 145.576)"/></g></svg>