<svg height="343.964" viewBox="0 0 744 343.964" width="744" xmlns="http://www.w3.org/2000/svg" xmlns:xlink="http://www.w3.org/1999/xlink"><filter id="a" filterUnits="userSpaceOnUse" height="343.964" width="744" x="0" y="0"><feOffset dy="2"/><feGaussianBlur result="b" stdDeviation="24"/><feFlood flood-opacity=".078"/><feComposite in2="b" operator="in"/><feComposite in="SourceGraphic"/></filter><g filter="url(#a)"><path d="m0 0h600v199.964h-600z" fill="#08142c" transform="translate(72 70)"/></g><path d="m-18417.383-9457.165a.886.886 0 0 1 -.3-1.215.885.885 0 0 1 1.215-.3.885.885 0 0 1 .3 1.216.875.875 0 0 1 -.424.369.918.918 0 0 1 -.332.065.853.853 0 0 1 -.459-.135zm205.955-6.231a.884.884 0 0 1 -.473-1.163.887.887 0 0 1 1.164-.473.89.89 0 0 1 .467 1.164.863.863 0 0 1 -.369.421.88.88 0 0 1 -.443.121.89.89 0 0 1 -.346-.074zm145.582-2.4a.886.886 0 0 1 -.473-1.164.883.883 0 0 1 1.16-.472.89.89 0 0 1 .473 1.164.868.868 0 0 1 -.375.42.847.847 0 0 1 -.439.122.9.9 0 0 1 -.346-.074zm-314.654-6.937a.89.89 0 0 1 -.3-1.221.885.885 0 0 1 1.215-.3.884.884 0 0 1 .3 1.216.9.9 0 0 1 -.426.364.914.914 0 0 1 -.336.065.882.882 0 0 1 -.453-.126zm-181.381-2.31a.892.892 0 0 1 -.309-1.22.89.89 0 0 1 1.221-.3.885.885 0 0 1 .3 1.216.862.862 0 0 1 -.43.364.879.879 0 0 1 -.332.065.887.887 0 0 1 -.45-.127zm121.9-3.454a.883.883 0 0 1 -.3-1.216.883.883 0 0 1 1.215-.3.888.888 0 0 1 .3 1.22.892.892 0 0 1 -.426.365.9.9 0 0 1 -.332.061.865.865 0 0 1 -.455-.133zm203.205-2.88a.883.883 0 0 1 -.473-1.159.887.887 0 0 1 1.164-.473.886.886 0 0 1 .467 1.164.871.871 0 0 1 -.369.421.917.917 0 0 1 -.443.117.875.875 0 0 1 -.343-.072zm145.578-2.4a.881.881 0 0 1 -.467-1.159.881.881 0 0 1 1.158-.473.887.887 0 0 1 .473 1.164.912.912 0 0 1 -.369.421.944.944 0 0 1 -.449.116.823.823 0 0 1 -.34800000001-.073zm-85.881-.169a.889.889 0 0 1 -.467-1.164.884.884 0 0 1 1.16-.472.889.889 0 0 1 .471 1.164.868.868 0 0 1 -.373.421.876.876 0 0 1 -.445.121.919.919 0 0 1 -.343-.074zm145.584-2.4a.893.893 0 0 1 -.473-1.164.894.894 0 0 1 1.164-.472.891.891 0 0 1 .473 1.164.87.87 0 0 1 -.375.42.871.871 0 0 1 -.443.122.89.89 0 0 1 -.343-.077zm-321.484-.617a.993.993 0 0 1 -.973-1.015.988.988 0 0 1 1.01-.972 1 1 0 0 1 .977 1.01 1 1 0 0 1 -.621.9 1.03 1.03 0 0 1 -.375.074zm-172.027-3.65a.883.883 0 0 1 -.3-1.216.887.887 0 0 1 1.215-.3.894.894 0 0 1 .3 1.22.905.905 0 0 1 -.432.365.884.884 0 0 1 -.33.065.878.878 0 0 1 -.447-.141zm-59.475-5.759a.885.885 0 0 1 -.3-1.216.883.883 0 0 1 1.215-.3.883.883 0 0 1 .3 1.215.9.9 0 0 1 -.426.365.922.922 0 0 1 -.336.065.894.894 0 0 1 -.451-.136zm431.57-6.362a1 1 0 0 1 .869-1.108 1 1 0 0 1 1.107.865 1 1 0 0 1 -.49.981 1 1 0 0 1 -.379.126.957.957 0 0 1 -.121 0 .992.992 0 0 1 -.983-.871zm-344.568-2.113a.989.989 0 0 1 -.977-1.01.993.993 0 0 1 1.016-.972 1 1 0 0 1 .977 1.01 1.009 1.009 0 0 1 -.627.9.956.956 0 0 1 -.369.07zm145-10.882a1 1 0 0 1 -.977-1.01.99.99 0 0 1 1.01-.973.987.987 0 0 1 .977 1.01.993.993 0 0 1 -.621.9 1.043 1.043 0 0 1 -.365.07zm65.262-12.089a.876.876 0 0 1 .641-1.07.9.9 0 0 1 1.078.641.9.9 0 0 1 -.639 1.08 1.228 1.228 0 0 1 -.221.032.89.89 0 0 1 -.853-.69zm-105.719-.061a.888.888 0 0 1 .641-1.08.9.9 0 0 1 1.078.65.892.892 0 0 1 -.658 1.08.783.783 0 0 1 -.2.022.908.908 0 0 1 -.855-.67900000001zm-1.633-1.248a.891.891 0 0 1 -.3-1.22.887.887 0 0 1 1.215-.3.889.889 0 0 1 .3 1.22.917.917 0 0 1 -.426.364.918.918 0 0 1 -.332.065.924.924 0 0 1 -.45-.13600000001zm238.152-2.164a.991.991 0 0 1 .865-1.1.987.987 0 0 1 1.107.865 1 1 0 0 1 -.49.977.921.921 0 0 1 -.379.126.922.922 0 0 1 -.121.01.987.987 0 0 1 -.975-.887zm-340.561-2.318a.992.992 0 0 1 -.977-1.01.989.989 0 0 1 1.01-.978.993.993 0 0 1 .977 1.01.993.993 0 0 1 -.621.9.991.991 0 0 1 -.371.075zm298.121-4.23a.879.879 0 0 1 -.467-1.159.886.886 0 0 1 1.158-.473.89.89 0 0 1 .473 1.164.92.92 0 0 1 -.373.421.876.876 0 0 1 -.445.121.869.869 0 0 1 -.339-.08200000001zm-144.152-2.272a.886.886 0 0 1 -.3-1.215.885.885 0 0 1 1.217-.3.881.881 0 0 1 .3 1.215.867.867 0 0 1 -.424.365.932.932 0 0 1 -.338.065.879.879 0 0 1 -.446-.13800000001zm289.736-.131a.878.878 0 0 1 -.469-1.159.886.886 0 0 1 1.16-.472.893.893 0 0 1 .473 1.164.921.921 0 0 1 -.375.42.861.861 0 0 1 -.443.122.815.815 0 0 1 -.339-.08300000001zm-216.523-1.837a.982.982 0 0 1 -.533-1.295.991.991 0 0 1 1.3-.532.983.983 0 0 1 .514 1.3.971.971 0 0 1 -.906.608.856.856 0 0 1 -.368-.08900000001zm-176.852-3.478a.889.889 0 0 1 -.3-1.216.881.881 0 0 1 1.215-.3.884.884 0 0 1 .3 1.216.87.87 0 0 1 -.426.364.922.922 0 0 1 -.336.065.919.919 0 0 1 -.446-.13600000001zm25.625-.136a1 1 0 0 1 -.977-1.015.994.994 0 0 1 1.01-.972 1 1 0 0 1 .982 1.01 1 1 0 0 1 -.627.9.986.986 0 0 1 -.373.075zm168.311-1.164a.89.89 0 0 1 -.467-1.164.883.883 0 0 1 1.16-.472.886.886 0 0 1 .471 1.164.883.883 0 0 1 -.373.421.861.861 0 0 1 -.445.121.9.9 0 0 1 -.339-.077zm-286.355-.154a.875.875 0 0 1 -.3-1.215.883.883 0 0 1 1.215-.3.883.883 0 0 1 .3 1.215.9.9 0 0 1 -.43.369.869.869 0 0 1 -.332.061.842.842 0 0 1 -.447-.13800000001zm431.939-2.253a.888.888 0 0 1 -.473-1.159.89.89 0 0 1 1.164-.473.887.887 0 0 1 .473 1.164.892.892 0 0 1 -.375.421.871.871 0 0 1 -.443.122.815.815 0 0 1 -.339-.08200000001zm-121.336-2.159a1 1 0 0 1 .869-1.108 1 1 0 0 1 1.107.865 1 1 0 0 1 -.49.981 1.072 1.072 0 0 1 -.379.126 1.054 1.054 0 0 1 -.121 0 1 1 0 0 1 -.979-.872zm145.582-2.4a1 1 0 0 1 .865-1.107.99.99 0 0 1 1.107.864 1 1 0 0 1 -.49.982 1.015 1.015 0 0 1 -.375.126 1.037 1.037 0 0 1 -.121 0 1 1 0 0 1 -.979-.87600000001zm-282.148.486a.891.891 0 0 1 -.3-1.22.893.893 0 0 1 1.221-.3.888.888 0 0 1 .3 1.216.861.861 0 0 1 -.426.364.914.914 0 0 1 -.336.065.887.887 0 0 1 -.452-.13600000001zm215.705-2.548a.888.888 0 0 1 -.473-1.164.882.882 0 0 1 1.164-.467.882.882 0 0 1 .469 1.159.873.873 0 0 1 -.369.421.876.876 0 0 1 -.445.121.9.9 0 0 1 -.339-.085zm-338.182-2.1a.89.89 0 0 1 -.309-1.22.889.889 0 0 1 1.221-.3.89.89 0 0 1 .3 1.22.881.881 0 0 1 -.43.364.861.861 0 0 1 -.332.066.889.889 0 0 1 -.443-.14500000001zm-103.639-5.45a.892.892 0 0 1 -.3-1.216.893.893 0 0 1 1.221-.3.885.885 0 0 1 .3 1.221.869.869 0 0 1 -.426.364.886.886 0 0 1 -.332.065.871.871 0 0 1 -.456-.148zm25.621-.136a.991.991 0 0 1 -.973-1.01 1 1 0 0 1 1.01-.977 1 1 0 0 1 .977 1.015.988.988 0 0 1 -.621.9 1.013 1.013 0 0 1 -.379.07zm176.883-2.81a1 1 0 0 1 .553-1.295.988.988 0 0 1 1.289.552.983.983 0 0 1 -.547 1.29.942.942 0 0 1 -.369.075 1 1 0 0 1 -.919-.63600000001zm215.668.463a.886.886 0 0 1 -.473-1.164.888.888 0 0 1 1.164-.467.883.883 0 0 1 .473 1.159.93.93 0 0 1 -.373.425.934.934 0 0 1 -.449.117.892.892 0 0 1 -.335-.084zm145.578-2.4a.889.889 0 0 1 -.467-1.164.888.888 0 0 1 1.164-.468.881.881 0 0 1 .467 1.159.839.839 0 0 1 -.369.421.876.876 0 0 1 -.449.122.934.934 0 0 1 -.339-.086zm-482.139-2.9a.891.891 0 0 1 -.3-1.215.889.889 0 0 1 1.219-.3.89.89 0 0 1 .3 1.221.913.913 0 0 1 -.43.364.918.918 0 0 1 -.332.065.883.883 0 0 1 -.449-.149zm311.365-4.333a1 1 0 0 1 .365-1.36.994.994 0 0 1 1.355.364 1 1 0 0 1 -.365 1.36.982.982 0 0 1 -.5.131 1 1 0 0 1 -.84700000001-.509zm-165.9-.753a.987.987 0 0 1 .547-1.295 1 1 0 0 1 1.295.547 1 1 0 0 1 -.553 1.295.942.942 0 0 1 -.369.075 1 1 0 0 1 -.914-.636zm311.484-1.65a.994.994 0 0 1 .365-1.359.994.994 0 0 1 1.355.364 1 1 0 0 1 -.363 1.36 1 1 0 0 1 -.5.131 1 1 0 0 1 -.85100000001-.511zm-480.553-6.306a1 1 0 0 1 .547-1.295.994.994 0 0 1 1.295.547 1 1 0 0 1 -.547 1.295.949.949 0 0 1 -.375.075 1 1 0 0 1 -.914-.636zm357.918-4.539a1 1 0 0 1 .359-1.36 1 1 0 0 1 1.361.365 1 1 0 0 1 -.365 1.36 1 1 0 0 1 -.5.131.984.984 0 0 1 -.84900000001-.51zm145.578-2.4a1 1 0 0 1 .365-1.36.991.991 0 0 1 1.359.369 1 1 0 0 1 -.365 1.355 1 1 0 0 1 -.494.131 1.007 1.007 0 0 1 -.85900000001-.512zm-401.451-1.818a.889.889 0 0 1 -.3-1.22.888.888 0 0 1 1.221-.3.883.883 0 0 1 .3 1.216.87.87 0 0 1 -.426.364.91.91 0 0 1 -.332.065.9.9 0 0 1 -.45700000001-.14200000001zm-77.48-1.169a1 1 0 0 1 .547-1.295 1 1 0 0 1 1.295.552.994.994 0 0 1 -.547 1.295 1.031 1.031 0 0 1 -.369.07 1 1 0 0 1 -.92000000001-.636zm122.295-1.715a1 1 0 0 1 .547-1.295 1 1 0 0 1 1.295.551 1 1 0 0 1 -.547 1.295 1.038 1.038 0 0 1 -.375.07.992.992 0 0 1 -.914-.638zm142.361-.122a.875.875 0 0 1 -.467-1.159.878.878 0 0 1 1.158-.472.884.884 0 0 1 .473 1.163.9.9 0 0 1 -.373.421.883.883 0 0 1 -.445.122.827.827 0 0 1 -.34000000001-.09200000001zm145.584-2.4a.887.887 0 0 1 -.473-1.164.888.888 0 0 1 1.164-.468.887.887 0 0 1 .473 1.164.913.913 0 0 1 -.375.421.88.88 0 0 1 -.443.121.829.829 0 0 1 -.34000000001-.093zm-220.727-4.151a.909.909 0 0 1 .654-1.075.875.875 0 0 1 1.066.641.878.878 0 0 1 -.641 1.08.829.829 0 0 1 -.219.027.924.924 0 0 1 -.854-.693zm119.121-2.538a.991.991 0 0 1 .359-1.355 1 1 0 0 1 1.361.364 1 1 0 0 1 -.365 1.355 1 1 0 0 1 -.5.136.987.987 0 0 1 -.84900000001-.52zm145.582-2.4a.993.993 0 0 1 .361-1.356 1 1 0 0 1 1.359.365 1 1 0 0 1 -.365 1.355 1.008 1.008 0 0 1 -.494.136.99.99 0 0 1 -.855-.522zm-521.24-3.38a.893.893 0 0 1 -.3-1.22.887.887 0 0 1 1.215-.3.89.89 0 0 1 .3 1.221.923.923 0 0 1 -.426.364.914.914 0 0 1 -.336.065.919.919 0 0 1 -.447-.15200000001zm44.82-2.885a.988.988 0 0 1 .547-1.294.993.993 0 0 1 1.295.551.992.992 0 0 1 -.553 1.29.942.942 0 0 1 -.369.075 1 1 0 0 1 -.913-.64500000001z" fill="#fff" transform="translate(18698 9702.482)"/><path d="m-18439.334-9489.11a.993.993 0 0 1 -.977-1.015.992.992 0 0 1 1.014-.973.991.991 0 0 1 .973 1.006.993.993 0 0 1 -.621.906 1.011 1.011 0 0 1 -.375.075zm201.1-3.768a.994.994 0 0 1 .865-1.108 1 1 0 0 1 1.107.865 1 1 0 0 1 -.49.981 1.01 1.01 0 0 1 -.379.126.948.948 0 0 1 -.117.01.994.994 0 0 1 -.984-.874zm145.578-2.4a1 1 0 0 1 .869-1.107.992.992 0 0 1 1.1.864.992.992 0 0 1 -.486.982 1.022 1.022 0 0 1 -.379.126.98.98 0 0 1 -.121.01 1 1 0 0 1 -.981-.878zm-491.182-11.722a1 1 0 0 1 -.977-1.01.994.994 0 0 1 1.014-.973.994.994 0 0 1 .979 1.006 1.006 1.006 0 0 1 -.623.906 1 1 0 0 1 -.379.07zm196.373-28.973a.986.986 0 0 1 .031-1.4.974.974 0 0 1 1.389.023.988.988 0 0 1 -.014 1.407.973.973 0 0 1 -.687.275.966.966 0 0 1 -.719-.3zm5.879-8.493a.992.992 0 0 1 -.977-1.006.993.993 0 0 1 1.01-.977.989.989 0 0 1 .977 1.01.985.985 0 0 1 -.621.9.956.956 0 0 1 -.369.07zm107.436-4.876a.991.991 0 0 1 .863-1.107 1 1 0 0 1 1.109.864.985.985 0 0 1 -.492.981.941.941 0 0 1 -.373.127c-.043 0-.084.009-.121.009a.993.993 0 0 1 -.98600000001-.869zm-192.895-.683a.992.992 0 0 1 -.977-1.01.989.989 0 0 1 1.01-.977.992.992 0 0 1 .977 1.01 1 1 0 0 1 -.621.906 1.043 1.043 0 0 1 -.365.07zm338.477-1.72a.994.994 0 0 1 .865-1.108.993.993 0 0 1 1.107.865.993.993 0 0 1 -.49.981.933.933 0 0 1 -.375.126 1.081 1.081 0 0 1 -.121.01.993.993 0 0 1 -.986-.868zm-60.18-3.983a.988.988 0 0 1 .865-1.107.99.99 0 0 1 1.107.864 1 1 0 0 1 -.49.982 1.112 1.112 0 0 1 -.375.126 1.037 1.037 0 0 1 -.121 0 .987.987 0 0 1 -.986-.86zm-132.437-.3a1.021 1.021 0 0 1 .033-1.4 1 1 0 0 1 1.406.023.994.994 0 0 1 -.033 1.412.988.988 0 0 1 -.668.271 1.055 1.055 0 0 1 -.739-.299zm278.021-2.1a.989.989 0 0 1 .863-1.107 1 1 0 0 1 1.109.864 1.009 1.009 0 0 1 -.492.981.955.955 0 0 1 -.373.122.617.617 0 0 1 -.127.009.984.984 0 0 1 -.98-.866zm-482.92-4.217a.992.992 0 0 1 -.977-1.01 1 1 0 0 1 1.01-.977 1 1 0 0 1 .977 1.01.989.989 0 0 1 -.621.9.98.98 0 0 1 -.369.074zm-85.463-5.558a1 1 0 0 1 -.979-1.01.994.994 0 0 1 1.016-.977.992.992 0 0 1 .977 1.01.992.992 0 0 1 -.621.9 1 1 0 0 1 -.375.075zm308.068-9.316a1 1 0 0 1 .014-1.411 1.008 1.008 0 0 1 1.406.022 1 1 0 0 1 -.018 1.412 1 1 0 0 1 -.687.271.99.99 0 0 1 -.715-.291zm-105.527-.57a.991.991 0 0 1 -.973-1.01.991.991 0 0 1 1.01-.972.986.986 0 0 1 .973 1.01.99.99 0 0 1 -.617.9 1.006 1.006 0 0 1 -.379.07zm188.467-7.124a.993.993 0 0 1 .865-1.1.988.988 0 0 1 1.107.864.993.993 0 0 1 -.486.978 1.059 1.059 0 0 1 -.379.126 1.071 1.071 0 0 1 -.121.009.993.993 0 0 1 -.986-.874zm145.582-2.4a1 1 0 0 1 .865-1.1.993.993 0 0 1 1.107.865.98.98 0 0 1 -.49.977.925.925 0 0 1 -.373.126 1.044 1.044 0 0 1 -.123.01 1 1 0 0 1 -.986-.877zm-478.547-8.354a1 1 0 0 1 -.977-1.01.993.993 0 0 1 1.01-.977.992.992 0 0 1 .977 1.01.991.991 0 0 1 -.623.906.976.976 0 0 1 -.373.07zm189.477-2.959a1 1 0 0 1 .014-1.407 1 1 0 0 1 1.406.023 1.008 1.008 0 0 1 -.014 1.407 1.034 1.034 0 0 1 -.7.275.985.985 0 0 1 -.706-.297zm13.064-6.923a1 1 0 0 1 -.977-1.01.993.993 0 0 1 1.014-.977.988.988 0 0 1 .973 1.01 1 1 0 0 1 -.621.906.972.972 0 0 1 -.375.07zm184.035-14.936a1 1 0 0 1 .869-1.107.992.992 0 0 1 1.1.869.989.989 0 0 1 -.49.982.98.98 0 0 1 -.369.121 1.111 1.111 0 0 1 -.127.01 1 1 0 0 1 -.983-.873zm-328.533-2.949a.992.992 0 0 1 -.977-1.01 1 1 0 0 1 1.014-.977.991.991 0 0 1 .973 1.01 1 1 0 0 1 -.621.906.963.963 0 0 1 -.369.07z" fill="#fff" opacity=".638" transform="translate(18698 9706)"/><path d="m-17510.557-7236.728c-4.178-.18-8.359-.36-12.443-.548v-80.837c185.973-3.045 408.531-3.178 600-.431v81.816z" fill="#596e96" transform="translate(17595 7506.727)"/><path d="m-17523-7233.855v-73.5c95.57-2.974 203.162-4.642 316.859-4.642 100.594 0 196.258 1.307 283.141 3.663v74.482z" fill="#657ba5" transform="translate(17595 7503.852)"/><path d="m-18462.1-9266.032h-114.35a8.9 8.9 0 0 1 1.215-4.5l29.936-51.963a8.9 8.9 0 0 1 7.8-4.508 8.9 8.9 0 0 1 7.8 4.508l16.658 28.921 9.748-16.92a8.907 8.907 0 0 1 7.8-4.507 8.907 8.907 0 0 1 7.8 4.507l25.6 44.458z" fill="#596e96" transform="translate(19104 9457.035)"/><path d="m33.7 13.528a9 9 0 0 1 15.595 0l25.927 44.978a9 9 0 0 1 -7.797 13.494h-51.85a9 9 0 0 1 -7.8-13.494z" fill="#657ba5" transform="translate(525 134)"/><path d="m33.7 13.528a9 9 0 0 1 15.595 0l25.927 44.978a9 9 0 0 1 -7.797 13.494h-51.85a9 9 0 0 1 -7.8-13.494z" fill="#657ba5" transform="translate(567 146)"/><g fill="#596e96"><path d="m13.865 33.343-13.865-33.343h5.577l5.444 12.73h13.235l-3.495-12.73h4.372l10.727 32.741h-6.111l-4.23-15.41h-12.53l6.848 16.012z" transform="matrix(.978 .208 -.208 .978 344.609 206.351)"/><path d="m9.017 0h19.306l-.46 5.227h-15.263l-1.393 4.1h16.006l-.571 5.409h-17.625l-2.144 6.9h18.876l-.68 6.075h-25.069z" transform="matrix(.97437006 -.22495105 .22495105 .97437006 375.701 219.422)"/><path d="m13441.862 18658.406-4.7 31.188h22.73l1.8-6.855h-16.717l3.587-24.332z" transform="translate(-13027.168 -18445.383)"/><path d="m4.763 36.767h-4.763l7.35-36.767h18.522l5.251 12.364-8.23 6.953h-12.949zm8.269-31.188-3.29 8.689h14.258v-4.668z" transform="matrix(.92718385 -.37460659 .37460659 .92718385 427.131 217.819)"/></g><ellipse cx="326.988" cy="245.677" opacity=".192" rx="10.474" ry="1.335"/><path d="m1.266 4.948c-.866-.388-1.416-1.164-1.23-1.733s1.04-.715 1.905-.325 1.416 1.164 1.23 1.733a.928.928 0 0 1 -.964.543 2.335 2.335 0 0 1 -.941-.218zm3.927-3.968a.917.917 0 0 1 .839-.98.919.919 0 0 1 .84.981.916.916 0 0 1 -.838.98.919.919 0 0 1 -.841-.981z" fill="#fff" opacity=".123" transform="matrix(.90630779 .42261826 -.42261826 .90630779 324.528 204.104)"/><path d="m-19546.525-7445.889v-12.221a6.7 6.7 0 0 1 -4.584-2.05 6.71 6.71 0 0 1 -1.889-4.678v-5.982a6.387 6.387 0 0 1 .51-2.523 6.433 6.433 0 0 1 1.385-2.06 6.424 6.424 0 0 1 2.061-1.391 6.455 6.455 0 0 1 2.518-.508h4.055a9.207 9.207 0 0 1 -1.51-.5 9.416 9.416 0 0 1 -3.01-2.03 9.364 9.364 0 0 1 -2.025-3.012 9.374 9.374 0 0 1 -.746-3.687 9.378 9.378 0 0 1 .746-3.688 9.359 9.359 0 0 1 2.025-3.011 9.532 9.532 0 0 1 3.01-2.031 9.381 9.381 0 0 1 3.68-.745 9.391 9.391 0 0 1 3.682.745 9.428 9.428 0 0 1 3.006 2.031 9.334 9.334 0 0 1 2.027 3.011 9.411 9.411 0 0 1 .744 3.688 9.406 9.406 0 0 1 -.744 3.688 9.338 9.338 0 0 1 -2.027 3.012 9.425 9.425 0 0 1 -3.006 2.03 9.175 9.175 0 0 1 -1.514.5h4.053a6.479 6.479 0 0 1 2.525.508 6.463 6.463 0 0 1 2.055 1.391 6.524 6.524 0 0 1 1.389 2.06 6.471 6.471 0 0 1 .5 2.523v5.733a6.954 6.954 0 0 1 -1.8 4.681 6.939 6.939 0 0 1 -4.426 2.259v12.257zm3.238-15.708v12.715h6.225v-19.2h3.232v6.473a3.471 3.471 0 0 0 2.219-1.013 3.473 3.473 0 0 0 1.018-2.469v-5.733a3.468 3.468 0 0 0 -1.018-2.469 3.468 3.468 0 0 0 -2.469-1.023h-12.193a3.481 3.481 0 0 0 -2.469 1.023 3.469 3.469 0 0 0 -1.018 2.469v5.733a3.473 3.473 0 0 0 1.018 2.469 3.492 3.492 0 0 0 2.217 1.013v-6.473h3.238zm.463-30.9a6.493 6.493 0 0 0 -2.051 1.39 6.41 6.41 0 0 0 -1.391 2.062 6.482 6.482 0 0 0 -.508 2.521 6.5 6.5 0 0 0 .508 2.523 6.4 6.4 0 0 0 1.391 2.06 6.477 6.477 0 0 0 2.051 1.39 6.46 6.46 0 0 0 2.523.509 6.41 6.41 0 0 0 2.518-.509 6.379 6.379 0 0 0 2.057-1.39 6.466 6.466 0 0 0 1.389-2.06 6.406 6.406 0 0 0 .508-2.523 6.393 6.393 0 0 0 -.508-2.521 6.463 6.463 0 0 0 -1.389-2.062 6.469 6.469 0 0 0 -2.057-1.39 6.41 6.41 0 0 0 -2.518-.509 6.46 6.46 0 0 0 -2.523.506z" fill="#fff" transform="translate(19866.992 7691.608)"/><path d="m0 4.7a5.972 5.972 0 0 0 2.41-.84 6.315 6.315 0 0 0 1.79-1.651 7.33 7.33 0 0 0 1.1-2.209 6.058 6.058 0 0 1 -.676 1.835 5.811 5.811 0 0 1 -1.182 1.475 5.485 5.485 0 0 1 -1.58.994 5.261 5.261 0 0 1 -1.862.396z" fill="#fff" opacity=".314" transform="matrix(0 -1 1 0 327.719 204.749)"/><ellipse cx="339.354" cy="255.841" opacity=".192" rx="10.474" ry="1.25"/><path d="m4.682 9.4h-1.982l-1-2.212 3.164-3.177h1.179l2.1 2.914-2.1-4.091 1.132-1.134 3.785 1.719a1.026 1.026 0 0 1 .095-.117.979.979 0 1 1 -.22 1.026l-1.653.415a.646.646 0 0 0 -.465.8l.872 3.2c.034 0 .067-.005.1-.005a.964.964 0 0 1 .918.663h-2.645l-2.434-.668a.645.645 0 0 0 -.565.111.637.637 0 0 0 -.232.355l-.05.2zm-3.902-2.349a.32.32 0 0 1 -.228-.094l-.457-.457a.323.323 0 0 1 0-.457l2.881-2.887.326.855h.648l-2.942 2.946a.319.319 0 0 1 -.228.094zm4.345-4.217h-.874l-.5-.457 2.282-2.283a.323.323 0 0 1 .457 0l.457.457a.325.325 0 0 1 0 .458z" fill="#fff" transform="translate(332.456 247.035)"/></svg>