<svg xmlns="http://www.w3.org/2000/svg" width="24" height="24" viewBox="0 0 24 24"><rect width="24" height="24" fill="none"/><path d="M11.166,8.466,7.18,12.452a.753.753,0,0,1-1.065-1.065L10.1,7.4H7.4a.753.753,0,1,1,0-1.506h4.518a.753.753,0,0,1,.753.753v4.518a.753.753,0,1,1-1.506,0Zm-1.883,9.1a8.283,8.283,0,1,1,8.283-8.283A8.283,8.283,0,0,1,9.283,17.567Zm0-1.355A6.928,6.928,0,1,0,2.355,9.283,6.928,6.928,0,0,0,9.283,16.211Z" transform="translate(2.717 2.717)" fill="#818c99" fill-rule="evenodd"/></svg>