<svg height="24" viewBox="0 0 24 24" width="24" xmlns="http://www.w3.org/2000/svg"><path d="m0 0h24v24h-24z" fill="none"/><path d="m9.3 0a3.625 3.625 0 0 1 1.926.334 2.272 2.272 0 0 1 .945.945 3.322 3.322 0 0 1 .329 1.712v.509h1.363a3.529 3.529 0 0 1 1.858.334 2.272 2.272 0 0 1 .945.945 3.529 3.529 0 0 1 .334 1.858v1.8a2.9 2.9 0 0 1 -.267 1.541 1.816 1.816 0 0 1 -.731.743v1.531a3.25 3.25 0 0 1 -3.066 3.245l-.184.005h-8.502a3.25 3.25 0 0 1 -3.245-3.066l-.005-.186v-1.532l-.134-.079a1.814 1.814 0 0 1 -.6-.662 2.624 2.624 0 0 1 -.266-1.345v-2a3.529 3.529 0 0 1 .334-1.853 2.272 2.272 0 0 1 .945-.945 3.245 3.245 0 0 1 1.645-.334h1.576v-.3a3.625 3.625 0 0 1 .334-1.926 2.272 2.272 0 0 1 .945-.94 3.322 3.322 0 0 1 1.712-.334zm5.2 11h-12v1.25a1.75 1.75 0 0 0 1.606 1.744l.144.006h8.5a1.75 1.75 0 0 0 1.744-1.606l.006-.144zm-.469-6h-11.064l-.309.009a1.439 1.439 0 0 0 -.672.147.772.772 0 0 0 -.33.33 1.952 1.952 0 0 0 -.156.98v2.119l.005.237a1.237 1.237 0 0 0 .052.377l.032.07a.319.319 0 0 0 .141.141l.07.032a2.471 2.471 0 0 0 .763.058h11.873a2.471 2.471 0 0 0 .763-.058l.07-.032a.319.319 0 0 0 .141-.141l.032-.07a2.471 2.471 0 0 0 .058-.763v-1.8a2.274 2.274 0 0 0 -.157-1.15.772.772 0 0 0 -.33-.33 1.952 1.952 0 0 0 -.98-.156zm-4.564-3.5h-1.934l-.317.007a1.819 1.819 0 0 0 -.627.1l-.1.048a.772.772 0 0 0 -.33.33l-.048.1a2.6 2.6 0 0 0 -.111.948v.467h5v-.467l-.007-.317a1.819 1.819 0 0 0 -.1-.627l-.048-.1a.772.772 0 0 0 -.33-.33l-.1-.048a2.6 2.6 0 0 0 -.948-.111z" fill="#818c99" transform="translate(3.5 4)"/></svg>