<svg height="192" viewBox="0 0 192 192" width="192" xmlns="http://www.w3.org/2000/svg"><path d="m100.5 4.5a96 96 0 1 0 96 96 95.985 95.985 0 0 0 -96-96zm-34.108 70.2a11.09 11.09 0 1 1 -10.154 10.154 11.1 11.1 0 0 1 10.154-10.154zm-.323 70.108a7.4 7.4 0 0 1 -6.785-10.338 44.927 44.927 0 0 1 82.431 0 7.38 7.38 0 0 1 -6.785 10.338 332.613 332.613 0 0 0 -33.738-1.846c-17.769 0-35.123 1.846-35.123 1.846zm68.538-48.046a11.09 11.09 0 1 1 10.154-10.154 11.1 11.1 0 0 1 -10.153 10.154z" fill="#99a2ad" transform="translate(-4.5 -4.5)"/></svg>