<svg xmlns="http://www.w3.org/2000/svg" width="35.312" height="86.141" viewBox="0 0 35.312 86.141"><g transform="translate(-273.706 -29.859)"><path d="M10.125,22.882a1.127,1.127,0,0,1-2.07.611C2.25,15.007,10.5,14.625,10.5,10.5a3,3,0,1,0-6,.045v4.008a1.125,1.125,0,0,1-1.942.773A9.373,9.373,0,0,1,0,9,9,9,0,0,1,18,9C18,16.982,10.125,18.047,10.125,22.882Z" transform="translate(288.6 92)" fill="#89a9e7"/><path d="M10.125,22.882a1.127,1.127,0,0,1-2.07.611C2.25,15.007,10.5,14.625,10.5,10.5a3,3,0,1,0-6,.045v4.008a1.125,1.125,0,0,1-1.942.773A9.373,9.373,0,0,1,0,9,9,9,0,0,1,18,9C18,16.982,10.125,18.047,10.125,22.882Z" transform="translate(274.6 89)" fill="#89a9e6"/><path d="M7.875,22.882a1.127,1.127,0,0,0,2.07.611C15.75,15.007,7.5,14.625,7.5,10.5a3,3,0,1,1,6,.045v4.008a1.125,1.125,0,0,0,1.942.773A9.373,9.373,0,0,0,18,9,9,9,0,0,0,0,9C0,16.982,7.875,18.047,7.875,22.882Z" transform="translate(283.6 77)" fill="#b2c7f0"/><path d="M40.269,34.722,34.384,28.7C34.384,9.332,22.958.75,22.958.75S11.421,9.332,11.421,28.7l-5.885,6.02a1.019,1.019,0,0,0-.27.87L7.523,49.3a.938.938,0,0,0,1.447.662L17.2,44.395a9.359,9.359,0,0,0,5.774,2.452,8.85,8.85,0,0,0,5.652-2.452l8.226,5.566a.943.943,0,0,0,1.447-.662L40.563,35.58A1.09,1.09,0,0,0,40.269,34.722ZM22.958,22.327A3.927,3.927,0,1,1,26.722,18.4,3.84,3.84,0,0,1,22.958,22.327Z" transform="translate(268.451 29.109)" fill="#fff"/></g></svg>