<svg xmlns="http://www.w3.org/2000/svg" width="16" height="16" viewBox="0 0 16 16"><g transform="translate(-0.465 -0.465)"><rect width="16" height="16" transform="translate(0.465 0.465)" fill="none"/><path d="M9.08,2.021a1.359,1.359,0,0,1,.64.275,1.721,1.721,0,0,1,.588,1.028,2.123,2.123,0,0,0,.147.389q.223.093.437.207a2.189,2.189,0,0,0,.382-.128,1.513,1.513,0,0,1,1.911.223c.044.047.07.077.127.147l.337.409a1.914,1.914,0,0,1,.187.254,1.452,1.452,0,0,1-.242,1.783,2.158,2.158,0,0,0-.223.374q.063.223.1.452a2.195,2.195,0,0,0,.358.233,1.746,1.746,0,0,1,.887.794,1.305,1.305,0,0,1,.129.675,1.8,1.8,0,0,1-.057.337l-.121.513a1.809,1.809,0,0,1-.1.328,1.327,1.327,0,0,1-.417.551A1.778,1.778,0,0,1,13,11.2a2.214,2.214,0,0,0-.414.052q-.142.193-.3.371a2.1,2.1,0,0,0,.041.4,1.7,1.7,0,0,1-.07,1.177,1.331,1.331,0,0,1-.453.523,1.873,1.873,0,0,1-.3.169l-.482.231a1.882,1.882,0,0,1-.322.13,1.37,1.37,0,0,1-.7.029,1.758,1.758,0,0,1-.987-.67,2.183,2.183,0,0,0-.317-.3q-.117.005-.235.005t-.235-.005a2.183,2.183,0,0,0-.317.3,1.758,1.758,0,0,1-.987.67,1.37,1.37,0,0,1-.7-.029,1.882,1.882,0,0,1-.322-.13l-.482-.231-.1-.049a1.462,1.462,0,0,1-.726-1.82,2.1,2.1,0,0,0,.041-.4q-.16-.179-.3-.371a2.214,2.214,0,0,0-.414-.052,1.778,1.778,0,0,1-1.151-.332,1.327,1.327,0,0,1-.417-.551,1.809,1.809,0,0,1-.1-.328l-.121-.513a1.753,1.753,0,0,1-.058-.358,1.3,1.3,0,0,1,.158-.709,1.8,1.8,0,0,1,.858-.74,2.195,2.195,0,0,0,.358-.233q.042-.229.1-.452a2.158,2.158,0,0,0-.223-.374,1.452,1.452,0,0,1-.242-1.783,1.914,1.914,0,0,1,.187-.254l.337-.409c.057-.069.083-.1.127-.147a1.513,1.513,0,0,1,1.911-.223,2.189,2.189,0,0,0,.382.128q.213-.114.437-.207a2.123,2.123,0,0,0,.147-.389A1.721,1.721,0,0,1,7.21,2.3a1.359,1.359,0,0,1,.64-.275A1.612,1.612,0,0,1,8.112,2h.62A1.9,1.9,0,0,1,9.08,2.021Zm-.3,1.032H8.2c-.268,0-.4,0-.536.527a3.314,3.314,0,0,1-.448.985,4.031,4.031,0,0,0-.964.459A3.448,3.448,0,0,1,5.2,4.747c-.5-.229-.585-.127-.753.078l-.337.409c-.169.2-.253.307.079.741a3.319,3.319,0,0,1,.5.977,3.871,3.871,0,0,0-.23,1,3.4,3.4,0,0,1-.88.655c-.492.247-.462.375-.4.632L3.3,9.75c.06.257.09.385.642.395a3.453,3.453,0,0,1,1.073.206,3.98,3.98,0,0,0,.668.822,3.288,3.288,0,0,1-.038,1.07c-.114.531.006.589.247.7l.481.231c.241.115.361.173.716-.242a3.385,3.385,0,0,1,.852-.7,4.142,4.142,0,0,0,1.04,0,3.385,3.385,0,0,1,.852.7c.355.416.476.358.716.242l.482-.231c.241-.115.361-.173.247-.7a3.288,3.288,0,0,1-.038-1.07,3.98,3.98,0,0,0,.668-.822,3.453,3.453,0,0,1,1.073-.206c.552-.01.582-.138.642-.395l.121-.513c.06-.257.09-.385-.4-.632a3.4,3.4,0,0,1-.88-.655,3.871,3.871,0,0,0-.23-1,3.319,3.319,0,0,1,.5-.977c.332-.434.248-.536.079-.741l-.337-.409c-.169-.2-.253-.307-.753-.078a3.448,3.448,0,0,1-1.046.277,4.031,4.031,0,0,0-.964-.459,3.314,3.314,0,0,1-.448-.985C9.142,3.084,9.016,3.055,8.779,3.053Zm-.314,2.9a2.37,2.37,0,1,1-2.411,2.37A2.39,2.39,0,0,1,8.465,5.95ZM8.465,7A1.317,1.317,0,1,0,9.8,8.319,1.328,1.328,0,0,0,8.465,7Z" fill="#99a2ad"/></g></svg>