<svg xmlns="http://www.w3.org/2000/svg" width="24" height="24" viewBox="0 0 24 24"><g transform="translate(-468 -15)"><rect width="24" height="24" transform="translate(468 15)" fill="none"/><g transform="translate(471 18)"><g transform="translate(-0.443 -0.443)"><rect width="18" height="18" transform="translate(0.443 0.443)" fill="none"/><path d="M10.153,2.025a1.564,1.564,0,0,1,.738.319,2,2,0,0,1,.678,1.191,2.468,2.468,0,0,0,.169.451q.258.108.5.24a2.516,2.516,0,0,0,.441-.149,1.738,1.738,0,0,1,2.2.258c.051.054.081.09.147.17l.389.474a2.218,2.218,0,0,1,.215.294,1.689,1.689,0,0,1-.279,2.066,2.5,2.5,0,0,0-.258.434q.072.259.12.524a2.529,2.529,0,0,0,.413.269,2.017,2.017,0,0,1,1.022.92,1.519,1.519,0,0,1,.148.782,2.1,2.1,0,0,1-.066.391l-.139.595a2.1,2.1,0,0,1-.115.38,1.537,1.537,0,0,1-.481.639,2.044,2.044,0,0,1-1.327.384,2.541,2.541,0,0,0-.477.06q-.164.223-.348.43a2.445,2.445,0,0,0,.048.466,1.979,1.979,0,0,1-.081,1.364,1.54,1.54,0,0,1-.522.606,2.156,2.156,0,0,1-.349.2l-.555.268a2.164,2.164,0,0,1-.371.151,1.572,1.572,0,0,1-.805.033,2.027,2.027,0,0,1-1.138-.777,2.522,2.522,0,0,0-.365-.342q-.135.006-.271.006t-.271-.006a2.522,2.522,0,0,0-.365.342,2.027,2.027,0,0,1-1.138.777,1.572,1.572,0,0,1-.805-.033,2.164,2.164,0,0,1-.371-.151l-.555-.268-.114-.056a1.7,1.7,0,0,1-.837-2.11,2.445,2.445,0,0,0,.048-.466q-.184-.207-.348-.43a2.541,2.541,0,0,0-.477-.06,2.044,2.044,0,0,1-1.327-.384,1.537,1.537,0,0,1-.481-.639,2.1,2.1,0,0,1-.115-.38l-.139-.595a2.041,2.041,0,0,1-.067-.415,1.516,1.516,0,0,1,.183-.821,2.073,2.073,0,0,1,.99-.857A2.529,2.529,0,0,0,3.666,8.3q.048-.265.12-.524a2.5,2.5,0,0,0-.258-.434,1.689,1.689,0,0,1-.279-2.066,2.218,2.218,0,0,1,.215-.294l.389-.474c.066-.08.1-.116.147-.17a1.738,1.738,0,0,1,2.2-.258,2.516,2.516,0,0,0,.441.149q.246-.132.5-.24a2.468,2.468,0,0,0,.169-.451A2,2,0,0,1,8,2.344a1.564,1.564,0,0,1,.738-.319A1.85,1.85,0,0,1,9.037,2h.715A2.175,2.175,0,0,1,10.153,2.025Zm-.347,1.2H9.134c-.309,0-.463,0-.618.61A3.85,3.85,0,0,1,8,4.973,4.639,4.639,0,0,0,6.888,5.5a3.961,3.961,0,0,1-1.206-.321c-.577-.265-.675-.147-.869.09l-.389.474c-.194.237-.292.356.091.858A3.853,3.853,0,0,1,5.095,7.74,4.505,4.505,0,0,0,4.83,8.9a3.916,3.916,0,0,1-1.015.759c-.567.286-.532.435-.463.732l.139.595c.069.3.1.446.741.457a3.964,3.964,0,0,1,1.237.238,4.608,4.608,0,0,0,.77.952A3.829,3.829,0,0,1,6.2,13.87c-.132.615.007.682.284.816l.555.268c.278.134.416.2.826-.281a3.908,3.908,0,0,1,.983-.809,4.753,4.753,0,0,0,1.2,0,3.908,3.908,0,0,1,.983.809c.41.482.548.415.826.281l.555-.268c.278-.134.416-.2.284-.816a3.829,3.829,0,0,1-.044-1.24,4.608,4.608,0,0,0,.77-.952,3.964,3.964,0,0,1,1.237-.238c.637-.011.671-.16.741-.457l.139-.595c.069-.3.1-.446-.463-.732A3.916,3.916,0,0,1,14.057,8.9a4.5,4.5,0,0,0-.265-1.156,3.853,3.853,0,0,1,.579-1.133c.383-.5.286-.621.091-.858l-.389-.474c-.194-.237-.292-.356-.869-.09A3.961,3.961,0,0,1,12,5.5a4.639,4.639,0,0,0-1.112-.532,3.85,3.85,0,0,1-.516-1.142C10.225,3.256,10.079,3.223,9.805,3.221ZM9.443,6.577a2.747,2.747,0,1,1-2.78,2.746A2.763,2.763,0,0,1,9.443,6.577Zm0,1.221a1.526,1.526,0,1,0,1.544,1.526A1.535,1.535,0,0,0,9.443,7.8Z" fill="#2a5885"/></g></g></g></svg>