<svg xmlns="http://www.w3.org/2000/svg" width="24" height="24" viewBox="0 0 24 24"><g transform="translate(0.523 -0.166)"><path d="M16.364,15.689c-.525-.187-1.383-.2-1.762-.342a2.49,2.49,0,0,1-.816-.38,5.04,5.04,0,0,1-.136-1.336,2.158,2.158,0,0,0,.464-.656,7.293,7.293,0,0,0,.225-1.289s.309.131.431-.488c.1-.534.3-.816.248-1.209s-.272-.3-.272-.3a3.51,3.51,0,0,0,.272-1.753,2.805,2.805,0,0,0-3.028-2.77,2.815,2.815,0,0,0-3.033,2.77,3.562,3.562,0,0,0,.267,1.753s-.22-.094-.272.3.141.675.248,1.209c.122.623.431.488.431.488a7.364,7.364,0,0,0,.225,1.289,2.158,2.158,0,0,0,.464.656,5.04,5.04,0,0,1-.136,1.336,2.4,2.4,0,0,1-.816.375c-.375.145-1.233.164-1.762.352a3.308,3.308,0,0,0-2.147,3.15H18.506A3.3,3.3,0,0,0,16.364,15.689Z" fill="#3574ed"/><path d="M6.563,13.406a3.182,3.182,0,0,0,1.566-.436c-.727-1.1-.333-2.386-.483-3.586A1.978,1.978,0,0,0,5.456,7.472H5.438a1.984,1.984,0,0,0-2.17,1.912c-.15,1.2.267,2.625-.478,3.586a2.945,2.945,0,0,0,1.57.389h0a2.374,2.374,0,0,1-.047.788,1.184,1.184,0,0,1-.562.258,10.876,10.876,0,0,0-1.214.337,1.974,1.974,0,0,0-1.059,1.744H5.241a3.368,3.368,0,0,1,1.5-1.4A3.148,3.148,0,0,1,7.9,14.845s.178-.281-.408-.389a4,4,0,0,1-.9-.314C6.5,14.039,6.563,13.406,6.563,13.406Z" fill="#3574ed"/><path d="M17.438,13.406a3.182,3.182,0,0,1-1.566-.436c.727-1.1.333-2.386.483-3.586a1.978,1.978,0,0,1,2.189-1.912h.019a1.984,1.984,0,0,1,2.17,1.912c.15,1.2-.267,2.625.478,3.586a2.945,2.945,0,0,1-1.57.389h0a2.374,2.374,0,0,0,.047.788,1.184,1.184,0,0,0,.563.258,10.876,10.876,0,0,1,1.214.337,1.974,1.974,0,0,1,1.059,1.744H18.759a3.368,3.368,0,0,0-1.5-1.4,3.148,3.148,0,0,0-1.158-.244s-.178-.281.408-.389a4,4,0,0,0,.9-.314C17.5,14.039,17.438,13.406,17.438,13.406Z" fill="#3574ed"/></g><rect width="24" height="24" fill="none"/></svg>