<svg xmlns="http://www.w3.org/2000/svg" width="24" height="24" viewBox="0 0 24 24"><g transform="translate(-552 -114)"><rect width="24" height="24" transform="translate(552 114)" fill="none"/><g transform="translate(286 85)"><path d="M2.624,5.931a.292.292,0,0,1-.536.158c-1.5-2.2.634-2.3.634-3.368a.778.778,0,1,0-1.555.012V3.772a.292.292,0,0,1-.5.2A2.429,2.429,0,0,1,0,2.333a2.333,2.333,0,0,1,4.665,0C4.665,4.4,2.624,4.678,2.624,5.931Z" transform="translate(277.566 45.965)" fill="#99a2ad"/><path d="M2.624,5.931a.292.292,0,0,1-.536.158c-1.5-2.2.634-2.3.634-3.368a.778.778,0,1,0-1.555.012V3.772a.292.292,0,0,1-.5.2A2.429,2.429,0,0,1,0,2.333a2.333,2.333,0,0,1,4.665,0C4.665,4.4,2.624,4.678,2.624,5.931Z" transform="translate(273.937 45.188)" fill="#99a2ad"/><path d="M2.041,5.931a.292.292,0,0,0,.536.158c1.5-2.2-.634-2.3-.634-3.368A.778.778,0,1,1,3.5,2.733V3.772a.292.292,0,0,0,.5.2,2.429,2.429,0,0,0,.663-1.64A2.333,2.333,0,0,0,0,2.333C0,4.4,2.041,4.678,2.041,5.931Z" transform="translate(276.27 42.078)" fill="#99a2ad"/><path d="M14.33,9.555,12.8,8C12.8,2.974,9.843.75,9.843.75S6.853,2.974,6.853,8L5.328,9.555a.264.264,0,0,0-.07.226l.585,3.553a.243.243,0,0,0,.375.172L8.35,12.062a2.426,2.426,0,0,0,1.5.636,2.294,2.294,0,0,0,1.465-.636l2.132,1.443a.244.244,0,0,0,.375-.172l.588-3.556A.282.282,0,0,0,14.33,9.555ZM9.843,6.343a1.018,1.018,0,1,1,.976-1.017A1,1,0,0,1,9.843,6.343Z" transform="translate(268.451 29.109)" fill="#99a2ad"/></g></g></svg>