<svg id="x_Panel_Header_Size:_Regular_Width_Dismiss_Button" xmlns="http://www.w3.org/2000/svg" width="28" height="28" viewBox="0 0 28 28">
  <g id="Button">
    <rect id="Button-2" width="28" height="28" rx="14" fill="rgba(0,0,0,0.35)"/>
    <g id="cancel_20_close" transform="translate(4 4)">
      <path id="_Icon_Color" d="M10,10,5.417,14.584,10,10,5.417,5.417,10,10l4.583-4.583L10,10l4.583,4.583Z" fill="#fff"/>
    </g>
  </g>
  <g id="cancel_24_close" transform="translate(2 2)">
    <path id="_Icon_Color-2" d="M1.707.293A1,1,0,0,0,.293,1.707L5.086,6.5.293,11.293a1,1,0,0,0,1.414,1.414L6.5,7.914l4.793,4.793a1,1,0,0,0,1.414-1.414L7.914,6.5l4.793-4.793A1,1,0,0,0,11.293.293L6.5,5.086Z" transform="translate(5.5 5.5)" fill="#cdcdcc"/>
  </g>
</svg>
